<svg xmlns="http://www.w3.org/2000/svg" viewBox="0 0 150 210" width="150" height="210"><defs><linearGradient id="cardBg" x1="0%" y1="0%" x2="100%" y2="100%"><stop offset="0%" style="stop-color:#1E3A5F"/><stop offset="100%" style="stop-color:#0D1B2A"/></linearGradient><radialGradient id="flameGrad" cx="50%" cy="50%" r="50%"><stop offset="0%" style="stop-color:#FF6B35"/><stop offset="100%" style="stop-color:#8B0000"/></radialGradient><filter id="shadow"><feDropShadow dx="2" dy="2" stdDeviation="3" flood-opacity="0.3"/></filter></defs><rect x="5" y="5" width="140" height="200" rx="12" fill="url(#cardBg)" stroke="#2E5A8B" stroke-width="3"/><rect x="12" y="12" width="126" height="186" rx="8" fill="none" stroke="#3D7AB8" stroke-width="1"/><rect x="55" y="18" width="40" height="18" rx="9" fill="#3D7AB8"/><text x="75" y="31" text-anchor="middle" font-size="10" fill="#FFF" font-weight="bold">物品</text><g transform="translate(75, 95)" filter="url(#shadow)"><rect x="-20" y="-25" width="40" height="50" fill="#8B4513" rx="3"/><rect x="-18" y="-23" width="36" height="46" fill="#A0522D" rx="2"/><rect x="-15" y="-15" width="8" height="20" fill="url(#flameGrad)" rx="1"/><rect x="-5" y="-10" width="8" height="25" fill="url(#flameGrad)" rx="1"/><rect x="5" y="-18" width="8" height="18" fill="url(#flameGrad)" rx="1"/></g><text x="75" y="165" text-anchor="middle" font-size="14" fill="#FFF" font-weight="bold">火柴</text><text x="75" y="182" text-anchor="middle" font-size="11" fill="#8BB8E8">Matches</text><circle cx="75" cy="195" r="3" fill="#3D7AB8"/></svg>