<svg xmlns="http://www.w3.org/2000/svg" viewBox="0 0 150 210" width="150" height="210"><defs><linearGradient id="cardBg" x1="0%" y1="0%" x2="100%" y2="100%"><stop offset="0%" style="stop-color:#6B3D8B"/><stop offset="100%" style="stop-color:#4A1A6B"/></linearGradient><linearGradient id="goldGrad" x1="0%" y1="0%" x2="100%" y2="100%"><stop offset="0%" style="stop-color:#FFD700"/><stop offset="100%" style="stop-color:#B8860B"/></linearGradient><filter id="glow"><feGaussianBlur stdDeviation="2" result="blur"/><feMerge><feMergeNode in="blur"/><feMergeNode in="SourceGraphic"/></feMerge></filter></defs><rect x="5" y="5" width="140" height="200" rx="12" fill="url(#cardBg)" stroke="#8B5DA8" stroke-width="3"/><rect x="12" y="12" width="126" height="186" rx="8" fill="none" stroke="#AB7DC8" stroke-width="1"/><rect x="55" y="18" width="40" height="18" rx="9" fill="#8B5DA8"/><text x="75" y="31" text-anchor="middle" font-size="10" fill="#FFF" font-weight="bold">預兆</text><g transform="translate(75, 100) scale(1.3)" filter="url(#glow)"><circle cx="0" cy="0" r="25" fill="none" stroke="url(#goldGrad)" stroke-width="3"/><path d="M0,-20 L5,-5 L20,-5 L8,5 L12,20 L0,10 L-12,20 L-8,5 L-20,-5 L-5,-5 Z" fill="url(#goldGrad)"/></g><text x="75" y="170" text-anchor="middle" font-size="13" fill="#FFF" font-weight="bold">神秘符咒</text><text x="75" y="188" text-anchor="middle" font-size="11" fill="#D8B8E8">Mystic Talisman</text><circle cx="75" cy="200" r="3" fill="#8B5DA8"/></svg>