<svg xmlns="http://www.w3.org/2000/svg" viewBox="0 0 150 210" width="150" height="210"><defs><linearGradient id="cardBg" x1="0%" y1="0%" x2="100%" y2="100%"><stop offset="0%" style="stop-color:#6B3D8B"/><stop offset="100%" style="stop-color:#4A1A6B"/></linearGradient><filter id="shadow"><feDropShadow dx="2" dy="2" stdDeviation="3" flood-opacity="0.3"/></filter></defs><rect x="5" y="5" width="140" height="200" rx="12" fill="url(#cardBg)" stroke="#8B5DA8" stroke-width="3"/><rect x="12" y="12" width="126" height="186" rx="8" fill="none" stroke="#AB7DC8" stroke-width="1"/><rect x="55" y="18" width="40" height="18" rx="9" fill="#8B5DA8"/><text x="75" y="31" text-anchor="middle" font-size="10" fill="#FFF" font-weight="bold">預兆</text><g transform="translate(75, 100) scale(1.3)" filter="url(#shadow)"><rect x="-20" y="-28" width="40" height="56" fill="#4A2511" rx="2"/><rect x="-18" y="-26" width="36" height="52" fill="#5A3521" rx="1"/><line x1="-15" y1="-20" x2="15" y2="-20" stroke="#333" stroke-width="1"/><line x1="-15" y1="-10" x2="15" y2="-10" stroke="#333" stroke-width="1"/><line x1="-15" y1="0" x2="15" y2="0" stroke="#333" stroke-width="1"/><line x1="-15" y1="10" x2="15" y2="10" stroke="#333" stroke-width="1"/><rect x="-12" y="-5" width="8" height="10" fill="#8B0000" opacity="0.5"/></g><text x="75" y="170" text-anchor="middle" font-size="13" fill="#FFF" font-weight="bold">古老書籍</text><text x="75" y="188" text-anchor="middle" font-size="11" fill="#D8B8E8">Ancient Book</text><circle cx="75" cy="200" r="3" fill="#8B5DA8"/></svg>