<svg xmlns="http://www.w3.org/2000/svg" viewBox="0 0 150 210" width="150" height="210"><defs><linearGradient id="cardBg" x1="0%" y1="0%" x2="100%" y2="100%"><stop offset="0%" style="stop-color:#2E7A3E"/><stop offset="100%" style="stop-color:#1A4A2A"/></linearGradient><filter id="shadow"><feDropShadow dx="2" dy="2" stdDeviation="3" flood-opacity="0.3"/></filter></defs><rect x="5" y="5" width="140" height="200" rx="12" fill="url(#cardBg)" stroke="#4A9A5A" stroke-width="3"/><rect x="12" y="12" width="126" height="186" rx="8" fill="none" stroke="#6ABA7A" stroke-width="1"/><rect x="55" y="18" width="40" height="18" rx="9" fill="#4A9A5A"/><text x="75" y="31" text-anchor="middle" font-size="10" fill="#FFF" font-weight="bold">事件</text><g transform="translate(75, 100) scale(1.3)" filter="url(#shadow)"><polygon points="0,-30 25,-10 15,25 -15,25 -25,-10" fill="#4A4A4A" opacity="0.5"/><polygon points="0,-20 15,-5 10,15 -10,15 -15,-5" fill="#666" opacity="0.7"/><polygon points="0,-10 8,0 5,8 -5,8 -8,0" fill="#888"/></g><text x="75" y="170" text-anchor="middle" font-size="13" fill="#FFF" font-weight="bold">空間扭曲</text><text x="75" y="188" text-anchor="middle" font-size="11" fill="#A8D8A8">Space Warp</text><circle cx="75" cy="200" r="3" fill="#4A9A5A"/></svg>