<svg xmlns="http://www.w3.org/2000/svg" viewBox="0 0 150 210" width="150" height="210"><defs><linearGradient id="cardBg" x1="0%" y1="0%" x2="100%" y2="100%"><stop offset="0%" style="stop-color:#6B3D8B"/><stop offset="100%" style="stop-color:#4A1A6B"/></linearGradient><filter id="shadow"><feDropShadow dx="2" dy="2" stdDeviation="3" flood-opacity="0.3"/></filter></defs><rect x="5" y="5" width="140" height="200" rx="12" fill="url(#cardBg)" stroke="#8B5DA8" stroke-width="3"/><rect x="12" y="12" width="126" height="186" rx="8" fill="none" stroke="#AB7DC8" stroke-width="1"/><rect x="55" y="18" width="40" height="18" rx="9" fill="#8B5DA8"/><text x="75" y="31" text-anchor="middle" font-size="10" fill="#FFF" font-weight="bold">預兆</text><g transform="translate(75, 100) scale(1.3)" filter="url(#shadow)"><ellipse cx="0" cy="10" rx="20" ry="25" fill="#D2691E"/><ellipse cx="0" cy="5" rx="15" ry="18" fill="#CD853F"/><circle cx="-5" cy="0" r="3" fill="#333"/><circle cx="5" cy="0" r="3" fill="#333"/><ellipse cx="0" cy="12" rx="4" ry="3" fill="#333"/><path d="M-15,-5 Q-20,-20 0,-25 Q20,-20 15,-5" fill="#8B4513"/></g><text x="75" y="170" text-anchor="middle" font-size="13" fill="#FFF" font-weight="bold">狗靈</text><text x="75" y="188" text-anchor="middle" font-size="11" fill="#D8B8E8">Ghost Dog</text><circle cx="75" cy="200" r="3" fill="#8B5DA8"/></svg>