<svg xmlns="http://www.w3.org/2000/svg" viewBox="0 0 100 140" width="200" height="280">
  <defs>
    <linearGradient id="bgGrad" x1="0%" y1="0%" x2="100%" y2="100%">
      <stop offset="0%" style="stop-color:#DC143C"/><stop offset="100%" style="stop-color:#8B0000"/>
    </linearGradient>
  </defs>
  <rect x="5" y="5" width="90" height="130" rx="10" fill="url(#bgGrad)" stroke="#8B0000" stroke-width="3"/>
  <rect x="10" y="10" width="80" height="120" rx="8" fill="#FFF8DC"/>
  <circle cx="50" cy="45" r="30" fill="#FFE4E1" stroke="#FFB6C1" stroke-width="2"/>
  <path d="M30,25 Q50,15 70,25 L70,45 Q50,35 30,45 Z" fill="#4A2511"/>
  <path d="M25,30 L30,20 L70,20 L75,30" fill="#4A2511"/>
  <circle cx="40" cy="48" r="4" fill="#8B4513"/>
  <circle cx="60" cy="48" r="4" fill="#8B4513"/>
  <path d="M45,35 Q50,38 55,35" fill="none" stroke="#4A2511" stroke-width="2"/>
  <path d="M42,62 Q50,66 58,62" fill="none" stroke="#CD853F" stroke-width="2" stroke-linecap="round"/>
  <path d="M25,75 L75,75 L80,110 L20,110 Z" fill="#DC143C" stroke="#8B0000" stroke-width="2"/>
  <text x="50" y="125" text-anchor="middle" font-size="9" font-weight="bold" fill="#8B0000">薇薇安 Vivian</text>
  <text x="50" y="135" text-anchor="middle" font-size="8" fill="#666">42歲</text>
</svg>
