<svg xmlns="http://www.w3.org/2000/svg" viewBox="0 0 100 140" width="200" height="280"><defs><linearGradient id="bgGrad" x1="0%" y1="0%" x2="100%" y2="100%"><stop offset="0%" style="stop-color:#9370DB"/><stop offset="100%" style="stop-color:#4B0082"/></linearGradient><filter id="softShadow"><feGaussianBlur in="SourceAlpha" stdDeviation="2"/><feOffset dx="1" dy="1"/><feComponentTransfer><feFuncA type="linear" slope="0.3"/></feComponentTransfer><feMerge><feMergeNode/><feMergeNode in="SourceGraphic"/></feMerge></filter></defs><rect x="5" y="5" width="90" height="130" rx="10" fill="url(#bgGrad)" stroke="#4B0082" stroke-width="3"/><rect x="10" y="10" width="80" height="120" rx="8" fill="#FFF8DC"/><ellipse cx="26" cy="30" rx="7" ry="12" fill="#2F1B14" filter="url(#softShadow)"/><ellipse cx="74" cy="30" rx="7" ry="12" fill="#2F1B14" filter="url(#softShadow)"/><path d="M32,68 L68,68 L72,112 L28,112 Z" fill="#9370DB" stroke="#4B0082" stroke-width="2" filter="url(#softShadow)"/><ellipse cx="20" cy="88" rx="4" ry="12" fill="#FFE4E1" transform="rotate(-10 20 88)"/><ellipse cx="80" cy="88" rx="4" ry="12" fill="#FFE4E1" transform="rotate(10 80 88)"/><rect x="47" y="62" width="6" height="8" fill="#FFE4E1"/><circle cx="50" cy="42" r="22" fill="#FFE4E1" filter="url(#softShadow)"/><path d="M28,28 Q42,18 50,23 Q58,18 72,28 Q66,14 50,12 Q34,14 28,28" fill="#2F1B14"/><path d="M40,34 Q44,32 48,34" fill="none" stroke="#2F1B14" stroke-width="1.5" stroke-linecap="round"/><path d="M52,34 Q56,32 60,34" fill="none" stroke="#2F1B14" stroke-width="1.5" stroke-linecap="round"/><ellipse cx="43" cy="41" rx="4" ry="5" fill="#FFF"/><ellipse cx="57" cy="41" rx="4" ry="5" fill="#FFF"/><circle cx="44" cy="42" r="3" fill="#228B22"/><circle cx="56" cy="42" r="3" fill="#228B22"/><circle cx="44.5" cy="41" r="1" fill="#FFF"/><circle cx="55.5" cy="41" r="1" fill="#FFF"/><ellipse cx="37" cy="50" rx="3.5" ry="2" fill="#DDA0DD" opacity="0.5"/><ellipse cx="63" cy="50" rx="3.5" ry="2" fill="#DDA0DD" opacity="0.5"/><path d="M50,48 L49,52 L51,52" fill="none" stroke="#FFB6C1" stroke-width="1.5" stroke-linecap="round"/><path d="M45,56 Q50,60 55,56" fill="none" stroke="#CD853F" stroke-width="1.5" stroke-linecap="round"/><circle cx="21" cy="50" r="1.5" fill="#FFD700"/><circle cx="79" cy="50" r="1.5" fill="#FFD700"/><text x="50" y="132" text-anchor="middle" font-size="9" font-weight="bold" fill="#4B0082">柔伊 Zoe</text><text x="50" y="138" text-anchor="middle" font-size="7" fill="#666">21歲</text></svg>