<svg xmlns="http://www.w3.org/2000/svg" viewBox="0 0 100 140" width="200" height="280">
  <defs>
    <linearGradient id="bgGrad" x1="0%" y1="0%" x2="100%" y2="100%">
      <stop offset="0%" style="stop-color:#8B4513"/><stop offset="100%" style="stop-color:#4A2503"/>
    </linearGradient>
  </defs>
  <rect x="5" y="5" width="90" height="130" rx="10" fill="url(#bgGrad)" stroke="#4A2503" stroke-width="3"/>
  <rect x="10" y="10" width="80" height="120" rx="8" fill="#FFF8DC"/>
  <circle cx="50" cy="45" r="30" fill="#F5DEB3" stroke="#DEB887" stroke-width="2"/>
  <rect x="25" y="15" width="50" height="25" rx="10" fill="#C0C0C0"/>
  <path d="M20,30 Q50,10 80,30" fill="#C0C0C0"/>
  <line x1="35" y1="40" x2="45" y2="40" stroke="#4A4A4A" stroke-width="1"/>
  <line x1="55" y1="40" x2="65" y2="40" stroke="#4A4A4A" stroke-width="1"/>
  <circle cx="40" cy="50" r="4" fill="#4682B4"/>
  <circle cx="60" cy="50" r="4" fill="#4682B4"/>
  <path d="M42,65 Q50,68 58,65" fill="none" stroke="#8B4513" stroke-width="2" stroke-linecap="round"/>
  <path d="M25,75 L75,75 L80,110 L20,110 Z" fill="#8B4513" stroke="#4A2503" stroke-width="2"/>
  <text x="50" y="125" text-anchor="middle" font-size="10" font-weight="bold" fill="#4A2503">彼得 Peter</text>
  <text x="50" y="135" text-anchor="middle" font-size="8" fill="#666">58歲</text>
</svg>
