<svg xmlns="http://www.w3.org/2000/svg" viewBox="0 0 100 140" width="200" height="280">
  <defs>
    <linearGradient id="bgGrad" x1="0%" y1="0%" x2="100%" y2="100%">
      <stop offset="0%" style="stop-color:#9370DB"/><stop offset="100%" style="stop-color:#4B0082"/>
    </linearGradient>
  </defs>
  <rect x="5" y="5" width="90" height="130" rx="10" fill="url(#bgGrad)" stroke="#4B0082" stroke-width="3"/>
  <rect x="10" y="10" width="80" height="120" rx="8" fill="#FFF8DC"/>
  <circle cx="50" cy="45" r="30" fill="#FFE4E1" stroke="#FFB6C1" stroke-width="2"/>
  <path d="M25,30 Q50,10 75,30 L75,50 Q50,40 25,50 Z" fill="#2F1B14" stroke="#1A0F0A"/>
  <ellipse cx="35" cy="35" rx="8" ry="12" fill="#2F1B14"/>
  <ellipse cx="65" cy="35" rx="8" ry="12" fill="#2F1B14"/>
  <circle cx="42" cy="45" r="4" fill="#228B22"/>
  <circle cx="58" cy="45" r="4" fill="#228B22"/>
  <path d="M45,58 Q50,62 55,58" fill="none" stroke="#CD853F" stroke-width="2" stroke-linecap="round"/>
  <path d="M25,75 L75,75 L80,110 L20,110 Z" fill="#9370DB" stroke="#4B0082" stroke-width="2"/>
  <text x="50" y="125" text-anchor="middle" font-size="10" font-weight="bold" fill="#4B0082">柔伊 Zoe</text>
  <text x="50" y="135" text-anchor="middle" font-size="8" fill="#666">21歲</text>
</svg>
