<svg xmlns="http://www.w3.org/2000/svg" viewBox="0 0 100 140" width="200" height="280"><defs><linearGradient id="bgGrad" x1="0%" y1="0%" x2="100%" y2="100%"><stop offset="0%" style="stop-color:#4B0082"/><stop offset="100%" style="stop-color:#1A0033"/></linearGradient><filter id="softShadow"><feGaussianBlur in="SourceAlpha" stdDeviation="2"/><feOffset dx="1" dy="1"/><feComponentTransfer><feFuncA type="linear" slope="0.3"/></feComponentTransfer><feMerge><feMergeNode/><feMergeNode in="SourceGraphic"/></feMerge></filter></defs><rect x="5" y="5" width="90" height="130" rx="10" fill="url(#bgGrad)" stroke="#1A0033" stroke-width="3"/><rect x="10" y="10" width="80" height="120" rx="8" fill="#FFF8DC"/><path d="M22,26 Q50,10 78,26 L82,50 Q50,40 18,50 Z" fill="#1A1A2E"/><circle cx="50" cy="12" r="5" fill="#FFD700"/><path d="M35,65 L65,65 L70,110 L30,110 Z" fill="#4B0082" stroke="#1A0033" stroke-width="2" filter="url(#softShadow)"/><ellipse cx="22" cy="85" rx="4" ry="11" fill="#FFE4E1" transform="rotate(-4 22 85)"/><ellipse cx="78" cy="85" rx="4" ry="11" fill="#FFE4E1" transform="rotate(4 78 85)"/><rect x="47" y="60" width="6" height="7" fill="#FFE4E1"/><circle cx="50" cy="44" r="22" fill="#FFE4E1" filter="url(#softShadow)"/><path d="M44,30 Q50,34 56,30" fill="none" stroke="#1A1A2E" stroke-width="2"/><path d="M40,34 Q44,32 48,34" fill="none" stroke="#1A1A2E" stroke-width="1.5" stroke-linecap="round"/><path d="M52,34 Q56,32 60,34" fill="none" stroke="#1A1A2E" stroke-width="1.5" stroke-linecap="round"/><ellipse cx="43" cy="42" rx="4" ry="5" fill="#FFF"/><ellipse cx="57" cy="42" rx="4" ry="5" fill="#FFF"/><circle cx="44" cy="43" r="2.8" fill="#4B0082"/><circle cx="56" cy="43" r="2.8" fill="#4B0082"/><circle cx="44.5" cy="42" r="1" fill="#FFF"/><circle cx="55.5" cy="42" r="1" fill="#FFF"/><ellipse cx="37" cy="51" rx="3.5" ry="2" fill="#DDA0DD" opacity="0.5"/><ellipse cx="63" cy="51" rx="3.5" ry="2" fill="#DDA0DD" opacity="0.5"/><path d="M46,58 Q50,61 54,58" fill="none" stroke="#8B7355" stroke-width="1.5" stroke-linecap="round"/><text x="50" y="132" text-anchor="middle" font-size="8" font-weight="bold" fill="#1A0033">薩拉夫人 Madame</text><text x="50" y="138" text-anchor="middle" font-size="7" fill="#666">67歲</text></svg>