<svg xmlns="http://www.w3.org/2000/svg" viewBox="0 0 100 140" width="200" height="280"><defs><linearGradient id="bgGrad" x1="0%" y1="0%" x2="100%" y2="100%"><stop offset="0%" style="stop-color:#4682B4"/><stop offset="100%" style="stop-color:#191970"/></linearGradient><filter id="softShadow"><feGaussianBlur in="SourceAlpha" stdDeviation="2"/><feOffset dx="1" dy="1"/><feComponentTransfer><feFuncA type="linear" slope="0.3"/></feComponentTransfer><feMerge><feMergeNode/><feMergeNode in="SourceGraphic"/></feMerge></filter></defs><rect x="5" y="5" width="90" height="130" rx="10" fill="url(#bgGrad)" stroke="#191970" stroke-width="3"/><rect x="10" y="10" width="80" height="120" rx="8" fill="#FFF8DC"/><rect x="26" y="18" width="48" height="16" rx="4" fill="#2F1B14"/><path d="M22,32 L26,18 L74,18 L78,32" fill="#2F1B14"/><path d="M32,65 L68,65 L72,110 L28,110 Z" fill="#4682B4" stroke="#191970" stroke-width="2" filter="url(#softShadow)"/><ellipse cx="22" cy="85" rx="5" ry="13" fill="#F5DEB3" transform="rotate(-8 22 85)"/><ellipse cx="78" cy="85" rx="5" ry="13" fill="#F5DEB3" transform="rotate(8 78 85)"/><rect x="47" y="60" width="6" height="7" fill="#F5DEB3"/><circle cx="50" cy="42" r="22" fill="#F5DEB3" filter="url(#softShadow)"/><path d="M40,34 Q44,32 48,34" fill="none" stroke="#2F1B14" stroke-width="1.5" stroke-linecap="round"/><path d="M52,34 Q56,32 60,34" fill="none" stroke="#2F1B14" stroke-width="1.5" stroke-linecap="round"/><ellipse cx="43" cy="41" rx="4" ry="5" fill="#FFF"/><ellipse cx="57" cy="41" rx="4" ry="5" fill="#FFF"/><circle cx="44" cy="42" r="3" fill="#4682B4"/><circle cx="56" cy="42" r="3" fill="#4682B4"/><circle cx="44.5" cy="41" r="1" fill="#FFF"/><circle cx="55.5" cy="41" r="1" fill="#FFF"/><path d="M45,55 Q50,59 55,55" fill="none" stroke="#8B4513" stroke-width="1.5" stroke-linecap="round"/><text x="50" y="132" text-anchor="middle" font-size="9" font-weight="bold" fill="#191970">布蘭登 Brandon</text><text x="50" y="138" text-anchor="middle" font-size="7" fill="#666">35歲</text></svg>