<svg xmlns="http://www.w3.org/2000/svg" viewBox="0 0 100 140" width="200" height="280"><defs><linearGradient id="bgGrad" x1="0%" y1="0%" x2="100%" y2="100%"><stop offset="0%" style="stop-color:#DC143C"/><stop offset="100%" style="stop-color:#8B0000"/></linearGradient><filter id="softShadow"><feGaussianBlur in="SourceAlpha" stdDeviation="2"/><feOffset dx="1" dy="1"/><feComponentTransfer><feFuncA type="linear" slope="0.3"/></feComponentTransfer><feMerge><feMergeNode/><feMergeNode in="SourceGraphic"/></feMerge></filter></defs><rect x="5" y="5" width="90" height="130" rx="10" fill="url(#bgGrad)" stroke="#8B0000" stroke-width="3"/><rect x="10" y="10" width="80" height="120" rx="8" fill="#FFF8DC"/><path d="M30,20 Q50,12 70,20 L70,42 Q50,32 30,42 Z" fill="#4A2511"/><path d="M26,28 L30,16 L70,16 L74,28" fill="#4A2511"/><path d="M32,65 L68,65 L72,110 L28,110 Z" fill="#DC143C" stroke="#8B0000" stroke-width="2" filter="url(#softShadow)"/><ellipse cx="22" cy="85" rx="4" ry="12" fill="#FFE4E1" transform="rotate(-6 22 85)"/><ellipse cx="78" cy="85" rx="4" ry="12" fill="#FFE4E1" transform="rotate(6 78 85)"/><rect x="47" y="60" width="6" height="7" fill="#FFE4E1"/><circle cx="50" cy="42" r="22" fill="#FFE4E1" filter="url(#softShadow)"/><path d="M44,32 Q50,35 56,32" fill="none" stroke="#4A2511" stroke-width="2"/><path d="M40,34 Q44,32 48,34" fill="none" stroke="#4A2511" stroke-width="1.5" stroke-linecap="round"/><path d="M52,34 Q56,32 60,34" fill="none" stroke="#4A2511" stroke-width="1.5" stroke-linecap="round"/><ellipse cx="43" cy="41" rx="4" ry="5" fill="#FFF"/><ellipse cx="57" cy="41" rx="4" ry="5" fill="#FFF"/><circle cx="44" cy="42" r="3" fill="#8B4513"/><circle cx="56" cy="42" r="3" fill="#8B4513"/><circle cx="44.5" cy="41" r="1" fill="#FFF"/><circle cx="55.5" cy="41" r="1" fill="#FFF"/><ellipse cx="37" cy="50" rx="3.5" ry="2" fill="#DDA0DD" opacity="0.5"/><ellipse cx="63" cy="50" rx="3.5" ry="2" fill="#DDA0DD" opacity="0.5"/><path d="M45,55 Q50,59 55,55" fill="none" stroke="#CD853F" stroke-width="1.5" stroke-linecap="round"/><text x="50" y="132" text-anchor="middle" font-size="8" font-weight="bold" fill="#8B0000">薇薇安 Vivian</text><text x="50" y="138" text-anchor="middle" font-size="7" fill="#666">42歲</text></svg>