<svg xmlns="http://www.w3.org/2000/svg" viewBox="0 0 100 100" width="200" height="200"><defs><linearGradient id="bgGrad" x1="0%" y1="0%" x2="100%" y2="100%"><stop offset="0%" style="stop-color:#4B0082"/><stop offset="100%" style="stop-color:#1A0033"/></linearGradient><radialGradient id="faceGrad" cx="50%" cy="50%" r="50%"><stop offset="0%" style="stop-color:#FFE4E1"/><stop offset="100%" style="stop-color:#FFC0CB"/></radialGradient><filter id="softShadow"><feGaussianBlur in="SourceAlpha" stdDeviation="2"/><feOffset dx="1" dy="1"/><feComponentTransfer><feFuncA type="linear" slope="0.3"/></feComponentTransfer><feMerge><feMergeNode/><feMergeNode in="SourceGraphic"/></feMerge></filter></defs><circle cx="50" cy="50" r="48" fill="url(#bgGrad)" stroke="#1A0033" stroke-width="2"/><path d="M20,28 Q50,8 80,28 L85,52 Q50,42 15,52 Z" fill="#1A1A2E"/><circle cx="50" cy="14" r="6" fill="#FFD700"/><circle cx="50" cy="52" r="26" fill="url(#faceGrad)" filter="url(#softShadow)"/><path d="M45,32 Q50,36 55,32" fill="none" stroke="#1A1A2E" stroke-width="2"/><path d="M38,38 Q42,36 46,38" fill="none" stroke="#1A1A2E" stroke-width="1.5" stroke-linecap="round"/><path d="M54,38 Q58,36 62,38" fill="none" stroke="#1A1A2E" stroke-width="1.5" stroke-linecap="round"/><ellipse cx="42" cy="46" rx="4.5" ry="5.5" fill="#FFF"/><ellipse cx="58" cy="46" rx="4.5" ry="5.5" fill="#FFF"/><circle cx="43" cy="47" r="3" fill="#4B0082"/><circle cx="57" cy="47" r="3" fill="#4B0082"/><circle cx="44" cy="46" r="1.2" fill="#FFF"/><circle cx="56" cy="46" r="1.2" fill="#FFF"/><ellipse cx="35" cy="56" rx="4" ry="2.5" fill="#DDA0DD" opacity="0.5"/><ellipse cx="65" cy="56" rx="4" ry="2.5" fill="#DDA0DD" opacity="0.5"/><path d="M45,64 Q50,67 55,64" fill="none" stroke="#8B7355" stroke-width="2" stroke-linecap="round"/></svg>