<svg xmlns="http://www.w3.org/2000/svg" viewBox="0 0 100 100" width="200" height="200"><defs><linearGradient id="bgGrad" x1="0%" y1="0%" x2="100%" y2="100%"><stop offset="0%" style="stop-color:#8B4513"/><stop offset="100%" style="stop-color:#4A2503"/></linearGradient><radialGradient id="faceGrad" cx="50%" cy="50%" r="50%"><stop offset="0%" style="stop-color:#F5DEB3"/><stop offset="100%" style="stop-color:#DEB887"/></radialGradient><filter id="softShadow"><feGaussianBlur in="SourceAlpha" stdDeviation="2"/><feOffset dx="1" dy="1"/><feComponentTransfer><feFuncA type="linear" slope="0.3"/></feComponentTransfer><feMerge><feMergeNode/><feMergeNode in="SourceGraphic"/></feMerge></filter></defs><circle cx="50" cy="50" r="48" fill="url(#bgGrad)" stroke="#4A2503" stroke-width="2"/><rect x="26" y="16" width="48" height="22" rx="8" fill="#C0C0C0"/><path d="M22,32 L26,16 L74,16 L78,32" fill="#C0C0C0"/><circle cx="50" cy="52" r="26" fill="url(#faceGrad)" filter="url(#softShadow)"/><line x1="36" y1="42" x2="44" y2="42" stroke="#666" stroke-width="1"/><line x1="56" y1="42" x2="64" y2="42" stroke="#666" stroke-width="1"/><ellipse cx="42" cy="48" rx="4.5" ry="5.5" fill="#FFF"/><ellipse cx="58" cy="48" rx="4.5" ry="5.5" fill="#FFF"/><circle cx="43" cy="49" r="3" fill="#4682B4"/><circle cx="57" cy="49" r="3" fill="#4682B4"/><circle cx="44" cy="48" r="1.2" fill="#FFF"/><circle cx="56" cy="48" r="1.2" fill="#FFF"/><path d="M45,64 Q50,67 55,64" fill="none" stroke="#8B4513" stroke-width="2" stroke-linecap="round"/></svg>