<svg xmlns="http://www.w3.org/2000/svg" viewBox="0 0 100 100" width="200" height="200"><defs><linearGradient id="bgGrad" x1="0%" y1="0%" x2="100%" y2="100%"><stop offset="0%" style="stop-color:#4682B4"/><stop offset="100%" style="stop-color:#191970"/></linearGradient><radialGradient id="faceGrad" cx="50%" cy="50%" r="50%"><stop offset="0%" style="stop-color:#F5DEB3"/><stop offset="100%" style="stop-color:#DEB887"/></radialGradient><filter id="softShadow"><feGaussianBlur in="SourceAlpha" stdDeviation="2"/><feOffset dx="1" dy="1"/><feComponentTransfer><feFuncA type="linear" slope="0.3"/></feComponentTransfer><feMerge><feMergeNode/><feMergeNode in="SourceGraphic"/></feMerge></filter></defs><circle cx="50" cy="50" r="48" fill="url(#bgGrad)" stroke="#191970" stroke-width="2"/><rect x="25" y="22" width="50" height="18" rx="5" fill="#2F1B14"/><path d="M20,35 L25,20 L75,20 L80,35" fill="#2F1B14"/><circle cx="50" cy="50" r="26" fill="url(#faceGrad)" filter="url(#softShadow)"/><path d="M38,38 Q42,36 46,38" fill="none" stroke="#2F1B14" stroke-width="1.5" stroke-linecap="round"/><path d="M54,38 Q58,36 62,38" fill="none" stroke="#2F1B14" stroke-width="1.5" stroke-linecap="round"/><ellipse cx="42" cy="46" rx="5" ry="6" fill="#FFF"/><ellipse cx="58" cy="46" rx="5" ry="6" fill="#FFF"/><circle cx="43" cy="47" r="3.5" fill="#4682B4"/><circle cx="57" cy="47" r="3.5" fill="#4682B4"/><circle cx="44" cy="46" r="1.5" fill="#FFF"/><circle cx="56" cy="46" r="1.5" fill="#FFF"/><path d="M45,60 Q50,64 55,60" fill="none" stroke="#8B4513" stroke-width="2" stroke-linecap="round"/></svg>