<svg xmlns="http://www.w3.org/2000/svg" viewBox="0 0 100 100" width="200" height="200"><defs><linearGradient id="bgGrad" x1="0%" y1="0%" x2="100%" y2="100%"><stop offset="0%" style="stop-color:#9370DB"/><stop offset="100%" style="stop-color:#4B0082"/></linearGradient><radialGradient id="faceGrad" cx="50%" cy="50%" r="50%"><stop offset="0%" style="stop-color:#FFE4E1"/><stop offset="100%" style="stop-color:#FFC0CB"/></radialGradient><filter id="softShadow"><feGaussianBlur in="SourceAlpha" stdDeviation="2"/><feOffset dx="1" dy="1"/><feComponentTransfer><feFuncA type="linear" slope="0.3"/></feComponentTransfer><feMerge><feMergeNode/><feMergeNode in="SourceGraphic"/></feMerge></filter></defs><circle cx="50" cy="50" r="48" fill="url(#bgGrad)" stroke="#4B0082" stroke-width="2"/><ellipse cx="20" cy="48" rx="9" ry="22" fill="#2F1B14" filter="url(#softShadow)"/><ellipse cx="80" cy="48" rx="9" ry="22" fill="#2F1B14" filter="url(#softShadow)"/><circle cx="50" cy="50" r="26" fill="url(#faceGrad)" filter="url(#softShadow)"/><path d="M24,33 Q40,23 50,28 Q60,23 76,33 Q70,19 50,17 Q30,19 24,33" fill="#2F1B14"/><path d="M38,38 Q42,36 46,38" fill="none" stroke="#2F1B14" stroke-width="1.5" stroke-linecap="round"/><path d="M54,38 Q58,36 62,38" fill="none" stroke="#2F1B14" stroke-width="1.5" stroke-linecap="round"/><ellipse cx="42" cy="46" rx="5" ry="6" fill="#FFF"/><ellipse cx="58" cy="46" rx="5" ry="6" fill="#FFF"/><circle cx="43" cy="47" r="3.5" fill="#228B22"/><circle cx="57" cy="47" r="3.5" fill="#228B22"/><circle cx="44" cy="46" r="1.5" fill="#FFF"/><circle cx="56" cy="46" r="1.5" fill="#FFF"/><path d="M37,44 L35,42 M39,42 L38,40 M47,42 L48,40" stroke="#2F1B14" stroke-width="1"/><path d="M63,44 L65,42 M61,42 L62,40 M53,42 L52,40" stroke="#2F1B14" stroke-width="1"/><ellipse cx="35" cy="56" rx="4" ry="2.5" fill="#DDA0DD" opacity="0.5"/><ellipse cx="65" cy="56" rx="4" ry="2.5" fill="#DDA0DD" opacity="0.5"/><path d="M50,53 L49,57 L51,57" fill="none" stroke="#FFB6C1" stroke-width="1.5" stroke-linecap="round"/><path d="M45,62 Q50,66 55,62" fill="none" stroke="#CD853F" stroke-width="2" stroke-linecap="round"/><circle cx="19" cy="53" r="1.8" fill="#FFD700"/><circle cx="81" cy="53" r="1.8" fill="#FFD700"/></svg>