<svg xmlns="http://www.w3.org/2000/svg" viewBox="0 0 100 100" width="400" height="400">
  <defs>
    <linearGradient id="floorGrad" x1="0%" y1="0%" x2="100%" y2="100%"><stop offset="0%" style="stop-color:#7B8B6B"/><stop offset="100%" style="stop-color:#4A5A3A"/></linearGradient>
    <pattern id="tilePattern" x="0" y="0" width="25" height="25" patternUnits="userSpaceOnUse"><rect width="25" height="25" fill="url(#floorGrad)"/><line x1="0" y1="0" x2="25" y2="25" stroke="#8B9B7B" stroke-width="0.5" opacity="0.3"/><line x1="25" y1="0" x2="0" y2="25" stroke="#8B9B7B" stroke-width="0.5" opacity="0.3"/></pattern>
    <linearGradient id="doorWood" x1="0%" y1="0%" x2="100%" y2="0%"><stop offset="0%" style="stop-color:#5A3A1A"/><stop offset="50%" style="stop-color:#7B5B3B"/><stop offset="100%" style="stop-color:#4A2A0A"/></linearGradient>
    <linearGradient id="goldTrim" x1="0%" y1="0%" x2="100%" y2="100%"><stop offset="0%" style="stop-color:#FFD700"/><stop offset="100%" style="stop-color:#B8860B"/></linearGradient>
    <radialGradient id="sunGlow" cx="50%" cy="50%" r="50%"><stop offset="0%" style="stop-color:#FFF8DC;stop-opacity:0.8"/><stop offset="100%" style="stop-color:#FFD700;stop-opacity:0"/></radialGradient>
    <filter id="softShadow" x="-50%" y="-50%" width="200%" height="200%"><feGaussianBlur in="SourceAlpha" stdDeviation="2"/><feOffset dx="2" dy="2"/><feComponentTransfer><feFuncA type="linear" slope="0.3"/></feComponentTransfer><feMerge><feMergeNode/><feMergeNode in="SourceGraphic"/></feMerge></filter>
  </defs>
  <rect x="8" y="8" width="84" height="84" fill="url(#tilePattern)" stroke="#3A4A2A" stroke-width="2"/>
  <g filter="url(#softShadow)">
    <rect x="36" y="-4" width="28" height="16" fill="#1A0A00"/>
    <rect x="38" y="-2" width="24" height="14" fill="url(#doorWood)"/>
    <rect x="38" y="-2" width="24" height="14" fill="none" stroke="url(#goldTrim)" stroke-width="1"/>
    <circle cx="55" cy="6" r="2" fill="url(#goldTrim)"/>
  </g>
  <g filter="url(#softShadow)">
    <rect x="88" y="36" width="16" height="28" fill="#1A0A00"/>
    <rect x="90" y="38" width="12" height="24" fill="url(#doorWood)"/>
    <rect x="90" y="38" width="12" height="24" fill="none" stroke="url(#goldTrim)" stroke-width="1"/>
    <circle cx="96" cy="55" r="2" fill="url(#goldTrim)"/>
  </g>
  <rect x="20" y="20" width="60" height="60" fill="#9BAB8B" opacity="0.3" rx="2" filter="url(#softShadow)"/>
  <line x1="20" y1="20" x2="80" y2="80" stroke="#FFF" opacity="0.4" stroke-width="2"/>
  <line x1="80" y1="20" x2="20" y2="80" stroke="#FFF" opacity="0.4" stroke-width="2"/>
  <circle cx="50" cy="50" r="15" fill="url(#sunGlow)" opacity="0.4" filter="url(#softShadow)"/>
</svg>
