<svg xmlns="http://www.w3.org/2000/svg" viewBox="0 0 100 100" width="400" height="400">
  <defs>
    <linearGradient id="floorGrad" x1="0%" y1="0%" x2="100%" y2="100%"><stop offset="0%" style="stop-color:#5A4A5B"/><stop offset="100%" style="stop-color:#2A1A2B"/></linearGradient>
    <pattern id="carpetPattern" x="0" y="0" width="20" height="20" patternUnits="userSpaceOnUse"><rect width="20" height="20" fill="url(#floorGrad)"/><rect x="5" y="5" width="10" height="10" fill="#3A2A3B" opacity="0.5"/></pattern>
    <linearGradient id="doorWood" x1="0%" y1="0%" x2="100%" y2="0%"><stop offset="0%" style="stop-color:#5A3A1A"/><stop offset="50%" style="stop-color:#7B5B3B"/><stop offset="100%" style="stop-color:#4A2A0A"/></linearGradient>
    <linearGradient id="goldTrim" x1="0%" y1="0%" x2="100%" y2="100%"><stop offset="0%" style="stop-color:#FFD700"/><stop offset="100%" style="stop-color:#B8860B"/></linearGradient>
    <radialGradient id="feltGrad" cx="50%" cy="50%" r="50%"><stop offset="0%" style="stop-color:#2F4F4F"/><stop offset="100%" style="stop-color:#0F2F2F"/></radialGradient>
    <filter id="softShadow" x="-50%" y="-50%" width="200%" height="200%"><feGaussianBlur in="SourceAlpha" stdDeviation="2"/><feOffset dx="2" dy="2"/><feComponentTransfer><feFuncA type="linear" slope="0.3"/></feComponentTransfer><feMerge><feMergeNode/><feMergeNode in="SourceGraphic"/></feMerge></filter>
  </defs>
  <rect x="8" y="8" width="84" height="84" fill="url(#carpetPattern)" stroke="#1A0A1B" stroke-width="2"/>
  <g filter="url(#softShadow)">
    <rect x="36" y="-4" width="28" height="16" fill="#1A0A00"/>
    <rect x="38" y="-2" width="24" height="14" fill="url(#doorWood)"/>
    <rect x="38" y="-2" width="24" height="14" fill="none" stroke="url(#goldTrim)" stroke-width="1"/>
    <circle cx="55" cy="6" r="2" fill="url(#goldTrim)"/>
  </g>
  <g filter="url(#softShadow)">
    <rect x="36" y="88" width="28" height="16" fill="#1A0A00"/>
    <rect x="38" y="90" width="24" height="14" fill="url(#doorWood)"/>
    <rect x="38" y="90" width="24" height="14" fill="none" stroke="url(#goldTrim)" stroke-width="1"/>
    <circle cx="55" cy="94" r="2" fill="url(#goldTrim)"/>
  </g>
  <g filter="url(#softShadow)">
    <rect x="88" y="36" width="16" height="28" fill="#1A0A00"/>
    <rect x="90" y="38" width="12" height="24" fill="url(#doorWood)"/>
    <rect x="90" y="38" width="12" height="24" fill="none" stroke="url(#goldTrim)" stroke-width="1"/>
    <circle cx="96" cy="55" r="2" fill="url(#goldTrim)"/>
  </g>
  <ellipse cx="35" cy="50" rx="15" ry="10" fill="url(#feltGrad)" filter="url(#softShadow)"/>
  <circle cx="35" cy="50" r="3" fill="#FFF"/>
  <rect x="60" y="30" width="20" height="40" fill="#4A3728" filter="url(#softShadow)"/>
</svg>
