<svg xmlns="http://www.w3.org/2000/svg" viewBox="0 0 100 100" width="400" height="400">
  <defs>
    <linearGradient id="floorGrad" x1="0%" y1="0%" x2="100%" y2="100%"><stop offset="0%" style="stop-color:#7B6B5B"/><stop offset="100%" style="stop-color:#4A3A2A"/></linearGradient>
    <pattern id="woodPattern" x="0" y="0" width="10" height="40" patternUnits="userSpaceOnUse"><rect width="10" height="40" fill="url(#floorGrad)"/><line x1="0" y1="0" x2="0" y2="40" stroke="#3A2A1A" stroke-width="0.3"/></pattern>
    <linearGradient id="doorWood" x1="0%" y1="0%" x2="100%" y2="0%"><stop offset="0%" style="stop-color:#5A3A1A"/><stop offset="50%" style="stop-color:#7B5B3B"/><stop offset="100%" style="stop-color:#4A2A0A"/></linearGradient>
    <linearGradient id="goldTrim" x1="0%" y1="0%" x2="100%" y2="100%"><stop offset="0%" style="stop-color:#FFD700"/><stop offset="100%" style="stop-color:#B8860B"/></linearGradient>
    <filter id="softShadow" x="-50%" y="-50%" width="200%" height="200%"><feGaussianBlur in="SourceAlpha" stdDeviation="2"/><feOffset dx="2" dy="2"/><feComponentTransfer><feFuncA type="linear" slope="0.3"/></feComponentTransfer><feMerge><feMergeNode/><feMergeNode in="SourceGraphic"/></feMerge></filter>
  </defs>
  <rect x="8" y="8" width="84" height="84" fill="url(#woodPattern)" stroke="#2A1A0A" stroke-width="2"/>
  <g filter="url(#softShadow)">
    <rect x="36" y="88" width="28" height="16" fill="#1A0A00"/>
    <rect x="38" y="90" width="24" height="14" fill="url(#doorWood)"/>
    <rect x="38" y="90" width="24" height="14" fill="none" stroke="url(#goldTrim)" stroke-width="1"/>
    <circle cx="55" cy="94" r="2" fill="url(#goldTrim)"/>
  </g>
  <g filter="url(#softShadow)">
    <rect x="88" y="36" width="16" height="28" fill="#1A0A00"/>
    <rect x="90" y="38" width="12" height="24" fill="url(#doorWood)"/>
    <rect x="90" y="38" width="12" height="24" fill="none" stroke="url(#goldTrim)" stroke-width="1"/>
    <circle cx="96" cy="55" r="2" fill="url(#goldTrim)"/>
  </g>
  <rect x="20" y="20" width="60" height="50" fill="#E8E8E8" filter="url(#softShadow)"/>
  <circle cx="35" cy="35" r="8" fill="#FF6B6B" opacity="0.6" filter="url(#softShadow)"/>
  <rect x="50" y="25" width="20" height="30" fill="#4A90E2" opacity="0.6" filter="url(#softShadow)"/>
  <path d="M20,70 Q50,50 80,70" fill="none" stroke="#228B22" stroke-width="3"/>
</svg>
