<svg xmlns="http://www.w3.org/2000/svg" viewBox="0 0 100 100" width="400" height="400">
  <defs>
    <linearGradient id="floorGrad" x1="0%" y1="0%" x2="100%" y2="100%"><stop offset="0%" style="stop-color:#4A6A4A"/><stop offset="100%" style="stop-color:#1A3A1A"/></linearGradient>
    <pattern id="grassPattern" x="0" y="0" width="12" height="12" patternUnits="userSpaceOnUse"><rect width="12" height="12" fill="url(#floorGrad)"/><circle cx="3" cy="3" r="1.5" fill="#2A4A2A" opacity="0.4"/><circle cx="9" cy="9" r="2" fill="#3A5A3A" opacity="0.3"/></pattern>
    <linearGradient id="doorWood" x1="0%" y1="0%" x2="100%" y2="0%"><stop offset="0%" style="stop-color:#5A3A1A"/><stop offset="50%" style="stop-color:#7B5B3B"/><stop offset="100%" style="stop-color:#4A2A0A"/></linearGradient>
    <linearGradient id="goldTrim" x1="0%" y1="0%" x2="100%" y2="100%"><stop offset="0%" style="stop-color:#FFD700"/><stop offset="100%" style="stop-color:#B8860B"/></linearGradient>
    <filter id="softShadow" x="-50%" y="-50%" width="200%" height="200%"><feGaussianBlur in="SourceAlpha" stdDeviation="2"/><feOffset dx="2" dy="2"/><feComponentTransfer><feFuncA type="linear" slope="0.3"/></feComponentTransfer><feMerge><feMergeNode/><feMergeNode in="SourceGraphic"/></feMerge></filter>
  </defs>
  <rect x="8" y="8" width="84" height="84" fill="url(#grassPattern)" stroke="#0A2A0A" stroke-width="2"/>
  <g filter="url(#softShadow)">
    <rect x="36" y="-4" width="28" height="16" fill="#1A0A00"/>
    <rect x="38" y="-2" width="24" height="14" fill="url(#doorWood)"/>
    <rect x="38" y="-2" width="24" height="14" fill="none" stroke="url(#goldTrim)" stroke-width="1"/>
    <circle cx="55" cy="6" r="2" fill="url(#goldTrim)"/>
  </g>
  <g filter="url(#softShadow)">
    <rect x="88" y="36" width="16" height="28" fill="#1A0A00"/>
    <rect x="90" y="38" width="12" height="24" fill="url(#doorWood)"/>
    <rect x="90" y="38" width="12" height="24" fill="none" stroke="url(#goldTrim)" stroke-width="1"/>
    <circle cx="96" cy="55" r="2" fill="url(#goldTrim)"/>
  </g>
  <g filter="url(#softShadow)">
    <rect x="-4" y="36" width="16" height="28" fill="#1A0A00"/>
    <rect x="-2" y="38" width="12" height="24" fill="url(#doorWood)"/>
    <rect x="-2" y="38" width="12" height="24" fill="none" stroke="url(#goldTrim)" stroke-width="1"/>
    <circle cx="4" cy="55" r="2" fill="url(#goldTrim)"/>
  </g>
  <circle cx="25" cy="25" r="15" fill="#0F3F0F" filter="url(#softShadow)"/>
  <circle cx="75" cy="30" r="12" fill="#1F4F1F" filter="url(#softShadow)"/>
  <circle cx="22" cy="72" r="14" fill="#0F2F0F" filter="url(#softShadow)"/>
  <circle cx="78" cy="70" r="13" fill="#1F4F1F" filter="url(#softShadow)"/>
  <ellipse cx="50" cy="50" rx="8" ry="6" fill="#6A6A6A" filter="url(#softShadow)"/>
  <rect x="46" y="35" width="8" height="18" fill="#7A7A7A"/>
</svg>
