<svg xmlns="http://www.w3.org/2000/svg" viewBox="0 0 100 100" width="400" height="400">
  <defs>
    <linearGradient id="floorGrad" x1="0%" y1="0%" x2="100%" y2="100%"><stop offset="0%" style="stop-color:#7B7B8B"/><stop offset="50%" style="stop-color:#5A5A6A"/><stop offset="100%" style="stop-color:#3A3A4A"/></linearGradient>
    <pattern id="carpetPattern" x="0" y="0" width="12" height="12" patternUnits="userSpaceOnUse"><rect width="12" height="12" fill="url(#floorGrad)"/><circle cx="3" cy="3" r="1.5" fill="#FFE4E1" opacity="0.3"/><circle cx="9" cy="9" r="2" fill="#E6E6FA" opacity="0.3"/></pattern>
    <linearGradient id="doorWood" x1="0%" y1="0%" x2="100%" y2="0%"><stop offset="0%" style="stop-color:#5A3A1A"/><stop offset="50%" style="stop-color:#7B5B3B"/><stop offset="100%" style="stop-color:#4A2A0A"/></linearGradient>
    <linearGradient id="goldTrim" x1="0%" y1="0%" x2="100%" y2="100%"><stop offset="0%" style="stop-color:#FFD700"/><stop offset="50%" style="stop-color:#B8860B"/><stop offset="100%" style="stop-color:#D4AF37"/></linearGradient>
    <linearGradient id="cribGrad" x1="0%" y1="0%" x2="0%" y2="100%"><stop offset="0%" style="stop-color:#FFF8DC"/><stop offset="100%" style="stop-color:#F0E6D2"/></linearGradient>
    <radialGradient id="mobileGlow" cx="50%" cy="50%" r="50%"><stop offset="0%" style="stop-color:#FFB6C1;stop-opacity:0.6"/><stop offset="100%" style="stop-color:#FFB6C1;stop-opacity:0"/></radialGradient>
    <filter id="softShadow" x="-50%" y="-50%" width="200%" height="200%"><feGaussianBlur in="SourceAlpha" stdDeviation="3" result="blur"/><feOffset in="blur" dx="2" dy="2" result="offsetBlur"/><feComponentTransfer><feFuncA type="linear" slope="0.4"/></feComponentTransfer><feMerge><feMergeNode in="offsetBlur"/><feMergeNode in="SourceGraphic"/></feMerge></filter>
  </defs>
  <rect x="8" y="8" width="84" height="84" fill="url(#carpetPattern)" stroke="#1A1A2A" stroke-width="2"/>
  <rect x="10" y="10" width="80" height="80" fill="none" stroke="#3A3A4A" stroke-width="0.5" opacity="0.3"/>
  <g filter="url(#softShadow)">
    <rect x="36" y="88" width="28" height="16" fill="#1A0A00"/>
    <rect x="38" y="90" width="24" height="14" fill="url(#doorWood)"/>
    <line x1="50" y1="90" x2="50" y2="104" stroke="#2A1A0A" stroke-width="0.5"/>
    <line x1="38" y1="97" x2="62" y2="97" stroke="#2A1A0A" stroke-width="0.5"/>
    <rect x="38" y="90" width="24" height="14" fill="none" stroke="url(#goldTrim)" stroke-width="1.5"/>
    <circle cx="55" cy="94" r="2" fill="url(#goldTrim)"/>
    <circle cx="55" cy="94" r="1" fill="#B8860B"/>
  </g>
  <g filter="url(#softShadow)">
    <rect x="-4" y="36" width="16" height="28" fill="#1A0A00"/>
    <rect x="-2" y="38" width="12" height="24" fill="url(#doorWood)"/>
    <line x1="-2" y1="50" x2="10" y2="50" stroke="#2A1A0A" stroke-width="0.5"/>
    <line x1="4" y1="38" x2="4" y2="62" stroke="#2A1A0A" stroke-width="0.5"/>
    <rect x="-2" y="38" width="12" height="24" fill="none" stroke="url(#goldTrim)" stroke-width="1.5"/>
    <circle cx="4" cy="55" r="2" fill="url(#goldTrim)"/>
    <circle cx="4" cy="55" r="1" fill="#B8860B"/>
  </g>
  <ellipse cx="50" cy="60" rx="25" ry="15" fill="url(#cribGrad)" stroke="#D4C4B0" filter="url(#softShadow)"/>
  <rect x="30" y="50" width="40" height="5" fill="#FFF8DC" stroke="#D4C4B0"/>
  <rect x="32" y="45" width="36" height="8" fill="#FFF8DC" stroke="#D4C4B0"/>
  <circle cx="50" cy="42" r="10" fill="#FFE4E1" filter="url(#softShadow)"/>
  <circle cx="46" cy="40" r="1.5" fill="#333"/>
  <circle cx="54" cy="40" r="1.5" fill="#333"/>
  <path d="M46,46 Q50,50 54,46" fill="none" stroke="#333" stroke-width="1"/>
  <circle cx="30" cy="25" r="4" fill="#FFB6C1" opacity="0.6" filter="url(#softShadow)"/>
  <circle cx="70" cy="25" r="4" fill="#E6E6FA" opacity="0.6" filter="url(#softShadow)"/>
  <circle cx="50" cy="20" r="4" fill="#98FB98" opacity="0.6" filter="url(#softShadow)"/>
  <circle cx="12" cy="12" r="2" fill="#3A3A4A" opacity="0.4"/>
  <circle cx="88" cy="12" r="2" fill="#3A3A4A" opacity="0.4"/>
  <circle cx="12" cy="88" r="2" fill="#3A3A4A" opacity="0.4"/>
  <circle cx="88" cy="88" r="2" fill="#3A3A4A" opacity="0.4"/>
</svg>
