<svg xmlns="http://www.w3.org/2000/svg" viewBox="0 0 100 100" width="400" height="400">
  <defs>
    <linearGradient id="floorGrad" x1="0%" y1="0%" x2="100%" y2="100%"><stop offset="0%" style="stop-color:#3A3A3A"/><stop offset="50%" style="stop-color:#1A1A1A"/><stop offset="100%" style="stop-color:#000"/></linearGradient>
    <pattern id="stonePattern" x="0" y="0" width="20" height="20" patternUnits="userSpaceOnUse"><rect width="20" height="20" fill="url(#floorGrad)"/><line x1="0" y1="0" x2="20" y2="20" stroke="#2A2A2A" stroke-width="0.5" opacity="0.4"/><line x1="20" y1="0" x2="0" y2="20" stroke="#2A2A2A" stroke-width="0.5" opacity="0.4"/></pattern>
    <linearGradient id="doorWood" x1="0%" y1="0%" x2="100%" y2="0%"><stop offset="0%" style="stop-color:#5A3A1A"/><stop offset="50%" style="stop-color:#7B5B3B"/><stop offset="100%" style="stop-color:#4A2A0A"/></linearGradient>
    <linearGradient id="goldTrim" x1="0%" y1="0%" x2="100%" y2="100%"><stop offset="0%" style="stop-color:#FFD700"/><stop offset="50%" style="stop-color:#B8860B"/><stop offset="100%" style="stop-color:#D4AF37"/></linearGradient>
    <linearGradient id="wineBottle" x1="0%" y1="0%" x2="0%" y2="100%"><stop offset="0%" style="stop-color:#4A0A0A"/><stop offset="100%" style="stop-color:#2A0000"/></linearGradient>
    <filter id="softShadow" x="-50%" y="-50%" width="200%" height="200%"><feGaussianBlur in="SourceAlpha" stdDeviation="3" result="blur"/><feOffset in="blur" dx="2" dy="2" result="offsetBlur"/><feComponentTransfer><feFuncA type="linear" slope="0.4"/></feComponentTransfer><feMerge><feMergeNode in="offsetBlur"/><feMergeNode in="SourceGraphic"/></feMerge></filter>
  </defs>
  <rect x="8" y="8" width="84" height="84" fill="url(#stonePattern)" stroke="#000" stroke-width="2"/>
  <rect x="10" y="10" width="80" height="80" fill="none" stroke="#1A1A1A" stroke-width="0.5" opacity="0.3"/>
  <g filter="url(#softShadow)">
    <rect x="36" y="88" width="28" height="16" fill="#1A0A00"/>
    <rect x="38" y="90" width="24" height="14" fill="url(#doorWood)"/>
    <line x1="50" y1="90" x2="50" y2="104" stroke="#2A1A0A" stroke-width="0.5"/>
    <line x1="38" y1="97" x2="62" y2="97" stroke="#2A1A0A" stroke-width="0.5"/>
    <rect x="38" y="90" width="24" height="14" fill="none" stroke="url(#goldTrim)" stroke-width="1.5"/>
    <circle cx="55" cy="94" r="2" fill="url(#goldTrim)"/>
    <circle cx="55" cy="94" r="1" fill="#B8860B"/>
  </g>
  <g filter="url(#softShadow)">
    <rect x="-4" y="36" width="16" height="28" fill="#1A0A00"/>
    <rect x="-2" y="38" width="12" height="24" fill="url(#doorWood)"/>
    <line x1="-2" y1="50" x2="10" y2="50" stroke="#2A1A0A" stroke-width="0.5"/>
    <line x1="4" y1="38" x2="4" y2="62" stroke="#2A1A0A" stroke-width="0.5"/>
    <rect x="-2" y="38" width="12" height="24" fill="none" stroke="url(#goldTrim)" stroke-width="1.5"/>
    <circle cx="4" cy="55" r="2" fill="url(#goldTrim)"/>
    <circle cx="4" cy="55" r="1" fill="#B8860B"/>
  </g>
  <rect x="15" y="20" width="20" height="25" fill="#4A3728" stroke="#2A1708" filter="url(#softShadow)"/>
  <rect x="17" y="22" width="4" height="8" fill="url(#wineBottle)"/>
  <rect x="22" y="25" width="4" height="8" fill="url(#wineBottle)"/>
  <rect x="27" y="22" width="4" height="8" fill="url(#wineBottle)"/>
  <rect x="40" y="20" width="20" height="25" fill="#4A3728" stroke="#2A1708" filter="url(#softShadow)"/>
  <rect x="42" y="22" width="4" height="8" fill="url(#wineBottle)"/>
  <rect x="47" y="25" width="4" height="8" fill="url(#wineBottle)"/>
  <rect x="52" y="22" width="4" height="8" fill="url(#wineBottle)"/>
  <rect x="65" y="20" width="20" height="25" fill="#4A3728" stroke="#2A1708" filter="url(#softShadow)"/>
  <rect x="67" y="22" width="4" height="8" fill="url(#wineBottle)"/>
  <rect x="72" y="25" width="4" height="8" fill="url(#wineBottle)"/>
  <rect x="77" y="22" width="4" height="8" fill="url(#wineBottle)"/>
  <rect x="15" y="50" width="20" height="25" fill="#4A3728" stroke="#2A1708" filter="url(#softShadow)"/>
  <rect x="40" y="50" width="20" height="25" fill="#4A3728" stroke="#2A1708" filter="url(#softShadow)"/>
  <rect x="65" y="50" width="20" height="25" fill="#4A3728" stroke="#2A1708" filter="url(#softShadow)"/>
</svg>
