<svg xmlns="http://www.w3.org/2000/svg" viewBox="0 0 100 100" width="400" height="400"><defs><linearGradient id="floorGrad" x1="0%" y1="0%" x2="100%" y2="100%"><stop offset="0%" style="stop-color:#0A0A0A"/><stop offset="100%" style="stop-color:#000"/></linearGradient><pattern id="voidPattern" x="0" y="0" width="20" height="20" patternUnits="userSpaceOnUse"><rect width="20" height="20" fill="url(#floorGrad)"/></pattern><linearGradient id="doorWood" x1="0%" y1="0%" x2="100%" y2="0%"><stop offset="0%" style="stop-color:#5A3A1A"/><stop offset="50%" style="stop-color:#7B5B3B"/><stop offset="100%" style="stop-color:#4A2A0A"/></linearGradient><linearGradient id="goldTrim" x1="0%" y1="0%" x2="100%" y2="100%"><stop offset="0%" style="stop-color:#FFD700"/><stop offset="100%" style="stop-color:#B8860B"/></linearGradient><radialGradient id="abyssGlow" cx="50%" cy="50%" r="50%"><stop offset="0%" style="stop-color:#1A0A2A;stop-opacity:0.8"/><stop offset="100%" style="stop-color:#000;stop-opacity:1"/></radialGradient><filter id="softShadow"><feGaussianBlur in="SourceAlpha" stdDeviation="3"/><feOffset dx="2" dy="2"/><feComponentTransfer><feFuncA type="linear" slope="0.4"/></feComponentTransfer><feMerge><feMergeNode/><feMergeNode in="SourceGraphic"/></feMerge></filter></defs><rect x="8" y="8" width="84" height="84" fill="url(#voidPattern)" stroke="#000" stroke-width="2"/><g filter="url(#softShadow)"><rect x="88" y="36" width="16" height="28" fill="#1A0A00"/><rect x="90" y="38" width="12" height="24" fill="url(#doorWood)"/><rect x="90" y="38" width="12" height="24" fill="none" stroke="url(#goldTrim)" stroke-width="1.5"/><circle cx="96" cy="55" r="2" fill="url(#goldTrim)"/></g><g filter="url(#softShadow)"><rect x="-4" y="36" width="16" height="28" fill="#1A0A00"/><rect x="-2" y="38" width="12" height="24" fill="url(#doorWood)"/><rect x="-2" y="38" width="12" height="24" fill="none" stroke="url(#goldTrim)" stroke-width="1.5"/><circle cx="4" cy="55" r="2" fill="url(#goldTrim)"/></g><ellipse cx="50" cy="70" rx="30" ry="15" fill="url(#abyssGlow)"/><ellipse cx="50" cy="75" rx="20" ry="10" fill="#0A0A0A"/><ellipse cx="50" cy="80" rx="10" ry="5" fill="#000"/></svg>