<svg xmlns="http://www.w3.org/2000/svg" viewBox="0 0 100 100" width="400" height="400">
  <defs>
    <linearGradient id="floorGrad" x1="0%" y1="0%" x2="100%" y2="100%">
      <stop offset="0%" style="stop-color:#5A5A5A"/>
      <stop offset="100%" style="stop-color:#3A3A3A"/>
    </linearGradient>
    <linearGradient id="doorWood" x1="0%" y1="0%" x2="100%" y2="0%">
      <stop offset="0%" style="stop-color:#4A2A0A"/>
      <stop offset="50%" style="stop-color:#6B4B2B"/>
      <stop offset="100%" style="stop-color:#3A1A00"/>
    </linearGradient>
    <linearGradient id="goldTrim" x1="0%" y1="0%" x2="100%" y2="100%">
      <stop offset="0%" style="stop-color:#FFD700"/>
      <stop offset="50%" style="stop-color:#B8860B"/>
      <stop offset="100%" style="stop-color:#FFD700"/>
    </linearGradient>
    <filter id="softShadow" x="-50%" y="-50%" width="200%" height="200%">
      <feGaussianBlur in="SourceAlpha" stdDeviation="3"/>
      <feOffset dx="3" dy="3" result="offsetblur"/>
      <feComponentTransfer><feFuncA type="linear" slope="0.5"/></feComponentTransfer>
      <feMerge><feMergeNode/><feMergeNode in="SourceGraphic"/></feMerge>
    </filter>
  </defs>
  
  <rect x="8" y="8" width="84" height="84" fill="url(#floorGrad)" stroke="#1A0A00" stroke-width="2"/>
  
  <!-- Large cave opening -->
  <ellipse cx="50" cy="55" rx="36" ry="30" fill="#1A1A1A" opacity="0.7"/>
  
  <!-- Rock formations -->
  <ellipse cx="28" cy="40" rx="12" ry="16" fill="#0A0A0A" opacity="0.6"/>
  <ellipse cx="72" cy="58" rx="10" ry="14" fill="#0A0A0A" opacity="0.55"/>
  <ellipse cx="50" cy="30" rx="10" ry="6" fill="#0A0A0A" opacity="0.65"/>
  
  <!-- Stalactites -->
  <path d="M32,22 L35,35 L38,22" fill="#2A2A2A"/>
  <path d="M50,18 L53,32 L56,18" fill="#2A2A2A"/>
  <path d="M68,20 L71,33 L74,20" fill="#2A2A2A"/>
  <path d="M42,20 L44,28 L46,20" fill="#2A2A2A"/>
  
  <!-- Stalagmites -->
  <path d="M25,78 L28,65 L31,78" fill="#2A2A2A"/>
  <path d="M55,82 L58,68 L61,82" fill="#2A2A2A"/>
  <path d="M75,76 L78,66 L81,76" fill="#2A2A2A"/>
  
  <!-- Ground texture -->
  <path d="M18,72 Q35,64 52,74 Q70,66 85,76" fill="none" stroke="#2A2A2A" stroke-width="3"/>
  
  <!-- Door North -->
  <g filter="url(#softShadow)">
    <rect x="36" y="-4" width="28" height="16" fill="#1A0A00"/>
    <rect x="38" y="-2" width="24" height="14" fill="url(#doorWood)"/>
    <line x1="50" y1="-2" x2="50" y2="12" stroke="#2A1A0A" stroke-width="0.5"/>
    <line x1="38" y1="5" x2="62" y2="5" stroke="#2A1A0A" stroke-width="0.5"/>
    <rect x="38" y="-2" width="24" height="14" fill="none" stroke="url(#goldTrim)" stroke-width="1.5"/>
    <circle cx="55" cy="6" r="2.5" fill="url(#goldTrim)"/>
    <circle cx="55" cy="6" r="1.5" fill="#B8860B"/>
  </g>
  
  <!-- Symbol E -->
  <g filter="url(#softShadow)">
    <circle cx="85" cy="15" r="8" fill="#4A9A4A" stroke="#2A7A2A" stroke-width="1"/>
    <circle cx="85" cy="15" r="6" fill="#5ABA5A" opacity="0.5"/>
    <text x="85" y="19" text-anchor="middle" font-size="11" fill="#FFF" font-weight="bold" font-family="serif">E</text>
  </g>
</svg>
