<svg xmlns="http://www.w3.org/2000/svg" viewBox="0 0 100 100" width="400" height="400">
  <defs>
    <linearGradient id="floorGrad" x1="0%" y1="0%" x2="100%" y2="100%">
      <stop offset="0%" style="stop-color:#5A5A5A"/>
      <stop offset="100%" style="stop-color:#3A3A3A"/>
    </linearGradient>
    <linearGradient id="doorWood" x1="0%" y1="0%" x2="100%" y2="0%">
      <stop offset="0%" style="stop-color:#4A2A0A"/>
      <stop offset="50%" style="stop-color:#6B4B2B"/>
      <stop offset="100%" style="stop-color:#3A1A00"/>
    </linearGradient>
    <linearGradient id="goldTrim" x1="0%" y1="0%" x2="100%" y2="100%">
      <stop offset="0%" style="stop-color:#FFD700"/>
      <stop offset="50%" style="stop-color:#B8860B"/>
      <stop offset="100%" style="stop-color:#FFD700"/>
    </linearGradient>
    <filter id="softShadow" x="-50%" y="-50%" width="200%" height="200%">
      <feGaussianBlur in="SourceAlpha" stdDeviation="3"/>
      <feOffset dx="3" dy="3" result="offsetblur"/>
      <feComponentTransfer><feFuncA type="linear" slope="0.5"/></feComponentTransfer>
      <feMerge><feMergeNode/><feMergeNode in="SourceGraphic"/></feMerge>
    </filter>
  </defs>
  
  <rect x="8" y="8" width="84" height="84" fill="url(#floorGrad)" stroke="#1A0A00" stroke-width="2"/>
  
  <!-- Prison cell bars -->
  <g filter="url(#softShadow)">
    <rect x="18" y="18" width="28" height="64" fill="#3A3A4A" stroke="#1A1A2A" stroke-width="2" rx="2"/>
    <!-- Vertical bars -->
    <line x1="25" y1="18" x2="25" y2="82" stroke="#1A1A2A" stroke-width="4"/>
    <line x1="32" y1="18" x2="32" y2="82" stroke="#1A1A2A" stroke-width="4"/>
    <line x1="39" y1="18" x2="39" y2="82" stroke="#1A1A2A" stroke-width="4"/>
    <!-- Horizontal bars -->
    <line x1="18" y1="32" x2="46" y2="32" stroke="#1A1A2A" stroke-width="2"/>
    <line x1="18" y1="50" x2="46" y2="50" stroke="#1A1A2A" stroke-width="2"/>
    <line x1="18" y1="68" x2="46" y2="68" stroke="#1A1A2A" stroke-width="2"/>
  </g>
  
  <!-- Chains -->
  <line x1="32" y1="32" x2="32" y2="48" stroke="#555" stroke-width="3"/>
  <circle cx="32" cy="52" r="4" fill="#444" stroke="#333" stroke-width="1"/>
  
  <!-- Shackles on wall -->
  <g filter="url(#softShadow)">
    <circle cx="65" cy="50" r="12" fill="#2A2A3A" stroke="#1A1A2A" stroke-width="3"/>
    <line x1="65" y1="38" x2="65" y2="62" stroke="#1A1A2A" stroke-width="3"/>
    <line x1="53" y1="50" x2="77" y2="50" stroke="#1A1A2A" stroke-width="3"/>
  </g>
  
  <!-- Skeleton remains -->
  <g opacity="0.6">
    <line x1="75" y1="72" x2="82" y2="78" stroke="#666" stroke-width="2"/>
    <line x1="78" y1="70" x2="78" y2="80" stroke="#666" stroke-width="1.5"/>
    <circle cx="79" cy="68" r="3" fill="#555"/>
    <line x1="76" y1="75" x2="72" y2="80" stroke="#666" stroke-width="1"/>
  </g>
  
  <!-- Door North -->
  <g filter="url(#softShadow)">
    <rect x="36" y="-4" width="28" height="16" fill="#1A0A00"/>
    <rect x="38" y="-2" width="24" height="14" fill="url(#doorWood)"/>
    <line x1="50" y1="-2" x2="50" y2="12" stroke="#2A1A0A" stroke-width="0.5"/>
    <line x1="38" y1="5" x2="62" y2="5" stroke="#2A1A0A" stroke-width="0.5"/>
    <rect x="38" y="-2" width="24" height="14" fill="none" stroke="url(#goldTrim)" stroke-width="1.5"/>
    <circle cx="55" cy="6" r="2.5" fill="url(#goldTrim)"/>
    <circle cx="55" cy="6" r="1.5" fill="#B8860B"/>
  </g>
</svg>
