<svg xmlns="http://www.w3.org/2000/svg" viewBox="0 0 100 100" width="400" height="400">
  <defs>
    <linearGradient id="floorGrad" x1="0%" y1="0%" x2="100%" y2="100%">
      <stop offset="0%" style="stop-color:#5A5A5A"/>
      <stop offset="100%" style="stop-color:#3A3A3A"/>
    </linearGradient>
    <linearGradient id="doorWood" x1="0%" y1="0%" x2="100%" y2="0%">
      <stop offset="0%" style="stop-color:#4A2A0A"/>
      <stop offset="50%" style="stop-color:#6B4B2B"/>
      <stop offset="100%" style="stop-color:#3A1A00"/>
    </linearGradient>
    <linearGradient id="goldTrim" x1="0%" y1="0%" x2="100%" y2="100%">
      <stop offset="0%" style="stop-color:#FFD700"/>
      <stop offset="50%" style="stop-color:#B8860B"/>
      <stop offset="100%" style="stop-color:#FFD700"/>
    </linearGradient>
    <filter id="softShadow" x="-50%" y="-50%" width="200%" height="200%">
      <feGaussianBlur in="SourceAlpha" stdDeviation="3"/>
      <feOffset dx="3" dy="3" result="offsetblur"/>
      <feComponentTransfer><feFuncA type="linear" slope="0.5"/></feComponentTransfer>
      <feMerge><feMergeNode/><feMergeNode in="SourceGraphic"/></feMerge>
    </filter>
  </defs>
  
  <rect x="8" y="8" width="84" height="84" fill="url(#floorGrad)" stroke="#1A0A00" stroke-width="2"/>
  
  <!-- Large shelves -->
  <g filter="url(#softShadow)">
    <rect x="12" y="20" width="76" height="55" fill="#5A5A4A" stroke="#3A3A3A" stroke-width="2" rx="2"/>
    <!-- Shelf levels -->
    <line x1="12" y1="32" x2="88" y2="32" stroke="#3A3A3A" stroke-width="2"/>
    <line x1="12" y1="45" x2="88" y2="45" stroke="#3A3A3A" stroke-width="2"/>
    <line x1="12" y1="58" x2="88" y2="58" stroke="#3A3A3A" stroke-width="2"/>
  </g>
  
  <!-- Food crates -->
  <g filter="url(#softShadow)">
    <rect x="15" y="22" width="20" height="18" fill="#6B5344" stroke="#4A3324" stroke-width="1" rx="2"/>
    <line x1="15" y1="31" x2="35" y2="31" stroke="#4A3324" stroke-width="1"/>
    <line x1="25" y1="22" x2="25" y2="40" stroke="#4A3324" stroke-width="1"/>
    
    <rect x="40" y="22" width="20" height="18" fill="#6B5344" stroke="#4A3324" stroke-width="1" rx="2"/>
    <line x1="40" y1="31" x2="60" y2="31" stroke="#4A3324" stroke-width="1"/>
    <line x1="50" y1="22" x2="50" y2="40" stroke="#4A3324" stroke-width="1"/>
    
    <rect x="65" y="22" width="18" height="18" fill="#6B5344" stroke="#4A3324" stroke-width="1" rx="2"/>
  </g>
  
  <!-- Barrels -->
  <g filter="url(#softShadow)">
    <rect x="55" y="48" width="24" height="18" fill="#6B5344" stroke="#4A3324" stroke-width="1" rx="3"/>
    <ellipse cx="67" cy="48" rx="12" ry="3" fill="#7B6354" stroke="#4A3324" stroke-width="1"/>
    <line x1="55" y1="55" x2="79" y2="55" stroke="#4A3324" stroke-width="0.5"/>
    <line x1="55" y1="62" x2="79" y2="62" stroke="#4A3324" stroke-width="0.5"/>
  </g>
  
  <!-- Sacks -->
  <ellipse cx="28" cy="55" rx="10" ry="7" fill="#8B7355" stroke="#6B5335" stroke-width="1"/>
  <ellipse cx="42" cy="58" rx="7" ry="5" fill="#8B7355" stroke="#6B5335" stroke-width="1"/>
  <ellipse cx="32" cy="68" rx="8" ry="5" fill="#9B8365" stroke="#7B6354" stroke-width="1"/>
  
  <!-- Door North -->
  <g filter="url(#softShadow)">
    <rect x="36" y="-4" width="28" height="16" fill="#1A0A00"/>
    <rect x="38" y="-2" width="24" height="14" fill="url(#doorWood)"/>
    <line x1="50" y1="-2" x2="50" y2="12" stroke="#2A1A0A" stroke-width="0.5"/>
    <line x1="38" y1="5" x2="62" y2="5" stroke="#2A1A0A" stroke-width="0.5"/>
    <rect x="38" y="-2" width="24" height="14" fill="none" stroke="url(#goldTrim)" stroke-width="1.5"/>
    <circle cx="55" cy="6" r="2.5" fill="url(#goldTrim)"/>
    <circle cx="55" cy="6" r="1.5" fill="#B8860B"/>
  </g>
  
  <!-- Symbol I -->
  <g filter="url(#softShadow)">
    <circle cx="85" cy="15" r="8" fill="#3D7AB8" stroke="#2D5A98" stroke-width="1"/>
    <circle cx="85" cy="15" r="6" fill="#5A9AD8" opacity="0.5"/>
    <text x="85" y="19" text-anchor="middle" font-size="11" fill="#FFF" font-weight="bold" font-family="serif">I</text>
  </g>
</svg>
