<svg xmlns="http://www.w3.org/2000/svg" viewBox="0 0 100 100" width="400" height="400">
  <defs>
    <linearGradient id="floorGrad" x1="0%" y1="0%" x2="100%" y2="100%">
      <stop offset="0%" style="stop-color:#8B7355"/>
      <stop offset="100%" style="stop-color:#5A4A3A"/>
    </linearGradient>
    <linearGradient id="doorWood" x1="0%" y1="0%" x2="100%" y2="0%">
      <stop offset="0%" style="stop-color:#6B4B2A"/>
      <stop offset="50%" style="stop-color:#8B6B4B"/>
      <stop offset="100%" style="stop-color:#4A2A0A"/>
    </linearGradient>
    <linearGradient id="goldTrim" x1="0%" y1="0%" x2="100%" y2="100%">
      <stop offset="0%" style="stop-color:#FFD700"/>
      <stop offset="50%" style="stop-color:#B8860B"/>
      <stop offset="100%" style="stop-color:#FFD700"/>
    </linearGradient>
    <filter id="softShadow" x="-50%" y="-50%" width="200%" height="200%">
      <feGaussianBlur in="SourceAlpha" stdDeviation="3"/>
      <feOffset dx="3" dy="3" result="offsetblur"/>
      <feComponentTransfer><feFuncA type="linear" slope="0.5"/></feComponentTransfer>
      <feMerge><feMergeNode/><feMergeNode in="SourceGraphic"/></feMerge>
    </filter>
  </defs>
  
  <rect x="8" y="8" width="84" height="84" fill="url(#floorGrad)" stroke="#2A1A0A" stroke-width="2"/>
  
  <!-- Piano -->
  <g filter="url(#softShadow)">
    <rect x="15" y="35" width="30" height="25" fill="#1A1A1A" stroke="#000" stroke-width="2" rx="2"/>
    <rect x="18" y="38" width="24" height="8" fill="#FFF" opacity="0.9"/>
    <line x1="18" y1="40" x2="42" y2="40" stroke="#000" stroke-width="0.5"/>
    <line x1="18" y1="42" x2="42" y2="42" stroke="#000" stroke-width="0.5"/>
    <line x1="18" y1="44" x2="42" y2="44" stroke="#000" stroke-width="0.5"/>
  </g>
  
  <!-- Music stand -->
  <g filter="url(#softShadow)">
    <line x1="65" y1="55" x2="65" y2="75" stroke="#444" stroke-width="2"/>
    <rect x="58" y="48" width="14" height="10" fill="#FFF" stroke="#CCC" stroke-width="0.5" transform="rotate(-10 65 53)"/>
  </g>
  
  <!-- Violin on wall -->
  <ellipse cx="85" cy="28" rx="4" ry="8" fill="#8B4513" stroke="#654321" stroke-width="1" transform="rotate(-15 85 28)"/>
  <line x1="85" y1="18" x2="85" y2="38" stroke="#444" stroke-width="1" transform="rotate(-15 85 28)"/>
  
  <!-- Door North -->
  <g filter="url(#softShadow)">
    <rect x="36" y="-4" width="28" height="16" fill="#1A0A00"/>
    <rect x="38" y="-2" width="24" height="14" fill="url(#doorWood)"/>
    <line x1="50" y1="-2" x2="50" y2="12" stroke="#2A1A0A" stroke-width="0.5"/>
    <line x1="38" y1="5" x2="62" y2="5" stroke="#2A1A0A" stroke-width="0.5"/>
    <rect x="38" y="-2" width="24" height="14" fill="none" stroke="url(#goldTrim)" stroke-width="1.5"/>
    <circle cx="55" cy="6" r="2.5" fill="url(#goldTrim)"/>
    <circle cx="55" cy="6" r="1.5" fill="#B8860B"/>
  </g>
  
  <!-- Symbol O -->
  <g filter="url(#softShadow)">
    <circle cx="85" cy="15" r="8" fill="#8B4DA8" stroke="#6B2D88" stroke-width="1"/>
    <circle cx="85" cy="15" r="6" fill="#AB6DC8" opacity="0.5"/>
    <text x="85" y="19" text-anchor="middle" font-size="11" fill="#FFF" font-weight="bold" font-family="serif">O</text>
  </g>
</svg>
