<svg xmlns="http://www.w3.org/2000/svg" viewBox="0 0 100 100" width="400" height="400">
  <defs>
    <linearGradient id="floorGrad" x1="0%" y1="0%" x2="100%" y2="100%">
      <stop offset="0%" style="stop-color:#5A5A5A"/>
      <stop offset="100%" style="stop-color:#3A3A3A"/>
    </linearGradient>
    <linearGradient id="doorWood" x1="0%" y1="0%" x2="100%" y2="0%">
      <stop offset="0%" style="stop-color:#4A2A0A"/>
      <stop offset="50%" style="stop-color:#6B4B2B"/>
      <stop offset="100%" style="stop-color:#3A1A00"/>
    </linearGradient>
    <linearGradient id="goldTrim" x1="0%" y1="0%" x2="100%" y2="100%">
      <stop offset="0%" style="stop-color:#FFD700"/>
      <stop offset="50%" style="stop-color:#B8860B"/>
      <stop offset="100%" style="stop-color:#FFD700"/>
    </linearGradient>
    <filter id="softShadow" x="-50%" y="-50%" width="200%" height="200%">
      <feGaussianBlur in="SourceAlpha" stdDeviation="3"/>
      <feOffset dx="3" dy="3" result="offsetblur"/>
      <feComponentTransfer><feFuncA type="linear" slope="0.5"/></feComponentTransfer>
      <feMerge><feMergeNode/><feMergeNode in="SourceGraphic"/></feMerge>
    </filter>
  </defs>
  
  <rect x="8" y="8" width="84" height="84" fill="url(#floorGrad)" stroke="#1A0A00" stroke-width="2"/>
  
  <!-- Large water surface -->
  <ellipse cx="50" cy="72" rx="44" ry="24" fill="#4682B4" opacity="0.55"/>
  <ellipse cx="50" cy="76" rx="36" ry="18" fill="#5A9AC8" opacity="0.5"/>
  <ellipse cx="50" cy="80" rx="28" ry="13" fill="#6BB8E8" opacity="0.4"/>
  
  <!-- Ripples -->
  <path d="M22,64 Q42,58 62,66 Q82,60 88,68" fill="none" stroke="#87CEEB" stroke-width="2.5" opacity="0.7"/>
  <path d="M28,78 Q48,72 68,80" fill="none" stroke="#87CEEB" stroke-width="2" opacity="0.6"/>
  <path d="M38,70 Q50,64 68,72" fill="none" stroke="#87CEEB" stroke-width="1.5" opacity="0.5"/>
  <path d="M45,84 Q55,80 65,86" fill="none" stroke="#87CEEB" stroke-width="1" opacity="0.4"/>
  
  <!-- Rock formations -->
  <ellipse cx="20" cy="58" rx="8" ry="5" fill="#4A4A4A"/>
  <ellipse cx="80" cy="62" rx="10" ry="6" fill="#4A4A4A"/>
  <ellipse cx="35" cy="55" rx="5" ry="3" fill="#3A3A3A"/>
  
  <!-- Reflection hint -->
  <ellipse cx="50" cy="75" rx="15" ry="5" fill="#87CEEB" opacity="0.15"/>
  
  <!-- Door North -->
  <g filter="url(#softShadow)">
    <rect x="36" y="-4" width="28" height="16" fill="#1A0A00"/>
    <rect x="38" y="-2" width="24" height="14" fill="url(#doorWood)"/>
    <line x1="50" y1="-2" x2="50" y2="12" stroke="#2A1A0A" stroke-width="0.5"/>
    <line x1="38" y1="5" x2="62" y2="5" stroke="#2A1A0A" stroke-width="0.5"/>
    <rect x="38" y="-2" width="24" height="14" fill="none" stroke="url(#goldTrim)" stroke-width="1.5"/>
    <circle cx="55" cy="6" r="2.5" fill="url(#goldTrim)"/>
    <circle cx="55" cy="6" r="1.5" fill="#B8860B"/>
  </g>
</svg>
