<svg xmlns="http://www.w3.org/2000/svg" viewBox="0 0 100 100" width="400" height="400">
  <defs>
    <linearGradient id="floorGrad" x1="0%" y1="0%" x2="100%" y2="100%"><stop offset="0%" style="stop-color:#3F6F4F"/><stop offset="100%" style="stop-color:#0F3F1F"/></linearGradient>
    <pattern id="grassPattern" x="0" y="0" width="15" height="15" patternUnits="userSpaceOnUse"><rect width="15" height="15" fill="url(#floorGrad)"/><circle cx="5" cy="5" r="2" fill="#1F4F1F" opacity="0.5"/><circle cx="10" cy="10" r="3" fill="#2F5F2F" opacity="0.3"/></pattern>
    <linearGradient id="doorWood" x1="0%" y1="0%" x2="100%" y2="0%"><stop offset="0%" style="stop-color:#5A3A1A"/><stop offset="50%" style="stop-color:#7B5B3B"/><stop offset="100%" style="stop-color:#4A2A0A"/></linearGradient>
    <linearGradient id="goldTrim" x1="0%" y1="0%" x2="100%" y2="100%"><stop offset="0%" style="stop-color:#FFD700"/><stop offset="100%" style="stop-color:#B8860B"/></linearGradient>
    <filter id="softShadow" x="-50%" y="-50%" width="200%" height="200%"><feGaussianBlur in="SourceAlpha" stdDeviation="2"/><feOffset dx="2" dy="2"/><feComponentTransfer><feFuncA type="linear" slope="0.3"/></feComponentTransfer><feMerge><feMergeNode/><feMergeNode in="SourceGraphic"/></feMerge></filter>
  </defs>
  <rect x="8" y="8" width="84" height="84" fill="url(#grassPattern)" stroke="#0F3F1F" stroke-width="2"/>
  <g filter="url(#softShadow)">
    <rect x="36" y="-4" width="28" height="16" fill="#1A0A00"/>
    <rect x="38" y="-2" width="24" height="14" fill="url(#doorWood)"/>
    <rect x="38" y="-2" width="24" height="14" fill="none" stroke="url(#goldTrim)" stroke-width="1"/>
    <circle cx="55" cy="6" r="2" fill="url(#goldTrim)"/>
  </g>
  <g filter="url(#softShadow)">
    <rect x="36" y="88" width="28" height="16" fill="#1A0A00"/>
    <rect x="38" y="90" width="24" height="14" fill="url(#doorWood)"/>
    <rect x="38" y="90" width="24" height="14" fill="none" stroke="url(#goldTrim)" stroke-width="1"/>
    <circle cx="55" cy="94" r="2" fill="url(#goldTrim)"/>
  </g>
  <circle cx="30" cy="60" r="15" fill="#0F3F0F" filter="url(#softShadow)"/>
  <circle cx="70" cy="35" r="12" fill="#1F4F1F" filter="url(#softShadow)"/>
  <circle cx="22" cy="72" r="14" fill="#0F2F0F" filter="url(#softShadow)"/>
  <circle cx="78" cy="70" r="13" fill="#1F4F1F" filter="url(#softShadow)"/>
  <ellipse cx="50" cy="50" rx="8" ry="6" fill="#6A6A6A" filter="url(#softShadow)"/>
  <rect x="46" y="35" width="8" height="18" fill="#7A7A7A"/>
</svg>
