<svg xmlns="http://www.w3.org/2000/svg" viewBox="0 0 100 100" width="400" height="400">
  <defs>
    <linearGradient id="floorGrad" x1="0%" y1="0%" x2="100%" y2="100%">
      <stop offset="0%" style="stop-color:#5A5A5A"/>
      <stop offset="100%" style="stop-color:#3A3A3A"/>
    </linearGradient>
    <linearGradient id="doorWood" x1="0%" y1="0%" x2="100%" y2="0%">
      <stop offset="0%" style="stop-color:#4A2A0A"/>
      <stop offset="50%" style="stop-color:#6B4B2B"/>
      <stop offset="100%" style="stop-color:#3A1A00"/>
    </linearGradient>
    <linearGradient id="goldTrim" x1="0%" y1="0%" x2="100%" y2="100%">
      <stop offset="0%" style="stop-color:#FFD700"/>
      <stop offset="50%" style="stop-color:#B8860B"/>
      <stop offset="100%" style="stop-color:#FFD700"/>
    </linearGradient>
    <filter id="softShadow" x="-50%" y="-50%" width="200%" height="200%">
      <feGaussianBlur in="SourceAlpha" stdDeviation="3"/>
      <feOffset dx="3" dy="3" result="offsetblur"/>
      <feComponentTransfer><feFuncA type="linear" slope="0.5"/></feComponentTransfer>
      <feMerge><feMergeNode/><feMergeNode in="SourceGraphic"/></feMerge>
    </filter>
  </defs>
  
  <!-- Simple floor -->
  <rect x="8" y="8" width="84" height="84" fill="url(#floorGrad)" stroke="#1A0A00" stroke-width="2"/>
  
  <!-- ENHANCED INTERIOR: Abandoned Room -->
  <!-- Large broken table -->
  <g filter="url(#softShadow)">
    <rect x="25" y="35" width="28" height="14" fill="#4A4A4A" stroke="#333" stroke-width="1" transform="rotate(-8 39 42)" rx="1"/>
    <rect x="28" y="30" width="22" height="10" fill="#3A3A3A" transform="rotate(-8 39 35)" rx="1"/>
    <!-- Broken legs -->
    <line x1="30" y1="49" x2="28" y2="62" stroke="#3A3A3A" stroke-width="3"/>
    <line x1="48" y1="47" x2="50" y2="58" stroke="#3A3A3A" stroke-width="2"/>
  </g>
  
  <!-- Debris pile -->
  <g filter="url(#softShadow)">
    <circle cx="62" cy="48" r="10" fill="#3A3A3A"/>
    <rect x="58" y="52" width="10" height="8" fill="#4A4A4A" transform="rotate(15 63 56)"/>
    <rect x="65" y="45" width="6" height="6" fill="#2A2A2A"/>
    <path d="M55,45 L65,50 L60,55" fill="none" stroke="#2A2A2A" stroke-width="2"/>
  </g>
  
  <!-- Broken chair -->
  <g filter="url(#softShadow)">
    <rect x="18" y="58" width="14" height="10" fill="#4A4A4A" transform="rotate(12 25 63)" rx="1"/>
    <line x1="20" y1="68" x2="16" y2="78" stroke="#3A3A3A" stroke-width="2"/>
    <line x1="32" y1="66" x2="36" y2="76" stroke="#3A3A3A" stroke-width="2"/>
    <line x1="22" y1="60" x2="18" y2="55" stroke="#3A3A3A" stroke-width="1"/>
  </g>
  
  <!-- Torn curtain -->
  <path d="M75,15 L75,50 L70,45 L72,55 L68,48 L70,15" fill="#5A5A5A" opacity="0.6" stroke="#444" stroke-width="0.5"/>
  
  <!-- Cobwebs -->
  <path d="M12,12 Q18,18 12,24" fill="none" stroke="#666" stroke-width="0.8" opacity="0.5"/>
  <path d="M88,15 Q82,22 88,28" fill="none" stroke="#666" stroke-width="0.8" opacity="0.5"/>
  <path d="M15,75 Q20,80 15,85" fill="none" stroke="#666" stroke-width="0.6" opacity="0.4"/>
  
  <!-- Door North -->
  <g filter="url(#softShadow)">
    <rect x="36" y="-4" width="28" height="16" fill="#1A0A00"/>
    <rect x="38" y="-2" width="24" height="14" fill="url(#doorWood)"/>
    <line x1="50" y1="-2" x2="50" y2="12" stroke="#2A1A0A" stroke-width="0.5"/>
    <line x1="38" y1="5" x2="62" y2="5" stroke="#2A1A0A" stroke-width="0.5"/>
    <rect x="38" y="-2" width="24" height="14" fill="none" stroke="url(#goldTrim)" stroke-width="1.5"/>
    <circle cx="55" cy="6" r="2.5" fill="url(#goldTrim)"/>
    <circle cx="55" cy="6" r="1.5" fill="#B8860B"/>
  </g>

  <!-- Door South -->
  <g filter="url(#softShadow)">
    <rect x="36" y="88" width="28" height="16" fill="#1A0A00"/>
    <rect x="38" y="90" width="24" height="14" fill="url(#doorWood)"/>
    <line x1="50" y1="90" x2="50" y2="104" stroke="#2A1A0A" stroke-width="0.5"/>
    <line x1="38" y1="97" x2="62" y2="97" stroke="#2A1A0A" stroke-width="0.5"/>
    <rect x="38" y="90" width="24" height="14" fill="none" stroke="url(#goldTrim)" stroke-width="1.5"/>
    <circle cx="55" cy="94" r="2.5" fill="url(#goldTrim)"/>
    <circle cx="55" cy="94" r="1.5" fill="#B8860B"/>
  </g>

  <!-- Door East -->
  <g filter="url(#softShadow)">
    <rect x="88" y="36" width="16" height="28" fill="#1A0A00"/>
    <rect x="90" y="38" width="12" height="24" fill="url(#doorWood)"/>
    <line x1="90" y1="50" x2="102" y2="50" stroke="#2A1A0A" stroke-width="0.5"/>
    <line x1="96" y1="38" x2="96" y2="62" stroke="#2A1A0A" stroke-width="0.5"/>
    <rect x="90" y="38" width="12" height="24" fill="none" stroke="url(#goldTrim)" stroke-width="1.5"/>
    <circle cx="96" cy="55" r="2.5" fill="url(#goldTrim)"/>
    <circle cx="96" cy="55" r="1.5" fill="#B8860B"/>
  </g>

  <!-- Door West -->
  <g filter="url(#softShadow)">
    <rect x="-4" y="36" width="16" height="28" fill="#1A0A00"/>
    <rect x="-2" y="38" width="12" height="24" fill="url(#doorWood)"/>
    <line x1="-2" y1="50" x2="10" y2="50" stroke="#2A1A0A" stroke-width="0.5"/>
    <line x1="4" y1="38" x2="4" y2="62" stroke="#2A1A0A" stroke-width="0.5"/>
    <rect x="-2" y="38" width="12" height="24" fill="none" stroke="url(#goldTrim)" stroke-width="1.5"/>
    <circle cx="4" cy="55" r="2.5" fill="url(#goldTrim)"/>
    <circle cx="4" cy="55" r="1.5" fill="#B8860B"/>
  </g>

  <!-- Symbol O -->
  <g filter="url(#softShadow)">
    <circle cx="85" cy="15" r="8" fill="#8B4DA8" stroke="#6B2D88" stroke-width="1"/>
    <circle cx="85" cy="15" r="6" fill="#AB6DC8" opacity="0.5"/>
    <text x="85" y="19" text-anchor="middle" font-size="11" fill="#FFF" font-weight="bold" font-family="serif">O</text>
  </g>
</svg>
