<svg xmlns="http://www.w3.org/2000/svg" viewBox="0 0 100 100" width="400" height="400">
  <defs>
    <linearGradient id="floorGrad" x1="0%" y1="0%" x2="100%" y2="100%">
      <stop offset="0%" style="stop-color:#7B6B5B"/>
      <stop offset="100%" style="stop-color:#4B3B2B"/>
    </linearGradient>
    <linearGradient id="doorWood" x1="0%" y1="0%" x2="100%" y2="0%">
      <stop offset="0%" style="stop-color:#5A3A2A"/>
      <stop offset="50%" style="stop-color:#7B5B4B"/>
      <stop offset="100%" style="stop-color:#3A1A0A"/>
    </linearGradient>
    <linearGradient id="goldTrim" x1="0%" y1="0%" x2="100%" y2="100%">
      <stop offset="0%" style="stop-color:#FFD700"/>
      <stop offset="50%" style="stop-color:#B8860B"/>
      <stop offset="100%" style="stop-color:#FFD700"/>
    </linearGradient>
    <filter id="softShadow" x="-50%" y="-50%" width="200%" height="200%">
      <feGaussianBlur in="SourceAlpha" stdDeviation="3"/>
      <feOffset dx="3" dy="3" result="offsetblur"/>
      <feComponentTransfer><feFuncA type="linear" slope="0.5"/></feComponentTransfer>
      <feMerge><feMergeNode/><feMergeNode in="SourceGraphic"/></feMerge>
    </filter>
  </defs>
  
  <rect x="8" y="8" width="84" height="84" fill="url(#floorGrad)" stroke="#1A0A00" stroke-width="2"/>
  
  <!-- Prominent railing -->
  <g filter="url(#softShadow)">
    <rect x="6" y="65" width="88" height="8" fill="#4A4A4A" stroke="#2A2A2A" stroke-width="2"/>
    <!-- Vertical bars -->
    <line x1="15" y1="73" x2="15" y2="95" stroke="#666" stroke-width="4"/>
    <line x1="30" y1="73" x2="30" y2="95" stroke="#666" stroke-width="4"/>
    <line x1="45" y1="73" x2="45" y2="95" stroke="#666" stroke-width="4"/>
    <line x1="60" y1="73" x2="60" y2="95" stroke="#666" stroke-width="4"/>
    <line x1="75" y1="73" x2="75" y2="95" stroke="#666" stroke-width="4"/>
    <line x1="90" y1="73" x2="90" y2="95" stroke="#666" stroke-width="4"/>
    <!-- Bottom rail -->
    <rect x="6" y="92" width="88" height="6" fill="#5A5A5A" stroke="#3A3A3A" stroke-width="1"/>
  </g>
  
  <!-- View hint (sky) -->
  <rect x="15" y="75" width="70" height="15" fill="#87CEEB" opacity="0.2" rx="2"/>
  
  <!-- Potted plant -->
  <g filter="url(#softShadow)">
    <ellipse cx="25" cy="50" rx="10" ry="12" fill="#2F5F2F" stroke="#1F4F1F" stroke-width="1"/>
    <circle cx="22" cy="46" r="4" fill="#3F7F3F"/>
    <circle cx="28" cy="48" r="3" fill="#3F7F3F"/>
    <rect x="20" y="60" width="10" height="8" fill="#8B4513" stroke="#654321" stroke-width="1"/>
  </g>
  
  <!-- Small table and chairs -->
  <g filter="url(#softShadow)">
    <rect x="60" y="50" width="16" height="10" fill="#6B5344" stroke="#4A3324" stroke-width="1" rx="1"/>
    <line x1="64" y1="60" x2="64" y2="68" stroke="#4A3324" stroke-width="2"/>
    <line x1="72" y1="60" x2="72" y2="68" stroke="#4A3324" stroke-width="2"/>
  </g>
  
  <!-- Door North -->
  <g filter="url(#softShadow)">
    <rect x="36" y="-4" width="28" height="16" fill="#1A0A00"/>
    <rect x="38" y="-2" width="24" height="14" fill="url(#doorWood)"/>
    <line x1="50" y1="-2" x2="50" y2="12" stroke="#2A1A0A" stroke-width="0.5"/>
    <line x1="38" y1="5" x2="62" y2="5" stroke="#2A1A0A" stroke-width="0.5"/>
    <rect x="38" y="-2" width="24" height="14" fill="none" stroke="url(#goldTrim)" stroke-width="1.5"/>
    <circle cx="55" cy="6" r="2.5" fill="url(#goldTrim)"/>
    <circle cx="55" cy="6" r="1.5" fill="#B8860B"/>
  </g>
  
  <!-- Door South -->
  <g filter="url(#softShadow)">
    <rect x="36" y="88" width="28" height="16" fill="#1A0A00"/>
    <rect x="38" y="90" width="24" height="14" fill="url(#doorWood)"/>
    <line x1="50" y1="90" x2="50" y2="104" stroke="#2A1A0A" stroke-width="0.5"/>
    <line x1="38" y1="97" x2="62" y2="97" stroke="#2A1A0A" stroke-width="0.5"/>
    <rect x="38" y="90" width="24" height="14" fill="none" stroke="url(#goldTrim)" stroke-width="1.5"/>
    <circle cx="55" cy="94" r="2.5" fill="url(#goldTrim)"/>
    <circle cx="55" cy="94" r="1.5" fill="#B8860B"/>
  </g>
  
  <!-- Symbol O -->
  <g filter="url(#softShadow)">
    <circle cx="85" cy="15" r="8" fill="#8B4DA8" stroke="#6B2D88" stroke-width="1"/>
    <circle cx="85" cy="15" r="6" fill="#AB6DC8" opacity="0.5"/>
    <text x="85" y="19" text-anchor="middle" font-size="11" fill="#FFF" font-weight="bold" font-family="serif">O</text>
  </g>
</svg>
