<svg xmlns="http://www.w3.org/2000/svg" viewBox="0 0 100 100" width="400" height="400">
  <defs>
    <linearGradient id="floorGrad" x1="0%" y1="0%" x2="100%" y2="100%">
      <stop offset="0%" style="stop-color:#8B7355"/>
      <stop offset="100%" style="stop-color:#5A4A3A"/>
    </linearGradient>
    <linearGradient id="doorWood" x1="0%" y1="0%" x2="100%" y2="0%">
      <stop offset="0%" style="stop-color:#6B4B2A"/>
      <stop offset="50%" style="stop-color:#8B6B4B"/>
      <stop offset="100%" style="stop-color:#4A2A0A"/>
    </linearGradient>
    <linearGradient id="goldTrim" x1="0%" y1="0%" x2="100%" y2="100%">
      <stop offset="0%" style="stop-color:#FFD700"/>
      <stop offset="50%" style="stop-color:#B8860B"/>
      <stop offset="100%" style="stop-color:#FFD700"/>
    </linearGradient>
    <filter id="softShadow" x="-50%" y="-50%" width="200%" height="200%">
      <feGaussianBlur in="SourceAlpha" stdDeviation="3"/>
      <feOffset dx="3" dy="3" result="offsetblur"/>
      <feComponentTransfer><feFuncA type="linear" slope="0.5"/></feComponentTransfer>
      <feMerge><feMergeNode/><feMergeNode in="SourceGraphic"/></feMerge>
    </filter>
    <filter id="glow">
      <feGaussianBlur in="SourceGraphic" stdDeviation="2" result="blur"/>
      <feMerge><feMergeNode in="blur"/><feMergeNode in="SourceGraphic"/></feMerge>
    </filter>
  </defs>
  
  <!-- Floor -->
  <rect x="8" y="8" width="84" height="84" fill="url(#floorGrad)" stroke="#2A1A0A" stroke-width="2"/>
  
  <!-- Dance floor pattern -->
  <ellipse cx="50" cy="60" rx="35" ry="25" fill="#6A5A4A" opacity="0.5"/>
  <ellipse cx="50" cy="60" rx="25" ry="18" fill="#7B6B5B" opacity="0.4"/>
  
  <!-- INTERIOR: BALLROOM - Giant chandelier -->
  <g filter="url(#softShadow)">
    <!-- Chandelier chain -->
    <line x1="50" y1="8" x2="50" y2="20" stroke="#444" stroke-width="2"/>
    <!-- Chandelier body -->
    <circle cx="50" cy="28" r="12" fill="#D4AF37" stroke="#B8860B" stroke-width="2"/>
    <circle cx="50" cy="28" r="8" fill="#FFD700"/>
    <!-- Arms -->
    <line x1="50" y1="28" x2="30" y2="40" stroke="#D4AF37" stroke-width="2"/>
    <line x1="50" y1="28" x2="70" y2="40" stroke="#D4AF37" stroke-width="2"/>
    <line x1="50" y1="28" x2="50" y2="45" stroke="#D4AF37" stroke-width="2"/>
    <line x1="50" y1="28" x2="35" y2="50" stroke="#D4AF37" stroke-width="1.5"/>
    <line x1="50" y1="28" x2="65" y2="50" stroke="#D4AF37" stroke-width="1.5"/>
    <!-- Lights -->
    <circle cx="30" cy="40" r="4" fill="#FFF8DC" filter="url(#glow)"/>
    <circle cx="70" cy="40" r="4" fill="#FFF8DC" filter="url(#glow)"/>
    <circle cx="50" cy="45" r="5" fill="#FFF8DC" filter="url(#glow)"/>
    <circle cx="35" cy="50" r="3" fill="#FFF8DC" filter="url(#glow)"/>
    <circle cx="65" cy="50" r="3" fill="#FFF8DC" filter="url(#glow)"/>
    <!-- Glow effect -->
    <circle cx="50" cy="35" r="25" fill="#FFD700" opacity="0.15"/>
    <circle cx="50" cy="35" r="35" fill="#FFD700" opacity="0.08"/>
  </g>
  
  <!-- Decorative columns -->
  <g filter="url(#softShadow)">
    <rect x="15" y="50" width="8" height="38" fill="#7B6B5B" stroke="#5A4A3A" stroke-width="1"/>
    <rect x="13" y="48" width="12" height="4" fill="#8B7B6B" stroke="#6A5A4A"/>
    <rect x="77" y="50" width="8" height="38" fill="#7B6B5B" stroke="#5A4A3A" stroke-width="1"/>
    <rect x="75" y="48" width="12" height="4" fill="#8B7B6B" stroke="#6A5A4A"/>
  </g>
  
  <!-- Door North -->
  <g filter="url(#softShadow)">
    <rect x="36" y="-4" width="28" height="16" fill="#1A0A00"/>
    <rect x="38" y="-2" width="24" height="14" fill="url(#doorWood)"/>
    <line x1="50" y1="-2" x2="50" y2="12" stroke="#2A1A0A" stroke-width="0.5"/>
    <line x1="38" y1="5" x2="62" y2="5" stroke="#2A1A0A" stroke-width="0.5"/>
    <rect x="38" y="-2" width="24" height="14" fill="none" stroke="url(#goldTrim)" stroke-width="1.5"/>
    <circle cx="55" cy="6" r="2.5" fill="url(#goldTrim)"/>
    <circle cx="55" cy="6" r="1.5" fill="#B8860B"/>
  </g>
  
  <!-- Door South -->
  <g filter="url(#softShadow)">
    <rect x="36" y="88" width="28" height="16" fill="#1A0A00"/>
    <rect x="38" y="90" width="24" height="14" fill="url(#doorWood)"/>
    <line x1="50" y1="90" x2="50" y2="104" stroke="#2A1A0A" stroke-width="0.5"/>
    <line x1="38" y1="97" x2="62" y2="97" stroke="#2A1A0A" stroke-width="0.5"/>
    <rect x="38" y="90" width="24" height="14" fill="none" stroke="url(#goldTrim)" stroke-width="1.5"/>
    <circle cx="55" cy="94" r="2.5" fill="url(#goldTrim)"/>
    <circle cx="55" cy="94" r="1.5" fill="#B8860B"/>
  </g>
</svg>
