<svg xmlns="http://www.w3.org/2000/svg" viewBox="0 0 100 100" width="400" height="400">
  <defs>
    <linearGradient id="floorGrad" x1="0%" y1="0%" x2="100%" y2="100%">
      <stop offset="0%" style="stop-color:#5A5A5A"/>
      <stop offset="100%" style="stop-color:#3A3A3A"/>
    </linearGradient>
    <linearGradient id="doorWood" x1="0%" y1="0%" x2="100%" y2="0%">
      <stop offset="0%" style="stop-color:#4A2A0A"/>
      <stop offset="50%" style="stop-color:#6B4B2B"/>
      <stop offset="100%" style="stop-color:#3A1A00"/>
    </linearGradient>
    <linearGradient id="goldTrim" x1="0%" y1="0%" x2="100%" y2="100%">
      <stop offset="0%" style="stop-color:#FFD700"/>
      <stop offset="50%" style="stop-color:#B8860B"/>
      <stop offset="100%" style="stop-color:#FFD700"/>
    </linearGradient>
    <filter id="softShadow" x="-50%" y="-50%" width="200%" height="200%">
      <feGaussianBlur in="SourceAlpha" stdDeviation="3"/>
      <feOffset dx="3" dy="3" result="offsetblur"/>
      <feComponentTransfer><feFuncA type="linear" slope="0.5"/></feComponentTransfer>
      <feMerge><feMergeNode/><feMergeNode in="SourceGraphic"/></feMerge>
    </filter>
  </defs>
  
  <rect x="8" y="8" width="84" height="84" fill="url(#floorGrad)" stroke="#1A0A00" stroke-width="2"/>
  
  <!-- Wall niches with skulls -->
  <g filter="url(#softShadow)">
    <rect x="12" y="15" width="22" height="18" fill="#5A5A5A" stroke="#333" stroke-width="2"/>
    <line x1="18" y1="15" x2="18" y2="33" stroke="#222" stroke-width="2"/>
    <line x1="28" y1="15" x2="28" y2="33" stroke="#222" stroke-width="2"/>
    <!-- Skulls -->
    <circle cx="15" cy="24" r="4" fill="#444"/>
    <circle cx="23" cy="22" r="4" fill="#444"/>
    <circle cx="31" cy="26" r="4" fill="#444"/>
  </g>
  
  <g filter="url(#softShadow)">
    <rect x="66" y="15" width="22" height="18" fill="#5A5A5A" stroke="#333" stroke-width="2"/>
    <line x1="72" y1="15" x2="72" y2="33" stroke="#222" stroke-width="2"/>
    <line x1="82" y1="15" x2="82" y2="33" stroke="#222" stroke-width="2"/>
    <!-- Skulls -->
    <circle cx="69" cy="24" r="4" fill="#444"/>
    <circle cx="77" cy="22" r="4" fill="#444"/>
    <circle cx="85" cy="26" r="4" fill="#444"/>
  </g>
  
  <g filter="url(#softShadow)">
    <rect x="39" y="68" width="22" height="18" fill="#5A5A5A" stroke="#333" stroke-width="2"/>
    <line x1="45" y1="68" x2="45" y2="86" stroke="#222" stroke-width="2"/>
    <line x1="55" y1="68" x2="55" y2="86" stroke="#222" stroke-width="2"/>
    <!-- Skulls -->
    <circle cx="42" cy="77" r="4" fill="#444"/>
    <circle cx="50" cy="75" r="4" fill="#444"/>
    <circle cx="58" cy="79" r="4" fill="#444"/>
  </g>
  
  <!-- Bone piles -->
  <line x1="20" y1="70" x2="35" y2="75" stroke="#555" stroke-width="2"/>
  <line x1="25" y1="72" x2="30" y2="78" stroke="#555" stroke-width="1.5"/>
  <line x1="70" y1="72" x2="85" y2="76" stroke="#555" stroke-width="2"/>
  
  <!-- Door North -->
  <g filter="url(#softShadow)">
    <rect x="36" y="-4" width="28" height="16" fill="#1A0A00"/>
    <rect x="38" y="-2" width="24" height="14" fill="url(#doorWood)"/>
    <line x1="50" y1="-2" x2="50" y2="12" stroke="#2A1A0A" stroke-width="0.5"/>
    <line x1="38" y1="5" x2="62" y2="5" stroke="#2A1A0A" stroke-width="0.5"/>
    <rect x="38" y="-2" width="24" height="14" fill="none" stroke="url(#goldTrim)" stroke-width="1.5"/>
    <circle cx="55" cy="6" r="2.5" fill="url(#goldTrim)"/>
    <circle cx="55" cy="6" r="1.5" fill="#B8860B"/>
  </g>
  
  <!-- Door South -->
  <g filter="url(#softShadow)">
    <rect x="36" y="88" width="28" height="16" fill="#1A0A00"/>
    <rect x="38" y="90" width="24" height="14" fill="url(#doorWood)"/>
    <line x1="50" y1="90" x2="50" y2="104" stroke="#2A1A0A" stroke-width="0.5"/>
    <line x1="38" y1="97" x2="62" y2="97" stroke="#2A1A0A" stroke-width="0.5"/>
    <rect x="38" y="90" width="24" height="14" fill="none" stroke="url(#goldTrim)" stroke-width="1.5"/>
    <circle cx="55" cy="94" r="2.5" fill="url(#goldTrim)"/>
    <circle cx="55" cy="94" r="1.5" fill="#B8860B"/>
  </g>

  <!-- Symbol O -->
  <g filter="url(#softShadow)">
    <circle cx="85" cy="15" r="8" fill="#8B4DA8" stroke="#6B3D88" stroke-width="1"/>
    <text x="85" y="19" text-anchor="middle" font-size="11" fill="#FFF" font-weight="bold">O</text>
  </g>
</svg>
