<svg xmlns="http://www.w3.org/2000/svg" viewBox="0 0 100 100" width="400" height="400">
  <defs>
    <linearGradient id="floorGrad" x1="0%" y1="0%" x2="100%" y2="100%">
      <stop offset="0%" style="stop-color:#3A3A3A"/>
      <stop offset="100%" style="stop-color:#1A1A1A"/>
    </linearGradient>
    <linearGradient id="doorWood" x1="0%" y1="0%" x2="100%" y2="0%">
      <stop offset="0%" style="stop-color:#4A2A0A"/>
      <stop offset="50%" style="stop-color:#6B4B2B"/>
      <stop offset="100%" style="stop-color:#3A1A00"/>
    </linearGradient>
    <linearGradient id="goldTrim" x1="0%" y1="0%" x2="100%" y2="100%">
      <stop offset="0%" style="stop-color:#FFD700"/>
      <stop offset="50%" style="stop-color:#B8860B"/>
      <stop offset="100%" style="stop-color:#FFD700"/>
    </linearGradient>
    <filter id="softShadow" x="-50%" y="-50%" width="200%" height="200%">
      <feGaussianBlur in="SourceAlpha" stdDeviation="3"/>
      <feOffset dx="3" dy="3" result="offsetblur"/>
      <feComponentTransfer><feFuncA type="linear" slope="0.5"/></feComponentTransfer>
      <feMerge><feMergeNode/><feMergeNode in="SourceGraphic"/></feMerge>
    </filter>
  </defs>
  
  <!-- Floor -->
  <rect x="8" y="8" width="84" height="84" fill="url(#floorGrad)" stroke="#0A0A0A" stroke-width="2"/>
  
  <!-- INTERIOR: Cave - Natural cave formation -->
  <!-- Rocky walls (irregular shapes) -->
  <g fill="#2A2A2A" stroke="#1A1A1A" stroke-width="1">
    <polygon points="8,8 25,12 20,25 8,20"/>
    <polygon points="75,8 92,8 92,22 80,18"/>
    <polygon points="8,75 18,80 15,92 8,92"/>
    <polygon points="85,78 92,85 92,92 78,92"/>
  </g>
  
  <!-- Rock formations -->
  <g filter="url(#softShadow)">
    <!-- Stalagmites (floor) -->
    <polygon points="25,85 30,65 35,85" fill="#4A4A4A" stroke="#2A2A2A"/>
    <polygon points="60,85 65,60 70,85" fill="#3A3A3A" stroke="#1A1A1A"/>
    <polygon points="45,85 48,70 52,85" fill="#4A4A4A" stroke="#2A2A2A"/>
    
    <!-- Stalactites (ceiling) -->
    <polygon points="30,15 35,35 40,15" fill="#3A3A3A" stroke="#1A1A1A"/>
    <polygon points="55,15 60,30 65,15" fill="#4A4A4A" stroke="#2A2A2A"/>
  </g>
  
  <!-- Large center boulder -->
  <ellipse cx="50" cy="50" rx="15" ry="12" fill="#3A3A3A" stroke="#1A1A1A" stroke-width="1"/>
  
  <!-- Crystals -->
  <g filter="url(#softShadow)">
    <polygon points="20,40 22,30 24,40" fill="#87CEEB" opacity="0.5"/>
    <polygon points="78,55 80,45 82,55" fill="#87CEEB" opacity="0.4"/>
    <polygon points="40,75 42,65 44,75" fill="#87CEEB" opacity="0.5"/>
  </g>
  
  <!-- Door North -->
  <g filter="url(#softShadow)">
    <rect x="36" y="-4" width="28" height="16" fill="#1A0A00"/>
    <rect x="38" y="-2" width="24" height="14" fill="url(#doorWood)"/>
    <line x1="50" y1="-2" x2="50" y2="12" stroke="#2A1A0A" stroke-width="0.5"/>
    <line x1="38" y1="5" x2="62" y2="5" stroke="#2A1A0A" stroke-width="0.5"/>
    <rect x="38" y="-2" width="24" height="14" fill="none" stroke="url(#goldTrim)" stroke-width="1.5"/>
    <circle cx="55" cy="6" r="2.5" fill="url(#goldTrim)"/>
    <circle cx="55" cy="6" r="1.5" fill="#B8860B"/>
  </g>
  
  <!-- Door South -->
  <g filter="url(#softShadow)">
    <rect x="36" y="88" width="28" height="16" fill="#1A0A00"/>
    <rect x="38" y="90" width="24" height="14" fill="url(#doorWood)"/>
    <line x1="50" y1="90" x2="50" y2="104" stroke="#2A1A0A" stroke-width="0.5"/>
    <line x1="38" y1="97" x2="62" y2="97" stroke="#2A1A0A" stroke-width="0.5"/>
    <rect x="38" y="90" width="24" height="14" fill="none" stroke="url(#goldTrim)" stroke-width="1.5"/>
    <circle cx="55" cy="94" r="2.5" fill="url(#goldTrim)"/>
    <circle cx="55" cy="94" r="1.5" fill="#B8860B"/>
  </g>
  
  <!-- Door East -->
  <g filter="url(#softShadow)">
    <rect x="88" y="36" width="16" height="28" fill="#1A0A00"/>
    <rect x="90" y="38" width="12" height="24" fill="url(#doorWood)"/>
    <line x1="90" y1="50" x2="102" y2="50" stroke="#2A1A0A" stroke-width="0.5"/>
    <line x1="96" y1="38" x2="96" y2="62" stroke="#2A1A0A" stroke-width="0.5"/>
    <rect x="90" y="38" width="12" height="24" fill="none" stroke="url(#goldTrim)" stroke-width="1.5"/>
    <circle cx="96" cy="55" r="2.5" fill="url(#goldTrim)"/>
    <circle cx="96" cy="55" r="1.5" fill="#B8860B"/>
  </g>
  
  <!-- Door West -->
  <g filter="url(#softShadow)">
    <rect x="-4" y="36" width="16" height="28" fill="#1A0A00"/>
    <rect x="-2" y="38" width="12" height="24" fill="url(#doorWood)"/>
    <line x1="-2" y1="50" x2="10" y2="50" stroke="#2A1A0A" stroke-width="0.5"/>
    <line x1="4" y1="38" x2="4" y2="62" stroke="#2A1A0A" stroke-width="0.5"/>
    <rect x="-2" y="38" width="12" height="24" fill="none" stroke="url(#goldTrim)" stroke-width="1.5"/>
    <circle cx="4" cy="55" r="2.5" fill="url(#goldTrim)"/>
    <circle cx="4" cy="55" r="1.5" fill="#B8860B"/>
  </g>
  
  <!-- Symbol E -->
  <g filter="url(#softShadow)">
    <circle cx="85" cy="15" r="8" fill="#4A9A4A" stroke="#2A7A2A" stroke-width="1"/>
    <circle cx="85" cy="15" r="6" fill="#5ABA5A" opacity="0.5"/>
    <text x="85" y="19" text-anchor="middle" font-size="11" fill="#FFF" font-weight="bold" font-family="serif">E</text>
  </g>
</svg>