<svg xmlns="http://www.w3.org/2000/svg" viewBox="0 0 100 100" width="400" height="400">
  <defs>
    <linearGradient id="floorGrad" x1="0%" y1="0%" x2="100%" y2="100%">
      <stop offset="0%" style="stop-color:#8B7355"/>
      <stop offset="100%" style="stop-color:#5A4A3A"/>
    </linearGradient>
    <linearGradient id="doorWood" x1="0%" y1="0%" x2="100%" y2="0%">
      <stop offset="0%" style="stop-color:#6B4B2A"/>
      <stop offset="50%" style="stop-color:#8B6B4B"/>
      <stop offset="100%" style="stop-color:#4A2A0A"/>
    </linearGradient>
    <linearGradient id="goldTrim" x1="0%" y1="0%" x2="100%" y2="100%">
      <stop offset="0%" style="stop-color:#FFD700"/>
      <stop offset="50%" style="stop-color:#B8860B"/>
      <stop offset="100%" style="stop-color:#FFD700"/>
    </linearGradient>
    <filter id="softShadow" x="-50%" y="-50%" width="200%" height="200%">
      <feGaussianBlur in="SourceAlpha" stdDeviation="3"/>
      <feOffset dx="3" dy="3" result="offsetblur"/>
      <feComponentTransfer><feFuncA type="linear" slope="0.5"/></feComponentTransfer>
      <feMerge><feMergeNode/><feMergeNode in="SourceGraphic"/></feMerge>
    </filter>
  </defs>
  
  <!-- Floor -->
  <rect x="8" y="8" width="84" height="84" fill="url(#floorGrad)" stroke="#2A1A0A" stroke-width="2"/>
  
  <!-- INTERIOR: CHAPEL - Altar and pews -->
  <!-- Altar -->
  <g filter="url(#softShadow)">
    <!-- Altar base -->
    <rect x="30" y="25" width="40" height="20" fill="#5A5A6A" stroke="#3A3A4A" stroke-width="2" rx="2"/>
    <!-- Al cloth -->
    <rect x="32" y="27" width="36" height="14" fill="#FFF" opacity="0.8"/>
    <!-- Cross on altar -->
    <line x1="50" y1="22" x2="50" y2="32" stroke="#D4AF37" stroke-width="3"/>
    <line x1="45" y1="27" x2="55" y2="27" stroke="#D4AF37" stroke-width="3"/>
    <!-- Candles -->
    <rect x="35" y="20" width="2" height="8" fill="#DDD"/>
    <circle cx="36" cy="19" r="2" fill="#FF6B35" opacity="0.8"/>
    <rect x="63" y="20" width="2" height="8" fill="#DDD"/>
    <circle cx="64" cy="19" r="2" fill="#FF6B35" opacity="0.8"/>
  </g>
  
  <!-- Pews left -->
  <g filter="url(#softShadow)">
    <rect x="12" y="50" width="25" height="8" fill="#6B5344" stroke="#4A3324" stroke-width="1" rx="1"/>
    <rect x="12" y="60" width="25" height="8" fill="#6B5344" stroke="#4A3324" stroke-width="1" rx="1"/>
    <rect x="12" y="70" width="25" height="8" fill="#6B5344" stroke="#4A3324" stroke-width="1" rx="1"/>
  </g>
  
  <!-- Pews right -->
  <g filter="url(#softShadow)">
    <rect x="63" y="50" width="25" height="8" fill="#6B5344" stroke="#4A3324" stroke-width="1" rx="1"/>
    <rect x="63" y="60" width="25" height="8" fill="#6B5344" stroke="#4A3324" stroke-width="1" rx="1"/>
    <rect x="63" y="70" width="25" height="8" fill="#6B5344" stroke="#4A3324" stroke-width="1" rx="1"/>
  </g>
  
  <!-- Aisle carpet -->
  <rect x="40" y="48" width="20" height="40" fill="#8B0000" opacity="0.4"/>
  
  <!-- Stained glass window - prominent feature -->
  <g>
    <polygon points="50,8 62,22 38,22" fill="#4682B4" opacity="0.7" stroke="#2E5A8B" stroke-width="2"/>
    <line x1="50" y1="8" x2="50" y2="22" stroke="#2E5A8B" stroke-width="1.5"/>
    <line x1="44" y1="15" x2="56" y2="15" stroke="#2E5A8B" stroke-width="1.5"/>
    <!-- Window frame -->
    <line x1="38" y1="22" x2="62" y2="22" stroke="#4A3728" stroke-width="2"/>
  </g>
  
  <!-- Door North -->
  <g filter="url(#softShadow)">
    <rect x="36" y="-4" width="28" height="16" fill="#1A0A00"/>
    <rect x="38" y="-2" width="24" height="14" fill="url(#doorWood)"/>
    <line x1="50" y1="-2" x2="50" y2="12" stroke="#2A1A0A" stroke-width="0.5"/>
    <line x1="38" y1="5" x2="62" y2="5" stroke="#2A1A0A" stroke-width="0.5"/>
    <rect x="38" y="-2" width="24" height="14" fill="none" stroke="url(#goldTrim)" stroke-width="1.5"/>
    <circle cx="55" cy="6" r="2.5" fill="url(#goldTrim)"/>
    <circle cx="55" cy="6" r="1.5" fill="#B8860B"/>
  </g>
  
  <!-- Symbol E -->
  <g filter="url(#softShadow)">
    <circle cx="85" cy="15" r="8" fill="#4A9A4A" stroke="#2A7A2A" stroke-width="1"/>
    <circle cx="85" cy="15" r="6" fill="#5ABA5A" opacity="0.5"/>
    <text x="85" y="19" text-anchor="middle" font-size="11" fill="#FFF" font-weight="bold" font-family="serif">E</text>
  </g>
  
  <!-- Window indicator icon -->
  <g transform="translate(15, 15)">
    <rect x="0" y="0" width="10" height="10" fill="#87CEEB" stroke="#4682B4" stroke-width="1" rx="1"/>
    <line x1="5" y1="0" x2="5" y2="10" stroke="#4682B4" stroke-width="0.5"/>
    <line x1="0" y1="5" x2="10" y2="5" stroke="#4682B4" stroke-width="0.5"/>
  </g>
</svg>
