<svg xmlns="http://www.w3.org/2000/svg" viewBox="0 0 100 100" width="400" height="400">
  <defs>
    <linearGradient id="floorGrad" x1="0%" y1="0%" x2="100%" y2="100%">
      <stop offset="0%" style="stop-color:#7B6B5B"/>
      <stop offset="100%" style="stop-color:#4B3B2B"/>
    </linearGradient>
    <linearGradient id="doorWood" x1="0%" y1="0%" x2="100%" y2="0%">
      <stop offset="0%" style="stop-color:#5A3A2A"/>
      <stop offset="50%" style="stop-color:#7B5B4B"/>
      <stop offset="100%" style="stop-color:#3A1A0A"/>
    </linearGradient>
    <linearGradient id="goldTrim" x1="0%" y1="0%" x2="100%" y2="100%">
      <stop offset="0%" style="stop-color:#FFD700"/>
      <stop offset="50%" style="stop-color:#B8860B"/>
      <stop offset="100%" style="stop-color:#FFD700"/>
    </linearGradient>
    <filter id="softShadow" x="-50%" y="-50%" width="200%" height="200%">
      <feGaussianBlur in="SourceAlpha" stdDeviation="3"/>
      <feOffset dx="3" dy="3" result="offsetblur"/>
      <feComponentTransfer><feFuncA type="linear" slope="0.5"/></feComponentTransfer>
      <feMerge><feMergeNode/><feMergeNode in="SourceGraphic"/></feMerge>
    </filter>
  </defs>
  
  <rect x="8" y="8" width="84" height="84" fill="url(#floorGrad)" stroke="#1A0A00" stroke-width="2"/>
  
  <!-- Collapsed ceiling/hole -->
  <polygon points="20,78 50,20 80,78" fill="#2A2A2A" opacity="0.7" stroke="#1A1A1A" stroke-width="2"/>
  <polygon points="30,72 50,35 70,72" fill="#1A1A1A" opacity="0.5"/>
  
  <!-- Debris -->
  <g filter="url(#softShadow)">
    <rect x="15" y="65" width="12" height="10" fill="#4A4A4A" transform="rotate(-10 21 70)" rx="1"/>
    <rect x="72" y="68" width="10" height="8" fill="#5A5A5A" transform="rotate(15 77 72)" rx="1"/>
    <rect x="25" y="75" width="8" height="6" fill="#3A3A3A" rx="1"/>
    <rect x="65" y="72" width="6" height="8" fill="#4A4A4A" transform="rotate(-5 68 76)" rx="1"/>
  </g>
  
  <!-- Broken floor -->
  <line x1="22" y1="72" x2="78" y2="72" stroke="#2A2A2A" stroke-width="4" stroke-dasharray="8,4"/>
  <line x1="30" y1="68" x2="70" y2="68" stroke="#3A3A3A" stroke-width="2" stroke-dasharray="5,3"/>
  
  <!-- Rubble pile -->
  <ellipse cx="45" cy="82" rx="10" ry="4" fill="#3A3A3A" opacity="0.6"/>
  <ellipse cx="58" cy="80" rx="6" ry="3" fill="#4A4A4A" opacity="0.5"/>
  
  <!-- Door North -->
  <g filter="url(#softShadow)">
    <rect x="36" y="-4" width="28" height="16" fill="#1A0A00"/>
    <rect x="38" y="-2" width="24" height="14" fill="url(#doorWood)"/>
    <line x1="50" y1="-2" x2="50" y2="12" stroke="#2A1A0A" stroke-width="0.5"/>
    <line x1="38" y1="5" x2="62" y2="5" stroke="#2A1A0A" stroke-width="0.5"/>
    <rect x="38" y="-2" width="24" height="14" fill="none" stroke="url(#goldTrim)" stroke-width="1.5"/>
    <circle cx="55" cy="6" r="2.5" fill="url(#goldTrim)"/>
    <circle cx="55" cy="6" r="1.5" fill="#B8860B"/>
  </g>

  <!-- Door South -->
  <g filter="url(#softShadow)">
    <rect x="36" y="88" width="28" height="16" fill="#1A0A00"/>
    <rect x="38" y="90" width="24" height="14" fill="url(#doorWood)"/>
    <line x1="50" y1="90" x2="50" y2="104" stroke="#2A1A0A" stroke-width="0.5"/>
    <line x1="38" y1="97" x2="62" y2="97" stroke="#2A1A0A" stroke-width="0.5"/>
    <rect x="38" y="90" width="24" height="14" fill="none" stroke="url(#goldTrim)" stroke-width="1.5"/>
    <circle cx="55" cy="94" r="2.5" fill="url(#goldTrim)"/>
    <circle cx="55" cy="94" r="1.5" fill="#B8860B"/>
  </g>

  <!-- Door East -->
  <g filter="url(#softShadow)">
    <rect x="88" y="36" width="16" height="28" fill="#1A0A00"/>
    <rect x="90" y="38" width="12" height="24" fill="url(#doorWood)"/>
    <line x1="90" y1="50" x2="102" y2="50" stroke="#2A1A0A" stroke-width="0.5"/>
    <line x1="96" y1="38" x2="96" y2="62" stroke="#2A1A0A" stroke-width="0.5"/>
    <rect x="90" y="38" width="12" height="24" fill="none" stroke="url(#goldTrim)" stroke-width="1.5"/>
    <circle cx="96" cy="55" r="2.5" fill="url(#goldTrim)"/>
    <circle cx="96" cy="55" r="1.5" fill="#B8860B"/>
  </g>

  <!-- Door West -->
  <g filter="url(#softShadow)">
    <rect x="-4" y="36" width="16" height="28" fill="#1A0A00"/>
    <rect x="-2" y="38" width="12" height="24" fill="url(#doorWood)"/>
    <line x1="-2" y1="50" x2="10" y2="50" stroke="#2A1A0A" stroke-width="0.5"/>
    <line x1="4" y1="38" x2="4" y2="62" stroke="#2A1A0A" stroke-width="0.5"/>
    <rect x="-2" y="38" width="12" height="24" fill="none" stroke="url(#goldTrim)" stroke-width="1.5"/>
    <circle cx="4" cy="55" r="2.5" fill="url(#goldTrim)"/>
    <circle cx="4" cy="55" r="1.5" fill="#B8860B"/>
  </g>
</svg>
