<svg xmlns="http://www.w3.org/2000/svg" viewBox="0 0 100 100" width="400" height="400">
  <defs>
    <linearGradient id="floorGrad" x1="0%" y1="0%" x2="100%" y2="100%">
      <stop offset="0%" style="stop-color:#8B7355"/>
      <stop offset="100%" style="stop-color:#5A4A3A"/>
    </linearGradient>
    <linearGradient id="doorWood" x1="0%" y1="0%" x2="100%" y2="0%">
      <stop offset="0%" style="stop-color:#6B4B2A"/>
      <stop offset="50%" style="stop-color:#8B6B4B"/>
      <stop offset="100%" style="stop-color:#4A2A0A"/>
    </linearGradient>
    <linearGradient id="goldTrim" x1="0%" y1="0%" x2="100%" y2="100%">
      <stop offset="0%" style="stop-color:#FFD700"/>
      <stop offset="50%" style="stop-color:#B8860B"/>
      <stop offset="100%" style="stop-color:#FFD700"/>
    </linearGradient>
    <filter id="softShadow" x="-50%" y="-50%" width="200%" height="200%">
      <feGaussianBlur in="SourceAlpha" stdDeviation="3"/>
      <feOffset dx="3" dy="3" result="offsetblur"/>
      <feComponentTransfer><feFuncA type="linear" slope="0.5"/></feComponentTransfer>
      <feMerge><feMergeNode/><feMergeNode in="SourceGraphic"/></feMerge>
    </filter>
  </defs>
  
  <rect x="8" y="8" width="84" height="84" fill="url(#floorGrad)" stroke="#2A1A0A" stroke-width="2"/>
  
  <!-- Large glass windows -->
  <rect x="12" y="15" width="76" height="25" fill="#87CEEB" opacity="0.3" stroke="#4A5B6B" stroke-width="2"/>
  <line x1="25" y1="15" x2="25" y2="40" stroke="#4A5B6B" stroke-width="1"/>
  <line x1="50" y1="15" x2="50" y2="40" stroke="#4A5B6B" stroke-width="1"/>
  <line x1="75" y1="15" x2="75" y2="40" stroke="#4A5B6B" stroke-width="1"/>
  
  <!-- Large potted plants -->
  <g filter="url(#softShadow)">
    <ellipse cx="25" cy="55" rx="15" ry="18" fill="#2F5F2F" stroke="#1F4F1F" stroke-width="1"/>
    <circle cx="20" cy="48" r="6" fill="#3F7F3F"/>
    <circle cx="30" cy="50" r="5" fill="#3F7F3F"/>
    <rect x="18" y="70" width="14" height="12" fill="#8B4513" stroke="#654321" stroke-width="1"/>
  </g>
  
  <g filter="url(#softShadow)">
    <ellipse cx="75" cy="58" rx="14" ry="16" fill="#2F5F2F" stroke="#1F4F1F" stroke-width="1"/>
    <circle cx="70" cy="52" r="5" fill="#3F7F3F"/>
    <circle cx="80" cy="54" r="4" fill="#3F7F3F"/>
    <rect x="68" y="72" width="14" height="10" fill="#8B4513" stroke="#654321" stroke-width="1"/>
  </g>
  
  <!-- Small table -->
  <g filter="url(#softShadow)">
    <rect x="42" y="65" width="16" height="10" fill="#6B5344" stroke="#4A3324" stroke-width="1" rx="1"/>
    <line x1="46" y1="75" x2="46" y2="82" stroke="#4A3324" stroke-width="2"/>
    <line x1="54" y1="75" x2="54" y2="82" stroke="#4A3324" stroke-width="2"/>
  </g>
  
  <!-- Door North -->
  <g filter="url(#softShadow)">
    <rect x="36" y="-4" width="28" height="16" fill="#1A0A00"/>
    <rect x="38" y="-2" width="24" height="14" fill="url(#doorWood)"/>
    <line x1="50" y1="-2" x2="50" y2="12" stroke="#2A1A0A" stroke-width="0.5"/>
    <line x1="38" y1="5" x2="62" y2="5" stroke="#2A1A0A" stroke-width="0.5"/>
    <rect x="38" y="-2" width="24" height="14" fill="none" stroke="url(#goldTrim)" stroke-width="1.5"/>
    <circle cx="55" cy="6" r="2.5" fill="url(#goldTrim)"/>
    <circle cx="55" cy="6" r="1.5" fill="#B8860B"/>
  </g>
  
  <!-- Symbol E -->
  <g filter="url(#softShadow)">
    <circle cx="85" cy="15" r="8" fill="#4A9A4A" stroke="#2A7A2A" stroke-width="1"/>
    <circle cx="85" cy="15" r="6" fill="#5ABA5A" opacity="0.5"/>
    <text x="85" y="19" text-anchor="middle" font-size="11" fill="#FFF" font-weight="bold" font-family="serif">E</text>
  </g>
  
  <!-- Outside indicator - sun icon -->
  <g transform="translate(12, 82)">
    <circle cx="6" cy="6" r="4" fill="#FFD700" stroke="#FFA500" stroke-width="1"/>
    <line x1="6" y1="0" x2="6" y2="2" stroke="#FFD700" stroke-width="1"/>
    <line x1="6" y1="10" x2="6" y2="12" stroke="#FFD700" stroke-width="1"/>
    <line x1="0" y1="6" x2="2" y2="6" stroke="#FFD700" stroke-width="1"/>
    <line x1="10" y1="6" x2="12" y2="6" stroke="#FFD700" stroke-width="1"/>
    <line x1="2" y1="2" x2="3.5" y2="3.5" stroke="#FFD700" stroke-width="1"/>
    <line x1="8.5" y1="8.5" x2="10" y2="10" stroke="#FFD700" stroke-width="1"/>
    <line x1="10" y1="2" x2="8.5" y2="3.5" stroke="#FFD700" stroke-width="1"/>
    <line x1="3.5" y1="8.5" x2="2" y2="10" stroke="#FFD700" stroke-width="1"/>
  </g>
</svg>
