<svg xmlns="http://www.w3.org/2000/svg" viewBox="0 0 100 100" width="400" height="400">
  <defs>
    <linearGradient id="floorGrad" x1="0%" y1="0%" x2="100%" y2="100%">
      <stop offset="0%" style="stop-color:#6A5A4A"/>
      <stop offset="100%" style="stop-color:#4A3A2A"/>
    </linearGradient>
    <linearGradient id="doorWood" x1="0%" y1="0%" x2="100%" y2="0%">
      <stop offset="0%" style="stop-color:#4A2A0A"/>
      <stop offset="50%" style="stop-color:#6B4B2B"/>
      <stop offset="100%" style="stop-color:#3A1A00"/>
    </linearGradient>
    <linearGradient id="goldTrim" x1="0%" y1="0%" x2="100%" y2="100%">
      <stop offset="0%" style="stop-color:#FFD700"/>
      <stop offset="50%" style="stop-color:#B8860B"/>
      <stop offset="100%" style="stop-color:#FFD700"/>
    </linearGradient>
    <filter id="softShadow" x="-50%" y="-50%" width="200%" height="200%">
      <feGaussianBlur in="SourceAlpha" stdDeviation="3"/>
      <feOffset dx="3" dy="3" result="offsetblur"/>
      <feComponentTransfer><feFuncA type="linear" slope="0.5"/></feComponentTransfer>
      <feMerge><feMergeNode/><feMergeNode in="SourceGraphic"/></feMerge>
    </filter>
  </defs>
  
  <!-- Floor -->
  <rect x="8" y="8" width="84" height="84" fill="url(#floorGrad)" stroke="#2A1A0A" stroke-width="2"/>
  
  <!-- INTERIOR: Creaky Hallway - Long corridor with creaky floorboards -->
  <!-- Long corridor -->
  <rect x="30" y="10" width="40" height="80" fill="#5A4A3A" opacity="0.4" stroke="#4A3A2A" stroke-width="1"/>
  
  <!-- Creaky floorboards -->
  <g opacity="0.6">
    <line x1="32" y1="15" x2="68" y2="15" stroke="#3A2A1A" stroke-width="1"/>
    <line x1="32" y1="25" x2="68" y2="25" stroke="#3A2A1A" stroke-width="1"/>
    <line x1="32" y1="35" x2="68" y2="35" stroke="#3A2A1A" stroke-width="1"/>
    <line x1="32" y1="45" x2="68" y2="45" stroke="#3A2A1A" stroke-width="1"/>
    <line x1="32" y1="55" x2="68" y2="55" stroke="#3A2A1A" stroke-width="1"/>
    <line x1="32" y1="65" x2="68" y2="65" stroke="#3A2A1A" stroke-width="1"/>
    <line x1="32" y1="75" x2="68" y2="75" stroke="#3A2A1A" stroke-width="1"/>
    <line x1="32" y1="85" x2="68" y2="85" stroke="#3A2A1A" stroke-width="1"/>
  </g>
  
  <!-- Cracks in floor (creaky effect) -->
  <path d="M35,30 L40,35 M60,50 L65,55 M45,70 L50,75" stroke="#2A1A0A" stroke-width="1.5" opacity="0.5"/>
  
  <!-- Wall sconces -->
  <g filter="url(#softShadow)">
    <rect x="22" y="25" width="4" height="8" fill="#444"/>
    <circle cx="24" cy="23" r="2.5" fill="#FFD700" opacity="0.5"/>
    <rect x="74" y="25" width="4" height="8" fill="#444"/>
    <circle cx="76" cy="23" r="2.5" fill="#FFD700" opacity="0.5"/>
    
    <rect x="22" y="65" width="4" height="8" fill="#444"/>
    <circle cx="24" cy="63" r="2.5" fill="#FFD700" opacity="0.5"/>
    <rect x="74" y="65" width="4" height="8" fill="#444"/>
    <circle cx="76" cy="63" r="2.5" fill="#FFD700" opacity="0.5"/>
  </g>
  
  <!-- Door North -->
  <g filter="url(#softShadow)">
    <rect x="36" y="-4" width="28" height="16" fill="#1A0A00"/>
    <rect x="38" y="-2" width="24" height="14" fill="url(#doorWood)"/>
    <line x1="50" y1="-2" x2="50" y2="12" stroke="#2A1A0A" stroke-width="0.5"/>
    <line x1="38" y1="5" x2="62" y2="5" stroke="#2A1A0A" stroke-width="0.5"/>
    <rect x="38" y="-2" width="24" height="14" fill="none" stroke="url(#goldTrim)" stroke-width="1.5"/>
    <circle cx="55" cy="6" r="2.5" fill="url(#goldTrim)"/>
    <circle cx="55" cy="6" r="1.5" fill="#B8860B"/>
  </g>
  
  <!-- Door South -->
  <g filter="url(#softShadow)">
    <rect x="36" y="88" width="28" height="16" fill="#1A0A00"/>
    <rect x="38" y="90" width="24" height="14" fill="url(#doorWood)"/>
    <line x1="50" y1="90" x2="50" y2="104" stroke="#2A1A0A" stroke-width="0.5"/>
    <line x1="38" y1="97" x2="62" y2="97" stroke="#2A1A0A" stroke-width="0.5"/>
    <rect x="38" y="90" width="24" height="14" fill="none" stroke="url(#goldTrim)" stroke-width="1.5"/>
    <circle cx="55" cy="94" r="2.5" fill="url(#goldTrim)"/>
    <circle cx="55" cy="94" r="1.5" fill="#B8860B"/>
  </g>
  
  <!-- Door East -->
  <g filter="url(#softShadow)">
    <rect x="88" y="36" width="16" height="28" fill="#1A0A00"/>
    <rect x="90" y="38" width="12" height="24" fill="url(#doorWood)"/>
    <line x1="90" y1="50" x2="102" y2="50" stroke="#2A1A0A" stroke-width="0.5"/>
    <line x1="96" y1="38" x2="96" y2="62" stroke="#2A1A0A" stroke-width="0.5"/>
    <rect x="90" y="38" width="12" height="24" fill="none" stroke="url(#goldTrim)" stroke-width="1.5"/>
    <circle cx="96" cy="55" r="2.5" fill="url(#goldTrim)"/>
    <circle cx="96" cy="55" r="1.5" fill="#B8860B"/>
  </g>
  
  <!-- Door West -->
  <g filter="url(#softShadow)">
    <rect x="-4" y="36" width="16" height="28" fill="#1A0A00"/>
    <rect x="-2" y="38" width="12" height="24" fill="url(#doorWood)"/>
    <line x1="-2" y1="50" x2="10" y2="50" stroke="#2A1A0A" stroke-width="0.5"/>
    <line x1="4" y1="38" x2="4" y2="62" stroke="#2A1A0A" stroke-width="0.5"/>
    <rect x="-2" y="38" width="12" height="24" fill="none" stroke="url(#goldTrim)" stroke-width="1.5"/>
    <circle cx="4" cy="55" r="2.5" fill="url(#goldTrim)"/>
    <circle cx="4" cy="55" r="1.5" fill="#B8860B"/>
  </g>
</svg>