<svg xmlns="http://www.w3.org/2000/svg" viewBox="0 0 100 100" width="400" height="400">
  <defs>
    <linearGradient id="floorGrad" x1="0%" y1="0%" x2="100%" y2="100%">
      <stop offset="0%" style="stop-color:#8B7355"/>
      <stop offset="100%" style="stop-color:#5A4A3A"/>
    </linearGradient>
    <linearGradient id="doorWood" x1="0%" y1="0%" x2="100%" y2="0%">
      <stop offset="0%" style="stop-color:#6B4B2A"/>
      <stop offset="50%" style="stop-color:#8B6B4B"/>
      <stop offset="100%" style="stop-color:#4A2A0A"/>
    </linearGradient>
    <linearGradient id="goldTrim" x1="0%" y1="0%" x2="100%" y2="100%">
      <stop offset="0%" style="stop-color:#FFD700"/>
      <stop offset="50%" style="stop-color:#B8860B"/>
      <stop offset="100%" style="stop-color:#FFD700"/>
    </linearGradient>
    <filter id="softShadow" x="-50%" y="-50%" width="200%" height="200%">
      <feGaussianBlur in="SourceAlpha" stdDeviation="3"/>
      <feOffset dx="3" dy="3" result="offsetblur"/>
      <feComponentTransfer><feFuncA type="linear" slope="0.5"/></feComponentTransfer>
      <feMerge><feMergeNode/><feMergeNode in="SourceGraphic"/></feMerge>
    </filter>
  </defs>
  
  <!-- Floor -->
  <rect x="8" y="8" width="84" height="84" fill="url(#floorGrad)" stroke="#2A1A0A" stroke-width="2"/>
  
  <!-- INTERIOR: DINING ROOM - Large dining table with chairs -->
  <g filter="url(#softShadow)">
    <!-- Main table -->
    <rect x="18" y="35" width="64" height="32" fill="#8B4513" stroke="#654321" stroke-width="2" rx="3"/>
    <!-- Table top detail -->
    <rect x="20" y="37" width="60" height="4" fill="#A0522D" stroke="#8B4513" stroke-width="0.5"/>
    <!-- Table legs -->
    <line x1="24" y1="67" x2="24" y2="78" stroke="#654321" stroke-width="3"/>
    <line x1="76" y1="67" x2="76" y2="78" stroke="#654321" stroke-width="3"/>
    <line x1="35" y1="67" x2="35" y2="75" stroke="#654321" stroke-width="2"/>
    <line x1="65" y1="67" x2="65" y2="75" stroke="#654321" stroke-width="2"/>
  </g>
  
  <!-- Chairs -->
  <g filter="url(#softShadow)">
    <!-- Chair 1 -->
    <rect x="22" y="28" width="10" height="12" fill="#6B5344" stroke="#4A3324" stroke-width="1" rx="1"/>
    <rect x="24" y="30" width="6" height="6" fill="#8B4513"/>
    <!-- Chair 2 -->
    <rect x="45" y="26" width="10" height="12" fill="#6B5344" stroke="#4A3324" stroke-width="1" rx="1"/>
    <rect x="47" y="28" width="6" height="6" fill="#8B4513"/>
    <!-- Chair 3 -->
    <rect x="68" y="28" width="10" height="12" fill="#6B5344" stroke="#4A3324" stroke-width="1" rx="1"/>
    <rect x="70" y="30" width="6" height="6" fill="#8B4513"/>
    <!-- Chair 4 -->
    <rect x="22" y="70" width="10" height="12" fill="#6B5344" stroke="#4A3324" stroke-width="1" rx="1"/>
    <rect x="24" y="72" width="6" height="6" fill="#8B4513"/>
    <!-- Chair 5 -->
    <rect x="45" y="72" width="10" height="12" fill="#6B5344" stroke="#4A3324" stroke-width="1" rx="1"/>
    <rect x="47" y="74" width="6" height="6" fill="#8B4513"/>
    <!-- Chair 6 -->
    <rect x="68" y="70" width="10" height="12" fill="#6B5344" stroke="#4A3324" stroke-width="1" rx="1"/>
    <rect x="70" y="72" width="6" height="6" fill="#8B4513"/>
  </g>
  
  <!-- Plates and settings -->
  <circle cx="30" cy="48" r="4" fill="#FFF" stroke="#DDD" stroke-width="0.5"/>
  <circle cx="50" cy="48" r="4" fill="#FFF" stroke="#DDD" stroke-width="0.5"/>
  <circle cx="70" cy="48" r="4" fill="#FFF" stroke="#DDD" stroke-width="0.5"/>
  <circle cx="30" cy="56" r="3" fill="#FFF" stroke="#DDD" stroke-width="0.5"/>
  <circle cx="50" cy="56" r="3" fill="#FFF" stroke="#DDD" stroke-width="0.5"/>
  <circle cx="70" cy="56" r="3" fill="#FFF" stroke="#DDD" stroke-width="0.5"/>
  
  <!-- Sideboard -->
  <g filter="url(#softShadow)">
    <rect x="12" y="45" width="10" height="25" fill="#6B5344" stroke="#4A3324" stroke-width="1"/>
    <rect x="14" y="47" width="6" height="8" fill="#5A4324"/>
    <rect x="14" y="58" width="6" height="8" fill="#5A4324"/>
  </g>
  
  <!-- Door North -->
  <g filter="url(#softShadow)">
    <rect x="36" y="-4" width="28" height="16" fill="#1A0A00"/>
    <rect x="38" y="-2" width="24" height="14" fill="url(#doorWood)"/>
    <line x1="50" y1="-2" x2="50" y2="12" stroke="#2A1A0A" stroke-width="0.5"/>
    <line x1="38" y1="5" x2="62" y2="5" stroke="#2A1A0A" stroke-width="0.5"/>
    <rect x="38" y="-2" width="24" height="14" fill="none" stroke="url(#goldTrim)" stroke-width="1.5"/>
    <circle cx="55" cy="6" r="2.5" fill="url(#goldTrim)"/>
    <circle cx="55" cy="6" r="1.5" fill="#B8860B"/>
  </g>
  
  <!-- Door East -->
  <g filter="url(#softShadow)">
    <rect x="88" y="36" width="16" height="28" fill="#1A0A00"/>
    <rect x="90" y="38" width="12" height="24" fill="url(#doorWood)"/>
    <line x1="90" y1="50" x2="102" y2="50" stroke="#2A1A0A" stroke-width="0.5"/>
    <line x1="96" y1="38" x2="96" y2="62" stroke="#2A1A0A" stroke-width="0.5"/>
    <rect x="90" y="38" width="12" height="24" fill="none" stroke="url(#goldTrim)" stroke-width="1.5"/>
    <circle cx="96" cy="55" r="2.5" fill="url(#goldTrim)"/>
    <circle cx="96" cy="55" r="1.5" fill="#B8860B"/>
  </g>
  
  <!-- Symbol I -->
  <g filter="url(#softShadow)">
    <circle cx="85" cy="15" r="8" fill="#3D7AB8" stroke="#2D5A98" stroke-width="1"/>
    <circle cx="85" cy="15" r="6" fill="#5A9AD8" opacity="0.5"/>
    <text x="85" y="19" text-anchor="middle" font-size="11" fill="#FFF" font-weight="bold" font-family="serif">I</text>
  </g>
</svg>
