<svg xmlns="http://www.w3.org/2000/svg" viewBox="0 0 100 100" width="400" height="400">
  <defs>
    <linearGradient id="floorGrad" x1="0%" y1="0%" x2="100%" y2="100%">
      <stop offset="0%" style="stop-color:#7A6A5A"/>
      <stop offset="100%" style="stop-color:#5A4A3A"/>
    </linearGradient>
    <linearGradient id="doorWood" x1="0%" y1="0%" x2="100%" y2="0%">
      <stop offset="0%" style="stop-color:#4A2A0A"/>
      <stop offset="50%" style="stop-color:#6B4B2B"/>
      <stop offset="100%" style="stop-color:#3A1A00"/>
    </linearGradient>
    <linearGradient id="goldTrim" x1="0%" y1="0%" x2="100%" y2="100%">
      <stop offset="0%" style="stop-color:#FFD700"/>
      <stop offset="50%" style="stop-color:#B8860B"/>
      <stop offset="100%" style="stop-color:#FFD700"/>
    </linearGradient>
    <filter id="softShadow" x="-50%" y="-50%" width="200%" height="200%">
      <feGaussianBlur in="SourceAlpha" stdDeviation="3"/>
      <feOffset dx="3" dy="3" result="offsetblur"/>
      <feComponentTransfer><feFuncA type="linear" slope="0.5"/></feComponentTransfer>
      <feMerge><feMergeNode/><feMergeNode in="SourceGraphic"/></feMerge>
    </filter>
  </defs>
  
  <!-- Floor -->
  <rect x="8" y="8" width="84" height="84" fill="url(#floorGrad)" stroke="#2A1A0A" stroke-width="2"/>
  
  <!-- INTERIOR: Dusty Hallway - Dusty corridor with cobwebs -->
  <!-- Long corridor -->
  <rect x="30" y="10" width="40" height="80" fill="#6A5A4A" opacity="0.4" stroke="#5A4A3A" stroke-width="1"/>
  
  <!-- Dust overlay -->
  <rect x="10" y="10" width="80" height="80" fill="#8A8A7A" opacity="0.15"/>
  
  <!-- Cobwebs in corners -->
  <g opacity="0.4" stroke="#AAA" stroke-width="0.5" fill="none">
    <path d="M10,10 Q20,15 25,10 M10,10 Q15,20 10,25"/>
    <path d="M90,10 Q80,15 75,10 M90,10 Q85,20 90,25"/>
    <path d="M10,90 Q20,85 25,90 M10,90 Q15,80 10,75"/>
    <path d="M90,90 Q80,85 75,90 M90,90 Q85,80 90,75"/>
  </g>
  
  <!-- Dust particles -->
  <circle cx="25" cy="30" r="1.5" fill="#AAA" opacity="0.4"/>
  <circle cx="75" cy="45" r="2" fill="#AAA" opacity="0.3"/>
  <circle cx="40" cy="70" r="1" fill="#AAA" opacity="0.5"/>
  <circle cx="65" cy="25" r="1.5" fill="#AAA" opacity="0.4"/>
  <circle cx="55" cy="80" r="2" fill="#AAA" opacity="0.3"/>
  
  <!-- Wall sconces (dusty/dim) -->
  <g filter="url(#softShadow)">
    <rect x="22" y="25" width="4" height="8" fill="#444"/>
    <circle cx="24" cy="23" r="2.5" fill="#AA9966" opacity="0.3"/>
    <rect x="74" y="25" width="4" height="8" fill="#444"/>
    <circle cx="76" cy="23" r="2.5" fill="#AA9966" opacity="0.3"/>
    
    <rect x="22" y="65" width="4" height="8" fill="#444"/>
    <circle cx="24" cy="63" r="2.5" fill="#AA9966" opacity="0.3"/>
    <rect x="74" y="65" width="4" height="8" fill="#444"/>
    <circle cx="76" cy="63" r="2.5" fill="#AA9966" opacity="0.3"/>
  </g>
  
  <!-- Door North -->
  <g filter="url(#softShadow)">
    <rect x="36" y="-4" width="28" height="16" fill="#1A0A00"/>
    <rect x="38" y="-2" width="24" height="14" fill="url(#doorWood)"/>
    <line x1="50" y1="-2" x2="50" y2="12" stroke="#2A1A0A" stroke-width="0.5"/>
    <line x1="38" y1="5" x2="62" y2="5" stroke="#2A1A0A" stroke-width="0.5"/>
    <rect x="38" y="-2" width="24" height="14" fill="none" stroke="url(#goldTrim)" stroke-width="1.5"/>
    <circle cx="55" cy="6" r="2.5" fill="url(#goldTrim)"/>
    <circle cx="55" cy="6" r="1.5" fill="#B8860B"/>
  </g>
  
  <!-- Door South -->
  <g filter="url(#softShadow)">
    <rect x="36" y="88" width="28" height="16" fill="#1A0A00"/>
    <rect x="38" y="90" width="24" height="14" fill="url(#doorWood)"/>
    <line x1="50" y1="90" x2="50" y2="104" stroke="#2A1A0A" stroke-width="0.5"/>
    <line x1="38" y1="97" x2="62" y2="97" stroke="#2A1A0A" stroke-width="0.5"/>
    <rect x="38" y="90" width="24" height="14" fill="none" stroke="url(#goldTrim)" stroke-width="1.5"/>
    <circle cx="55" cy="94" r="2.5" fill="url(#goldTrim)"/>
    <circle cx="55" cy="94" r="1.5" fill="#B8860B"/>
  </g>
  
  <!-- Door East -->
  <g filter="url(#softShadow)">
    <rect x="88" y="36" width="16" height="28" fill="#1A0A00"/>
    <rect x="90" y="38" width="12" height="24" fill="url(#doorWood)"/>
    <line x1="90" y1="50" x2="102" y2="50" stroke="#2A1A0A" stroke-width="0.5"/>
    <line x1="96" y1="38" x2="96" y2="62" stroke="#2A1A0A" stroke-width="0.5"/>
    <rect x="90" y="38" width="12" height="24" fill="none" stroke="url(#goldTrim)" stroke-width="1.5"/>
    <circle cx="96" cy="55" r="2.5" fill="url(#goldTrim)"/>
    <circle cx="96" cy="55" r="1.5" fill="#B8860B"/>
  </g>
  
  <!-- Door West -->
  <g filter="url(#softShadow)">
    <rect x="-4" y="36" width="16" height="28" fill="#1A0A00"/>
    <rect x="-2" y="38" width="12" height="24" fill="url(#doorWood)"/>
    <line x1="-2" y1="50" x2="10" y2="50" stroke="#2A1A0A" stroke-width="0.5"/>
    <line x1="4" y1="38" x2="4" y2="62" stroke="#2A1A0A" stroke-width="0.5"/>
    <rect x="-2" y="38" width="12" height="24" fill="none" stroke="url(#goldTrim)" stroke-width="1.5"/>
    <circle cx="4" cy="55" r="2.5" fill="url(#goldTrim)"/>
    <circle cx="4" cy="55" r="1.5" fill="#B8860B"/>
  </g>
</svg>