<svg xmlns="http://www.w3.org/2000/svg" viewBox="0 0 100 100" width="400" height="400">
  <defs>
    <linearGradient id="floorGrad" x1="0%" y1="0%" x2="100%" y2="100%">
      <stop offset="0%" style="stop-color:#5A5A5A"/>
      <stop offset="100%" style="stop-color:#3A3A3A"/>
    </linearGradient>
    <linearGradient id="doorWood" x1="0%" y1="0%" x2="100%" y2="0%">
      <stop offset="0%" style="stop-color:#4A2A0A"/>
      <stop offset="50%" style="stop-color:#6B4B2B"/>
      <stop offset="100%" style="stop-color:#3A1A00"/>
    </linearGradient>
    <linearGradient id="goldTrim" x1="0%" y1="0%" x2="100%" y2="100%">
      <stop offset="0%" style="stop-color:#FFD700"/>
      <stop offset="50%" style="stop-color:#B8860B"/>
      <stop offset="100%" style="stop-color:#FFD700"/>
    </linearGradient>
    <filter id="softShadow" x="-50%" y="-50%" width="200%" height="200%">
      <feGaussianBlur in="SourceAlpha" stdDeviation="3"/>
      <feOffset dx="3" dy="3" result="offsetblur"/>
      <feComponentTransfer><feFuncA type="linear" slope="0.5"/></feComponentTransfer>
      <feMerge><feMergeNode/><feMergeNode in="SourceGraphic"/></feMerge>
    </filter>
    <filter id="glow">
      <feGaussianBlur in="SourceGraphic" stdDeviation="4" result="blur"/>
      <feMerge><feMergeNode in="blur"/><feMergeNode in="SourceGraphic"/></feMerge>
    </filter>
  </defs>
  
  <rect x="8" y="8" width="84" height="84" fill="url(#floorGrad)" stroke="#1A0A00" stroke-width="2"/>
  
  <!-- Furnace glow -->
  <circle cx="50" cy="52" r="28" fill="#FF4500" opacity="0.3" filter="url(#glow)"/>
  
  <!-- Large furnace -->
  <g filter="url(#softShadow)">
    <rect x="32" y="25" width="36" height="52" fill="#4A4A4A" stroke="#333" stroke-width="3" rx="3"/>
    <!-- Fire doors -->
    <rect x="36" y="32" width="28" height="18" fill="#FF6B35" opacity="0.7" stroke="#8B0000" stroke-width="1"/>
    <rect x="36" y="54" width="28" height="16" fill="#FF4500" opacity="0.6" stroke="#8B0000" stroke-width="1"/>
    <!-- Door handles -->
    <circle cx="42" cy="41" r="2" fill="#444"/>
    <circle cx="58" cy="41" r="2" fill="#444"/>
    <circle cx="42" cy="62" r="2" fill="#444"/>
    <circle cx="58" cy="62" r="2" fill="#444"/>
  </g>
  
  <!-- Coal pile -->
  <g filter="url(#softShadow)">
    <ellipse cx="25" cy="75" rx="12" ry="6" fill="#1A1A1A"/>
    <ellipse cx="28" cy="72" rx="8" ry="4" fill="#222"/>
    <ellipse cx="22" cy="70" rx="5" ry="3" fill="#333"/>
  </g>
  
  <!-- Tools -->
  <line x1="75" y1="50" x2="82" y2="75" stroke="#666" stroke-width="3"/>
  <rect x="78" y="72" width="8" height="6" fill="#555" transform="rotate(15 82 75)"/>
  
  <!-- Vent pipe -->
  <rect x="46" y="8" width="8" height="18" fill="#555" stroke="#333" stroke-width="1"/>
  <ellipse cx="50" cy="26" r="6" fill="#666" opacity="0.5"/>
  
  <!-- Door North -->
  <g filter="url(#softShadow)">
    <rect x="36" y="-4" width="28" height="16" fill="#1A0A00"/>
    <rect x="38" y="-2" width="24" height="14" fill="url(#doorWood)"/>
    <line x1="50" y1="-2" x2="50" y2="12" stroke="#2A1A0A" stroke-width="0.5"/>
    <line x1="38" y1="5" x2="62" y2="5" stroke="#2A1A0A" stroke-width="0.5"/>
    <rect x="38" y="-2" width="24" height="14" fill="none" stroke="url(#goldTrim)" stroke-width="1.5"/>
    <circle cx="55" cy="6" r="2.5" fill="url(#goldTrim)"/>
    <circle cx="55" cy="6" r="1.5" fill="#B8860B"/>
  </g>
  
  <!-- Door South -->
  <g filter="url(#softShadow)">
    <rect x="36" y="88" width="28" height="16" fill="#1A0A00"/>
    <rect x="38" y="90" width="24" height="14" fill="url(#doorWood)"/>
    <line x1="50" y1="90" x2="50" y2="104" stroke="#2A1A0A" stroke-width="0.5"/>
    <line x1="38" y1="97" x2="62" y2="97" stroke="#2A1A0A" stroke-width="0.5"/>
    <rect x="38" y="90" width="24" height="14" fill="none" stroke="url(#goldTrim)" stroke-width="1.5"/>
    <circle cx="55" cy="96" r="2.5" fill="url(#goldTrim)"/>
    <circle cx="55" cy="96" r="1.5" fill="#B8860B"/>
  </g>
  
  <!-- Door West -->
  <g filter="url(#softShadow)">
    <rect x="-4" y="36" width="16" height="28" fill="#1A0A00"/>
    <rect x="-2" y="38" width="12" height="24" fill="url(#doorWood)"/>
    <line x1="-2" y1="50" x2="10" y2="50" stroke="#2A1A0A" stroke-width="0.5"/>
    <line x1="4" y1="38" x2="4" y2="62" stroke="#2A1A0A" stroke-width="0.5"/>
    <rect x="-2" y="38" width="12" height="24" fill="none" stroke="url(#goldTrim)" stroke-width="1.5"/>
    <circle cx="4" cy="55" r="2.5" fill="url(#goldTrim)"/>
    <circle cx="4" cy="55" r="1.5" fill="#B8860B"/>
  </g>
  
  <!-- Symbol O -->
  <g filter="url(#softShadow)">
    <circle cx="85" cy="15" r="8" fill="#8B4DA8" stroke="#6B2D88" stroke-width="1"/>
    <circle cx="85" cy="15" r="6" fill="#AB6DC8" opacity="0.5"/>
    <text x="85" y="19" text-anchor="middle" font-size="11" fill="#FFF" font-weight="bold" font-family="serif">O</text>
  </g>
  
  <!-- Physical damage indicator - fist/heart icon -->
  <g transform="translate(82, 82)">
    <path d="M6,2 Q10,2 10,6 Q10,10 6,12 Q2,10 2,6 Q2,2 6,2" fill="#DC143C" stroke="#8B0000" stroke-width="1"/>
    <line x1="6" y1="6" x2="6" y2="9" stroke="#8B0000" stroke-width="1"/>
  </g>
</svg>
