<svg xmlns="http://www.w3.org/2000/svg" viewBox="0 0 100 100" width="400" height="400">
  <defs>
    <linearGradient id="floorGrad" x1="0%" y1="0%" x2="100%" y2="100%">
      <stop offset="0%" style="stop-color:#8B7355"/>
      <stop offset="100%" style="stop-color:#5A4A3A"/>
    </linearGradient>
    <linearGradient id="doorWood" x1="0%" y1="0%" x2="100%" y2="0%">
      <stop offset="0%" style="stop-color:#6B4B2A"/>
      <stop offset="50%" style="stop-color:#8B6B4B"/>
      <stop offset="100%" style="stop-color:#4A2A0A"/>
    </linearGradient>
    <linearGradient id="goldTrim" x1="0%" y1="0%" x2="100%" y2="100%">
      <stop offset="0%" style="stop-color:#FFD700"/>
      <stop offset="50%" style="stop-color:#B8860B"/>
      <stop offset="100%" style="stop-color:#FFD700"/>
    </linearGradient>
    <filter id="softShadow" x="-50%" y="-50%" width="200%" height="200%">
      <feGaussianBlur in="SourceAlpha" stdDeviation="3"/>
      <feOffset dx="3" dy="3" result="offsetblur"/>
      <feComponentTransfer><feFuncA type="linear" slope="0.5"/></feComponentTransfer>
      <feMerge><feMergeNode/><feMergeNode in="SourceGraphic"/></feMerge>
    </filter>
    <filter id="glow">
      <feGaussianBlur in="SourceGraphic" stdDeviation="3" result="blur"/>
      <feMerge><feMergeNode in="blur"/><feMergeNode in="SourceGraphic"/></feMerge>
    </filter>
  </defs>
  
  <rect x="8" y="8" width="84" height="84" fill="url(#floorGrad)" stroke="#2A1A0A" stroke-width="2"/>
  
  <!-- Mystic elevator cage -->
  <g filter="url(#softShadow)">
    <rect x="28" y="22" width="44" height="56" fill="#4A4A6A" stroke="#3A3A5A" stroke-width="3" rx="4"/>
    <!-- Cage bars -->
    <line x1="38" y1="22" x2="38" y2="78" stroke="#3A3A5A" stroke-width="2"/>
    <line x1="50" y1="22" x2="50" y2="78" stroke="#3A3A5A" stroke-width="2"/>
    <line x1="62" y1="22" x2="62" y2="78" stroke="#3A3A5A" stroke-width="2"/>
    <!-- Horizontal bars -->
    <line x1="28" y1="35" x2="72" y2="35" stroke="#3A3A5A" stroke-width="1"/>
    <line x1="28" y1="50" x2="72" y2="50" stroke="#3A3A5A" stroke-width="1"/>
    <line x1="28" y1="65" x2="72" y2="65" stroke="#3A3A5A" stroke-width="1"/>
  </g>
  
  <!-- Glowing crystal -->
  <g filter="url(#glow)">
    <circle cx="50" cy="50" r="10" fill="#87CEEB" opacity="0.6"/>
    <circle cx="50" cy="50" r="6" fill="#FFF" opacity="0.8"/>
    <circle cx="50" cy="50" r="15" fill="#87CEEB" opacity="0.2"/>
  </g>
  
  <!-- Control panel -->
  <rect x="32" y="28" width="10" height="8" fill="#5A5A6A" stroke="#4A4A5A" stroke-width="1"/>
  <circle cx="35" cy="32" r="1.5" fill="#FF6B35" opacity="0.8"/>
  <circle cx="39" cy="32" r="1.5" fill="#4ECDC4" opacity="0.8"/>
  
  <!-- Door North -->
  <g filter="url(#softShadow)">
    <rect x="36" y="-4" width="28" height="16" fill="#1A0A00"/>
    <rect x="38" y="-2" width="24" height="14" fill="url(#doorWood)"/>
    <line x1="50" y1="-2" x2="50" y2="12" stroke="#2A1A0A" stroke-width="0.5"/>
    <line x1="38" y1="5" x2="62" y2="5" stroke="#2A1A0A" stroke-width="0.5"/>
    <rect x="38" y="-2" width="24" height="14" fill="none" stroke="url(#goldTrim)" stroke-width="1.5"/>
    <circle cx="55" cy="6" r="2.5" fill="url(#goldTrim)"/>
    <circle cx="55" cy="6" r="1.5" fill="#B8860B"/>
  </g>
</svg>
