<svg xmlns="http://www.w3.org/2000/svg" viewBox="0 0 100 100" width="400" height="400">
  <defs>
    <linearGradient id="floorGrad" x1="0%" y1="0%" x2="100%" y2="100%">
      <stop offset="0%" style="stop-color:#8B7355"/>
      <stop offset="100%" style="stop-color:#5A4A3A"/>
    </linearGradient>
    <linearGradient id="doorWood" x1="0%" y1="0%" x2="100%" y2="0%">
      <stop offset="0%" style="stop-color:#6B4B2A"/>
      <stop offset="50%" style="stop-color:#8B6B4B"/>
      <stop offset="100%" style="stop-color:#4A2A0A"/>
    </linearGradient>
    <linearGradient id="goldTrim" x1="0%" y1="0%" x2="100%" y2="100%">
      <stop offset="0%" style="stop-color:#FFD700"/>
      <stop offset="50%" style="stop-color:#B8860B"/>
      <stop offset="100%" style="stop-color:#FFD700"/>
    </linearGradient>
    <filter id="softShadow" x="-50%" y="-50%" width="200%" height="200%">
      <feGaussianBlur in="SourceAlpha" stdDeviation="3"/>
      <feOffset dx="3" dy="3" result="offsetblur"/>
      <feComponentTransfer><feFuncA type="linear" slope="0.5"/></feComponentTransfer>
      <feMerge><feMergeNode/><feMergeNode in="SourceGraphic"/></feMerge>
    </filter>
  </defs>
  
  <rect x="8" y="8" width="84" height="84" fill="url(#floorGrad)" stroke="#2A1A0A" stroke-width="2"/>
  
  <!-- Patio tiles -->
  <rect x="18" y="55" width="64" height="30" fill="#9B8B7B" stroke="#7B6B5B" stroke-width="1"/>
  <line x1="18" y1="65" x2="82" y2="65" stroke="#7B6B5B" stroke-width="0.5"/>
  <line x1="18" y1="75" x2="82" y2="75" stroke="#7B6B5B" stroke-width="0.5"/>
  <line x1="35" y1="55" x2="35" y2="85" stroke="#7B6B5B" stroke-width="0.5"/>
  <line x1="52" y1="55" x2="52" y2="85" stroke="#7B6B5B" stroke-width="0.5"/>
  <line x1="69" y1="55" x2="69" y2="85" stroke="#7B6B5B" stroke-width="0.5"/>
  
  <!-- Large potted plant left -->
  <g filter="url(#softShadow)">
    <ellipse cx="30" cy="45" rx="12" ry="15" fill="#2F5F2F" stroke="#1F4F1F" stroke-width="1"/>
    <circle cx="26" cy="40" r="5" fill="#3F7F3F"/>
    <circle cx="34" cy="42" r="4" fill="#3F7F3F"/>
    <circle cx="30" cy="50" r="4" fill="#3F7F3F"/>
    <!-- Pot -->
    <rect x="24" y="58" width="12" height="10" fill="#8B4513" stroke="#654321" stroke-width="1"/>
  </g>
  
  <!-- Large potted plant right -->
  <g filter="url(#softShadow)">
    <ellipse cx="70" cy="45" rx="12" ry="15" fill="#2F5F2F" stroke="#1F4F1F" stroke-width="1"/>
    <circle cx="66" cy="40" r="5" fill="#3F7F3F"/>
    <circle cx="74" cy="42" r="4" fill="#3F7F3F"/>
    <circle cx="70" cy="50" r="4" fill="#3F7F3F"/>
    <!-- Pot -->
    <rect x="64" y="58" width="12" height="10" fill="#8B4513" stroke="#654321" stroke-width="1"/>
  </g>
  
  <!-- Outdoor table -->
  <g filter="url(#softShadow)">
    <rect x="42" y="62" width="16" height="12" fill="#6B5344" stroke="#4A3324" stroke-width="1" rx="1"/>
    <line x1="46" y1="74" x2="46" y2="82" stroke="#4A3324" stroke-width="2"/>
    <line x1="54" y1="74" x2="54" y2="82" stroke="#4A3324" stroke-width="2"/>
  </g>
  
  <!-- Door North -->
  <g filter="url(#softShadow)">
    <rect x="36" y="-4" width="28" height="16" fill="#1A0A00"/>
    <rect x="38" y="-2" width="24" height="14" fill="url(#doorWood)"/>
    <line x1="50" y1="-2" x2="50" y2="12" stroke="#2A1A0A" stroke-width="0.5"/>
    <line x1="38" y1="5" x2="62" y2="5" stroke="#2A1A0A" stroke-width="0.5"/>
    <rect x="38" y="-2" width="24" height="14" fill="none" stroke="url(#goldTrim)" stroke-width="1.5"/>
    <circle cx="55" cy="6" r="2.5" fill="url(#goldTrim)"/>
    <circle cx="55" cy="6" r="1.5" fill="#B8860B"/>
  </g>
  
  <!-- Door South -->
  <g filter="url(#softShadow)">
    <rect x="36" y="88" width="28" height="16" fill="#1A0A00"/>
    <rect x="38" y="90" width="24" height="14" fill="url(#doorWood)"/>
    <line x1="50" y1="90" x2="50" y2="104" stroke="#2A1A0A" stroke-width="0.5"/>
    <line x1="38" y1="97" x2="62" y2="97" stroke="#2A1A0A" stroke-width="0.5"/>
    <rect x="38" y="90" width="24" height="14" fill="none" stroke="url(#goldTrim)" stroke-width="1.5"/>
    <circle cx="55" cy="94" r="2.5" fill="url(#goldTrim)"/>
    <circle cx="55" cy="94" r="1.5" fill="#B8860B"/>
  </g>
  
  <!-- Door West -->
  <g filter="url(#softShadow)">
    <rect x="-4" y="36" width="16" height="28" fill="#1A0A00"/>
    <rect x="-2" y="38" width="12" height="24" fill="url(#doorWood)"/>
    <line x1="-2" y1="50" x2="10" y2="50" stroke="#2A1A0A" stroke-width="0.5"/>
    <line x1="4" y1="38" x2="4" y2="62" stroke="#2A1A0A" stroke-width="0.5"/>
    <rect x="-2" y="38" width="12" height="24" fill="none" stroke="url(#goldTrim)" stroke-width="1.5"/>
    <circle cx="4" cy="55" r="2.5" fill="url(#goldTrim)"/>
    <circle cx="4" cy="55" r="1.5" fill="#B8860B"/>
  </g>
  
  <!-- Symbol E -->
  <g filter="url(#softShadow)">
    <circle cx="85" cy="15" r="8" fill="#4A9A4A" stroke="#3A8A3A" stroke-width="1"/>
    <circle cx="85" cy="15" r="6" fill="#6ABA6A" opacity="0.5"/>
    <text x="85" y="19" text-anchor="middle" font-size="11" fill="#FFF" font-weight="bold" font-family="serif">E</text>
  </g>
</svg>
