<svg xmlns="http://www.w3.org/2000/svg" viewBox="0 0 100 100" width="400" height="400">
  <defs>
    <linearGradient id="floorGrad" x1="0%" y1="0%" x2="100%" y2="100%">
      <stop offset="0%" style="stop-color:#8B7355"/>
      <stop offset="100%" style="stop-color:#5A4A3A"/>
    </linearGradient>
    <linearGradient id="doorWood" x1="0%" y1="0%" x2="100%" y2="0%">
      <stop offset="0%" style="stop-color:#6B4B2A"/>
      <stop offset="50%" style="stop-color:#8B6B4B"/>
      <stop offset="100%" style="stop-color:#4A2A0A"/>
    </linearGradient>
    <linearGradient id="goldTrim" x1="0%" y1="0%" x2="100%" y2="100%">
      <stop offset="0%" style="stop-color:#FFD700"/>
      <stop offset="50%" style="stop-color:#B8860B"/>
      <stop offset="100%" style="stop-color:#FFD700"/>
    </linearGradient>
    <filter id="softShadow" x="-50%" y="-50%" width="200%" height="200%">
      <feGaussianBlur in="SourceAlpha" stdDeviation="3"/>
      <feOffset dx="3" dy="3" result="offsetblur"/>
      <feComponentTransfer><feFuncA type="linear" slope="0.5"/></feComponentTransfer>
      <feMerge><feMergeNode/><feMergeNode in="SourceGraphic"/></feMerge>
    </filter>
  </defs>
  
  <rect x="8" y="8" width="84" height="84" fill="url(#floorGrad)" stroke="#2A1A0A" stroke-width="2"/>
  
  <!-- Stairs going up/down -->
  <g filter="url(#softShadow)">
    <rect x="30" y="20" width="40" height="60" fill="#5A4A3A" stroke="#4A3A2A" stroke-width="1"/>
    <!-- Steps -->
    <line x1="30" y1="32" x2="70" y2="32" stroke="#4A3A2A" stroke-width="1"/>
    <line x1="30" y1="44" x2="70" y2="44" stroke="#4A3A2A" stroke-width="1"/>
    <line x1="30" y1="56" x2="70" y2="56" stroke="#4A3A2A" stroke-width="1"/>
    <line x1="30" y1="68" x2="70" y2="68" stroke="#4A3A2A" stroke-width="1"/>
  </g>
  
  <!-- Railing -->
  <g filter="url(#softShadow)">
    <line x1="25" y1="25" x2="25" y2="75" stroke="#666" stroke-width="3"/>
    <line x1="20" y1="35" x2="30" y2="35" stroke="#666" stroke-width="2"/>
    <line x1="20" y1="50" x2="30" y2="50" stroke="#666" stroke-width="2"/>
    <line x1="20" y1="65" x2="30" y2="65" stroke="#666" stroke-width="2"/>
    
    <line x1="75" y1="25" x2="75" y2="75" stroke="#666" stroke-width="3"/>
    <line x1="70" y1="35" x2="80" y2="35" stroke="#666" stroke-width="2"/>
    <line x1="70" y1="50" x2="80" y2="50" stroke="#666" stroke-width="2"/>
    <line x1="70" y1="65" x2="80" y2="65" stroke="#666" stroke-width="2"/>
  </g>
  
  <!-- Up/Down arrows -->
  <text x="35" y="18" font-size="10" fill="#4A9A4A" font-weight="bold">↑</text>
  <text x="58" y="90" font-size="10" fill="#8B4DA8" font-weight="bold">↓</text>
  
  <!-- Door North -->
  <g filter="url(#softShadow)">
    <rect x="36" y="-4" width="28" height="16" fill="#1A0A00"/>
    <rect x="38" y="-2" width="24" height="14" fill="url(#doorWood)"/>
    <line x1="50" y1="-2" x2="50" y2="12" stroke="#2A1A0A" stroke-width="0.5"/>
    <line x1="38" y1="5" x2="62" y2="5" stroke="#2A1A0A" stroke-width="0.5"/>
    <rect x="38" y="-2" width="24" height="14" fill="none" stroke="url(#goldTrim)" stroke-width="1.5"/>
    <circle cx="55" cy="6" r="2.5" fill="url(#goldTrim)"/>
    <circle cx="55" cy="6" r="1.5" fill="#B8860B"/>
  </g>
</svg>
