<svg xmlns="http://www.w3.org/2000/svg" viewBox="0 0 100 100" width="400" height="400">
  <defs>
    <linearGradient id="floorGrad" x1="0%" y1="0%" x2="100%" y2="100%">
      <stop offset="0%" style="stop-color:#5A5A6A"/>
      <stop offset="100%" style="stop-color:#3A3A4A"/>
    </linearGradient>
    <linearGradient id="doorWood" x1="0%" y1="0%" x2="100%" y2="0%">
      <stop offset="0%" style="stop-color:#4A2A0A"/>
      <stop offset="50%" style="stop-color:#6B4B2B"/>
      <stop offset="100%" style="stop-color:#3A1A00"/>
    </linearGradient>
    <linearGradient id="goldTrim" x1="0%" y1="0%" x2="100%" y2="100%">
      <stop offset="0%" style="stop-color:#FFD700"/>
      <stop offset="50%" style="stop-color:#B8860B"/>
      <stop offset="100%" style="stop-color:#FFD700"/>
    </linearGradient>
    <filter id="softShadow" x="-50%" y="-50%" width="200%" height="200%">
      <feGaussianBlur in="SourceAlpha" stdDeviation="3"/>
      <feOffset dx="3" dy="3" result="offsetblur"/>
      <feComponentTransfer><feFuncA type="linear" slope="0.5"/></feComponentTransfer>
      <feMerge><feMergeNode/><feMergeNode in="SourceGraphic"/></feMerge>
    </filter>
  </defs>
  
  <!-- Floor -->
  <rect x="8" y="8" width="84" height="84" fill="url(#floorGrad)" stroke="#2A2A3A" stroke-width="2"/>
  
  <!-- INTERIOR: Statuary Corridor - Corridor with statues -->
  <!-- Long corridor -->
  <rect x="35" y="10" width="30" height="80" fill="#4A4A5A" opacity="0.4" stroke="#3A3A4A" stroke-width="1"/>
  
  <!-- Statues on pedestals -->
  <g filter="url(#softShadow)">
    <!-- Statue 1 (North) -->
    <rect x="22" y="18" width="10" height="8" fill="#5A5A5A" stroke="#3A3A3A"/>
    <circle cx="27" cy="14" r="5" fill="#6A6A6A" stroke="#4A4A4A"/>
    <rect x="25" y="18" width="4" height="6" fill="#6A6A6A"/>
    
    <!-- Statue 2 (South) -->
    <rect x="68" y="74" width="10" height="8" fill="#5A5A5A" stroke="#3A3A3A"/>
    <circle cx="73" cy="70" r="5" fill="#6A6A6A" stroke="#4A4A4A"/>
    <rect x="71" y="74" width="4" height="6" fill="#6A6A6A"/>
  </g>
  
  <!-- Wall sconces -->
  <g filter="url(#softShadow)">
    <rect x="22" y="45" width="4" height="8" fill="#444"/>
    <circle cx="24" cy="43" r="2.5" fill="#FFD700" opacity="0.6"/>
    <rect x="74" y="45" width="4" height="8" fill="#444"/>
    <circle cx="76" cy="43" r="2.5" fill="#FFD700" opacity="0.6"/>
  </g>
  
  <!-- Door North -->
  <g filter="url(#softShadow)">
    <rect x="36" y="-4" width="28" height="16" fill="#1A0A00"/>
    <rect x="38" y="-2" width="24" height="14" fill="url(#doorWood)"/>
    <line x1="50" y1="-2" x2="50" y2="12" stroke="#2A1A0A" stroke-width="0.5"/>
    <line x1="38" y1="5" x2="62" y2="5" stroke="#2A1A0A" stroke-width="0.5"/>
    <rect x="38" y="-2" width="24" height="14" fill="none" stroke="url(#goldTrim)" stroke-width="1.5"/>
    <circle cx="55" cy="6" r="2.5" fill="url(#goldTrim)"/>
    <circle cx="55" cy="6" r="1.5" fill="#B8860B"/>
  </g>
  
  <!-- Door South -->
  <g filter="url(#softShadow)">
    <rect x="36" y="88" width="28" height="16" fill="#1A0A00"/>
    <rect x="38" y="90" width="24" height="14" fill="url(#doorWood)"/>
    <line x1="50" y1="90" x2="50" y2="104" stroke="#2A1A0A" stroke-width="0.5"/>
    <line x1="38" y1="97" x2="62" y2="97" stroke="#2A1A0A" stroke-width="0.5"/>
    <rect x="38" y="90" width="24" height="14" fill="none" stroke="url(#goldTrim)" stroke-width="1.5"/>
    <circle cx="55" cy="94" r="2.5" fill="url(#goldTrim)"/>
    <circle cx="55" cy="94" r="1.5" fill="#B8860B"/>
  </g>
  
  <!-- Symbol E -->
  <g filter="url(#softShadow)">
    <circle cx="85" cy="15" r="8" fill="#4A9A4A" stroke="#2A7A2A" stroke-width="1"/>
    <circle cx="85" cy="15" r="6" fill="#5ABA5A" opacity="0.5"/>
    <text x="85" y="19" text-anchor="middle" font-size="11" fill="#FFF" font-weight="bold" font-family="serif">E</text>
  </g>
</svg>