<svg xmlns="http://www.w3.org/2000/svg" viewBox="0 0 100 100" width="400" height="400">
  <defs>
    <linearGradient id="floorGrad" x1="0%" y1="0%" x2="100%" y2="100%">
      <stop offset="0%" style="stop-color:#8B7355"/>
      <stop offset="100%" style="stop-color:#5A4A3A"/>
    </linearGradient>
    <linearGradient id="doorWood" x1="0%" y1="0%" x2="100%" y2="0%">
      <stop offset="0%" style="stop-color:#6B4B2A"/>
      <stop offset="50%" style="stop-color:#8B6B4B"/>
      <stop offset="100%" style="stop-color:#4A2A0A"/>
    </linearGradient>
    <linearGradient id="goldTrim" x1="0%" y1="0%" x2="100%" y2="100%">
      <stop offset="0%" style="stop-color:#FFD700"/>
      <stop offset="50%" style="stop-color:#B8860B"/>
      <stop offset="100%" style="stop-color:#FFD700"/>
    </linearGradient>
    <filter id="softShadow" x="-50%" y="-50%" width="200%" height="200%">
      <feGaussianBlur in="SourceAlpha" stdDeviation="3"/>
      <feOffset dx="3" dy="3" result="offsetblur"/>
      <feComponentTransfer><feFuncA type="linear" slope="0.5"/></feComponentTransfer>
      <feMerge><feMergeNode/><feMergeNode in="SourceGraphic"/></feMerge>
    </filter>
  </defs>
  
  <rect x="8" y="8" width="84" height="84" fill="url(#floorGrad)" stroke="#2A1A0A" stroke-width="2"/>
  
  <!-- Large desk -->
  <g filter="url(#softShadow)">
    <rect x="20" y="45" width="45" height="20" fill="#6B5344" stroke="#4A3324" stroke-width="2" rx="1"/>
    <rect x="22" y="42" width="41" height="5" fill="#7B6354"/>
  </g>
  
  <!-- Desk chair -->
  <g filter="url(#softShadow)">
    <rect x="30" y="65" width="18" height="15" fill="#5A4A3A" stroke="#4A3A2A" stroke-width="1" rx="2"/>
    <rect x="32" y="62" width="14" height="6" fill="#6B5B4B"/>
  </g>
  
  <!-- Bookshelf -->
  <g filter="url(#softShadow)">
    <rect x="70" y="25" width="18" height="55" fill="#4A3728" stroke="#2A1708" stroke-width="2"/>
    <line x1="70" y1="38" x2="88" y2="38" stroke="#2A1708" stroke-width="1"/>
    <line x1="70" y1="50" x2="88" y2="50" stroke="#2A1708" stroke-width="1"/>
    <line x1="70" y1="62" x2="88" y2="62" stroke="#2A1708" stroke-width="1"/>
    <!-- Books -->
    <rect x="72" y="28" width="3" height="10" fill="#8B0000" opacity="0.7"/>
    <rect x="76" y="28" width="2" height="10" fill="#006400" opacity="0.7"/>
    <rect x="80" y="40" width="3" height="10" fill="#00008B" opacity="0.7"/>
  </g>
  
  <!-- Door North -->
  <g filter="url(#softShadow)">
    <rect x="36" y="-4" width="28" height="16" fill="#1A0A00"/>
    <rect x="38" y="-2" width="24" height="14" fill="url(#doorWood)"/>
    <line x1="50" y1="-2" x2="50" y2="12" stroke="#2A1A0A" stroke-width="0.5"/>
    <line x1="38" y1="5" x2="62" y2="5" stroke="#2A1A0A" stroke-width="0.5"/>
    <rect x="38" y="-2" width="24" height="14" fill="none" stroke="url(#goldTrim)" stroke-width="1.5"/>
    <circle cx="55" cy="6" r="2.5" fill="url(#goldTrim)"/>
    <circle cx="55" cy="6" r="1.5" fill="#B8860B"/>
  </g>
</svg>
