<svg xmlns="http://www.w3.org/2000/svg" viewBox="0 0 100 100" width="400" height="400">
  <defs>
    <linearGradient id="floorGrad" x1="0%" y1="0%" x2="100%" y2="100%">
      <stop offset="0%" style="stop-color:#7B6B5B"/>
      <stop offset="100%" style="stop-color:#4B3B2B"/>
    </linearGradient>
    <linearGradient id="doorWood" x1="0%" y1="0%" x2="100%" y2="0%">
      <stop offset="0%" style="stop-color:#5A3A2A"/>
      <stop offset="50%" style="stop-color:#7B5B4B"/>
      <stop offset="100%" style="stop-color:#3A1A0A"/>
    </linearGradient>
    <linearGradient id="goldTrim" x1="0%" y1="0%" x2="100%" y2="100%">
      <stop offset="0%" style="stop-color:#FFD700"/>
      <stop offset="50%" style="stop-color:#B8860B"/>
      <stop offset="100%" style="stop-color:#FFD700"/>
    </linearGradient>
    <filter id="softShadow" x="-50%" y="-50%" width="200%" height="200%">
      <feGaussianBlur in="SourceAlpha" stdDeviation="3"/>
      <feOffset dx="3" dy="3" result="offsetblur"/>
      <feComponentTransfer><feFuncA type="linear" slope="0.5"/></feComponentTransfer>
      <feMerge><feMergeNode/><feMergeNode in="SourceGraphic"/></feMerge>
    </filter>
  </defs>
  
  <rect x="8" y="8" width="84" height="84" fill="url(#floorGrad)" stroke="#1A0A00" stroke-width="2"/>
  
  <!-- Long corridor feel -->
  <rect x="32" y="12" width="36" height="76" fill="#6B5B4B" opacity="0.3" stroke="#5A4A3A" stroke-width="1"/>
  
  <!-- Runner carpet -->
  <rect x="38" y="15" width="24" height="70" fill="#8B0000" opacity="0.4"/>
  <line x1="40" y1="15" x2="40" y2="85" stroke="#A52A2A" stroke-width="0.5" opacity="0.5"/>
  <line x1="60" y1="15" x2="60" y2="85" stroke="#A52A2A" stroke-width="0.5" opacity="0.5"/>
  
  <!-- Wall sconces -->
  <g filter="url(#softShadow)">
    <rect x="25" y="25" width="4" height="8" fill="#444"/>
    <circle cx="27" cy="23" r="3" fill="#FFD700" opacity="0.6"/>
    
    <rect x="71" y="25" width="4" height="8" fill="#444"/>
    <circle cx="73" cy="23" r="3" fill="#FFD700" opacity="0.6"/>
    
    <rect x="25" y="65" width="4" height="8" fill="#444"/>
    <circle cx="27" cy="63" r="3" fill="#FFD700" opacity="0.6"/>
    
    <rect x="71" y="65" width="4" height="8" fill="#444"/>
    <circle cx="73" cy="63" r="3" fill="#FFD700" opacity="0.6"/>
  </g>
  
  <!-- Door North -->
  <g filter="url(#softShadow)">
    <rect x="36" y="-4" width="28" height="16" fill="#1A0A00"/>
    <rect x="38" y="-2" width="24" height="14" fill="url(#doorWood)"/>
    <line x1="50" y1="-2" x2="50" y2="12" stroke="#2A1A0A" stroke-width="0.5"/>
    <line x1="38" y1="5" x2="62" y2="5" stroke="#2A1A0A" stroke-width="0.5"/>
    <rect x="38" y="-2" width="24" height="14" fill="none" stroke="url(#goldTrim)" stroke-width="1.5"/>
    <circle cx="55" cy="6" r="2.5" fill="url(#goldTrim)"/>
    <circle cx="55" cy="6" r="1.5" fill="#B8860B"/>
  </g>
  
  <!-- Door South -->
  <g filter="url(#softShadow)">
    <rect x="36" y="88" width="28" height="16" fill="#1A0A00"/>
    <rect x="38" y="90" width="24" height="14" fill="url(#doorWood)"/>
    <line x1="50" y1="90" x2="50" y2="104" stroke="#2A1A0A" stroke-width="0.5"/>
    <line x1="38" y1="97" x2="62" y2="97" stroke="#2A1A0A" stroke-width="0.5"/>
    <rect x="38" y="90" width="24" height="14" fill="none" stroke="url(#goldTrim)" stroke-width="1.5"/>
    <circle cx="55" cy="94" r="2.5" fill="url(#goldTrim)"/>
    <circle cx="55" cy="94" r="1.5" fill="#B8860B"/>
  </g>
</svg>
