<svg xmlns="http://www.w3.org/2000/svg" viewBox="0 0 100 140" width="200" height="280">
  <defs>
    <linearGradient id="bgGrad" x1="0%" y1="0%" x2="100%" y2="100%">
      <stop offset="0%" style="stop-color:#4B0082"/><stop offset="100%" style="stop-color:#1A0033"/>
    </linearGradient>
  </defs>
  <rect x="5" y="5" width="90" height="130" rx="10" fill="url(#bgGrad)" stroke="#1A0033" stroke-width="3"/>
  <rect x="10" y="10" width="80" height="120" rx="8" fill="#FFF8DC"/>
  <circle cx="50" cy="45" r="30" fill="#FFE4E1" stroke="#FFB6C1" stroke-width="2"/>
  <path d="M20,25 Q50,5 80,25 L85,50 Q50,40 15,50 Z" fill="#1A1A2E"/>
  <circle cx="50" cy="15" r="8" fill="#FFD700"/>
  <circle cx="40" cy="48" r="4" fill="#4B0082"/>
  <circle cx="60" cy="48" r="4" fill="#4B0082"/>
  <path d="M45,35 Q50,40 55,35" fill="none" stroke="#1A1A2E" stroke-width="2"/>
  <path d="M42,62 Q50,65 58,62" fill="none" stroke="#8B7355" stroke-width="2" stroke-linecap="round"/>
  <path d="M25,75 L75,75 L80,110 L20,110 Z" fill="#4B0082" stroke="#1A0033" stroke-width="2"/>
  <text x="50" y="125" text-anchor="middle" font-size="9" font-weight="bold" fill="#1A0033">薩拉夫人 Madame</text>
  <text x="50" y="135" text-anchor="middle" font-size="8" fill="#666">67歲</text>
</svg>
