<svg xmlns="http://www.w3.org/2000/svg" viewBox="0 0 100 140" width="200" height="280"><defs><linearGradient id="bgGrad" x1="0%" y1="0%" x2="100%" y2="100%"><stop offset="0%" style="stop-color:#8B4513"/><stop offset="100%" style="stop-color:#4A2503"/></linearGradient><filter id="softShadow"><feGaussianBlur in="SourceAlpha" stdDeviation="2"/><feOffset dx="1" dy="1"/><feComponentTransfer><feFuncA type="linear" slope="0.3"/></feComponentTransfer><feMerge><feMergeNode/><feMergeNode in="SourceGraphic"/></feMerge></filter></defs><rect x="5" y="5" width="90" height="130" rx="10" fill="url(#bgGrad)" stroke="#4A2503" stroke-width="3"/><rect x="10" y="10" width="80" height="120" rx="8" fill="#FFF8DC"/><rect x="28" y="14" width="44" height="18" rx="6" fill="#C0C0C0"/><path d="M24,30 L28,14 L72,14 L76,30" fill="#C0C0C0"/><path d="M35,65 L65,65 L70,110 L30,110 Z" fill="#8B4513" stroke="#4A2503" stroke-width="2" filter="url(#softShadow)"/><ellipse cx="24" cy="85" rx="4" ry="11" fill="#F5DEB3" transform="rotate(-5 24 85)"/><ellipse cx="76" cy="85" rx="4" ry="11" fill="#F5DEB3" transform="rotate(5 76 85)"/><rect x="47" y="60" width="6" height="7" fill="#F5DEB3"/><circle cx="50" cy="44" r="22" fill="#F5DEB3" filter="url(#softShadow)"/><line x1="38" y1="40" x2="45" y2="40" stroke="#666" stroke-width="1"/><line x1="55" y1="40" x2="62" y2="40" stroke="#666" stroke-width="1"/><ellipse cx="43" cy="46" rx="4" ry="5" fill="#FFF"/><ellipse cx="57" cy="46" rx="4" ry="5" fill="#FFF"/><circle cx="44" cy="47" r="2.8" fill="#4682B4"/><circle cx="56" cy="47" r="2.8" fill="#4682B4"/><circle cx="44.5" cy="46" r="1" fill="#FFF"/><circle cx="55.5" cy="46" r="1" fill="#FFF"/><path d="M46,60 Q50,63 54,60" fill="none" stroke="#8B4513" stroke-width="1.5" stroke-linecap="round"/><text x="50" y="132" text-anchor="middle" font-size="9" font-weight="bold" fill="#4A2503">彼得 Peter</text><text x="50" y="138" text-anchor="middle" font-size="7" fill="#666">58歲</text></svg>