<svg xmlns="http://www.w3.org/2000/svg" viewBox="0 0 100 100" width="200" height="200"><defs><linearGradient id="bgGrad" x1="0%" y1="0%" x2="100%" y2="100%"><stop offset="0%" style="stop-color:#DC143C"/><stop offset="100%" style="stop-color:#8B0000"/></linearGradient><radialGradient id="faceGrad" cx="50%" cy="50%" r="50%"><stop offset="0%" style="stop-color:#FFE4E1"/><stop offset="100%" style="stop-color:#FFC0CB"/></radialGradient><filter id="softShadow"><feGaussianBlur in="SourceAlpha" stdDeviation="2"/><feOffset dx="1" dy="1"/><feComponentTransfer><feFuncA type="linear" slope="0.3"/></feComponentTransfer><feMerge><feMergeNode/><feMergeNode in="SourceGraphic"/></feMerge></filter></defs><circle cx="50" cy="50" r="48" fill="url(#bgGrad)" stroke="#8B0000" stroke-width="2"/><path d="M28,24 Q50,14 72,24 L72,45 Q50,35 28,45 Z" fill="#4A2511"/><path d="M24,30 L28,18 L72,18 L76,30" fill="#4A2511"/><circle cx="50" cy="50" r="26" fill="url(#faceGrad)" filter="url(#softShadow)"/><path d="M45,35 Q50,38 55,35" fill="none" stroke="#4A2511" stroke-width="2"/><path d="M38,38 Q42,36 46,38" fill="none" stroke="#4A2511" stroke-width="1.5" stroke-linecap="round"/><path d="M54,38 Q58,36 62,38" fill="none" stroke="#4A2511" stroke-width="1.5" stroke-linecap="round"/><ellipse cx="42" cy="46" rx="5" ry="6" fill="#FFF"/><ellipse cx="58" cy="46" rx="5" ry="6" fill="#FFF"/><circle cx="43" cy="47" r="3.5" fill="#8B4513"/><circle cx="57" cy="47" r="3.5" fill="#8B4513"/><circle cx="44" cy="46" r="1.5" fill="#FFF"/><circle cx="56" cy="46" r="1.5" fill="#FFF"/><ellipse cx="35" cy="56" rx="4" ry="2.5" fill="#DDA0DD" opacity="0.5"/><ellipse cx="65" cy="56" rx="4" ry="2.5" fill="#DDA0DD" opacity="0.5"/><path d="M45,62 Q50,66 55,62" fill="none" stroke="#CD853F" stroke-width="2" stroke-linecap="round"/></svg>