<svg xmlns="http://www.w3.org/2000/svg" viewBox="0 0 100 100" width="300" height="300">
  <defs>
    <linearGradient id="floorGrad" x1="0%" y1="0%" x2="100%" y2="100%">
      <stop offset="0%" style="stop-color:#7B6354"/><stop offset="50%" style="stop-color:#5A4A3A"/><stop offset="100%" style="stop-color:#3A2A1A"/>
    </linearGradient>
    <pattern id="floorPattern" x="0" y="0" width="20" height="20" patternUnits="userSpaceOnUse">
      <rect width="20" height="20" fill="url(#floorGrad)"/>
      <line x1="0" y1="0" x2="0" y2="20" stroke="#2A1A0A" stroke-width="0.5" opacity="0.5"/>
      <line x1="0" y1="0" x2="20" y2="0" stroke="#2A1A0A" stroke-width="0.5" opacity="0.5"/>
    </pattern>
    <linearGradient id="doorGrad" x1="0%" y1="0%" x2="0%" y2="100%">
      <stop offset="0%" style="stop-color:#8B6B4B"/><stop offset="100%" style="stop-color:#4A2A0A"/>
    </linearGradient>
    <filter id="shadow" x="-20%" y="-20%" width="140%" height="140%">
      <feDropShadow dx="1" dy="1" stdDeviation="1" flood-opacity="0.3"/>
    </filter>
  </defs>
  <rect x="8" y="8" width="84" height="84" fill="url(#floorPattern)" stroke="#2A1A0A" stroke-width="2"/>
  <g filter="url(#shadow)">
    <rect x="38" y="-2" width="24" height="14" fill="#2A1A0A"/>
    <rect x="40" y="0" width="20" height="12" fill="url(#doorGrad)" stroke="#A08060" stroke-width="1.5"/>
    <rect x="42" y="2" width="16" height="8" fill="#3A2A1A" opacity="0.6"/>
    <circle cx="55" cy="6" r="1.5" fill="#D4AF37"/>
  </g>
  <g filter="url(#shadow)">
    <rect x="88" y="38" width="14" height="24" fill="#2A1A0A"/>
    <rect x="90" y="40" width="12" height="20" fill="url(#doorGrad)" stroke="#A08060" stroke-width="1.5"/>
    <rect x="92" y="42" width="8" height="16" fill="#3A2A1A" opacity="0.6"/>
    <circle cx="96" cy="55" r="1.5" fill="#D4AF37"/>
  </g>
  <g filter="url(#shadow)">
    <rect x="-2" y="38" width="14" height="24" fill="#2A1A0A"/>
    <rect x="0" y="40" width="12" height="20" fill="url(#doorGrad)" stroke="#A08060" stroke-width="1.5"/>
    <rect x="2" y="42" width="8" height="16" fill="#3A2A1A" opacity="0.6"/>
    <circle cx="6" cy="55" r="1.5" fill="#D4AF37"/>
  </g>
  <rect x="22" y="22" width="56" height="56" fill="#4A3728" opacity="0.2" rx="3"/>
  <circle cx="50" cy="50" r="18" fill="#5A4334" opacity="0.3"/>
  <g filter="url(#shadow)">
    <line x1="50" y1="20" x2="50" y2="38" stroke="#4A4A4A" stroke-width="2"/>
    <circle cx="50" cy="42" r="10" fill="#FFD700" opacity="0.4"/>
    <circle cx="50" cy="42" r="6" fill="#FFF8DC" opacity="0.9"/>
    <circle cx="50" cy="42" r="14" fill="#FFD700" opacity="0.1"/>
  </g>
  <g filter="url(#shadow)">
    <rect x="28" y="58" width="44" height="22" fill="#4A3A2A" stroke="#2A1A0A" stroke-width="1"/>
    <line x1="28" y1="63" x2="72" y2="63" stroke="#2A1A0A" stroke-width="1"/>
    <line x1="28" y1="69" x2="72" y2="69" stroke="#2A1A0A" stroke-width="1"/>
    <line x1="28" y1="75" x2="72" y2="75" stroke="#2A1A0A" stroke-width="1"/>
    <line x1="28" y1="58" x2="28" y2="80" stroke="#5A3A1A" stroke-width="2"/>
    <line x1="72" y1="58" x2="72" y2="80" stroke="#5A3A1A" stroke-width="2"/>
  </g>
</svg>
