<svg xmlns="http://www.w3.org/2000/svg" viewBox="0 0 100 100" width="300" height="300">
  <defs>
    <linearGradient id="floorGrad" x1="0%" y1="0%" x2="100%" y2="100%">
      <stop offset="0%" style="stop-color:#4A3728"/><stop offset="100%" style="stop-color:#2A1708"/>
    </linearGradient>
    <linearGradient id="doorGrad" x1="0%" y1="0%" x2="0%" y2="100%">
      <stop offset="0%" style="stop-color:#8B6B4B"/><stop offset="100%" style="stop-color:#4A2A0A"/>
    </linearGradient>
    <filter id="shadow" x="-20%" y="-20%" width="140%" height="140%">
      <feDropShadow dx="1" dy="1" stdDeviation="1" flood-opacity="0.3"/>
    </filter>
  </defs>
  <rect x="8" y="8" width="84" height="84" fill="url(#floorGrad)" stroke="#1A0700" stroke-width="2"/>
  <g filter="url(#shadow)">
    <rect x="38" y="88" width="24" height="14" fill="#2A1A0A"/>
    <rect x="40" y="90" width="20" height="12" fill="url(#doorGrad)" stroke="#A08060" stroke-width="1.5"/>
    <circle cx="55" cy="94" r="1.5" fill="#D4AF37"/>
  </g>
  <g filter="url(#shadow)">
    <rect x="88" y="38" width="14" height="24" fill="#2A1A0A"/>
    <rect x="90" y="40" width="12" height="20" fill="url(#doorGrad)" stroke="#A08060" stroke-width="1.5"/>
    <circle cx="96" cy="55" r="1.5" fill="#D4AF37"/>
  </g>
  <g filter="url(#shadow)">
    <rect x="-2" y="38" width="14" height="24" fill="#2A1A0A"/>
    <rect x="0" y="40" width="12" height="20" fill="url(#doorGrad)" stroke="#A08060" stroke-width="1.5"/>
    <circle cx="6" cy="55" r="1.5" fill="#D4AF37"/>
  </g>
  <rect x="10" y="10" width="20" height="80" fill="#3A2718" stroke="#1A0700" filter="url(#shadow)"/>
  <rect x="12" y="15" width="16" height="4" fill="#8B0000"/>
  <rect x="12" y="22" width="16" height="4" fill="#006400"/>
  <rect x="12" y="29" width="16" height="4" fill="#00008B"/>
  <rect x="12" y="36" width="16" height="4" fill="#4B0082"/>
  <rect x="12" y="43" width="16" height="4" fill="#8B4513"/>
  <rect x="70" y="10" width="20" height="80" fill="#3A2718" stroke="#1A0700" filter="url(#shadow)"/>
  <rect x="72" y="15" width="16" height="4" fill="#8B0000"/>
  <rect x="72" y="22" width="16" height="4" fill="#006400"/>
  <rect x="72" y="29" width="16" height="4" fill="#00008B"/>
  <rect x="35" y="38" width="30" height="28" fill="#8B4513" stroke="#654321" filter="url(#shadow)"/>
  <circle cx="50" cy="48" r="8" fill="#FFD700" opacity="0.5"/>
  <circle cx="50" cy="48" r="4" fill="#FFF8DC"/>
</svg>
