<svg xmlns="http://www.w3.org/2000/svg" viewBox="0 0 100 100" width="300" height="300">
  <defs>
    <linearGradient id="floorGrad" x1="0%" y1="0%" x2="100%" y2="100%">
      <stop offset="0%" style="stop-color:#3F6F4F"/><stop offset="100%" style="stop-color:#1F4F2F"/>
    </linearGradient>
    <linearGradient id="doorGrad" x1="0%" y1="0%" x2="0%" y2="100%">
      <stop offset="0%" style="stop-color:#8B6B4B"/><stop offset="100%" style="stop-color:#4A2A0A"/>
    </linearGradient>
    <filter id="shadow" x="-20%" y="-20%" width="140%" height="140%">
      <feDropShadow dx="1" dy="1" stdDeviation="1" flood-opacity="0.3"/>
    </filter>
  </defs>
  <rect x="8" y="8" width="84" height="84" fill="url(#floorGrad)" stroke="#0F3F1F" stroke-width="2"/>
  <g filter="url(#shadow)">
    <rect x="38" y="-2" width="24" height="14" fill="#2A1A0A"/>
    <rect x="40" y="0" width="20" height="12" fill="url(#doorGrad)" stroke="#A08060" stroke-width="1.5"/>
    <circle cx="55" cy="6" r="1.5" fill="#D4AF37"/>
  </g>
  <g filter="url(#shadow)">
    <rect x="38" y="88" width="24" height="14" fill="#2A1A0A"/>
    <rect x="40" y="90" width="20" height="12" fill="url(#doorGrad)" stroke="#A08060" stroke-width="1.5"/>
    <circle cx="55" cy="94" r="1.5" fill="#D4AF37"/>
  </g>
  <path d="M15,85 Q50,20 85,85" fill="none" stroke="#1F3F1F" stroke-width="3" opacity="0.5"/>
  <circle cx="30" cy="60" r="12" fill="#1F4F1F" filter="url(#shadow)"/>
  <circle cx="70" cy="35" r="10" fill="#2F5F2F" filter="url(#shadow)"/>
  <circle cx="22" cy="72" r="14" fill="#0F3F0F" filter="url(#shadow)"/>
  <circle cx="78" cy="70" r="13" fill="#1F4F1F" filter="url(#shadow)"/>
  <ellipse cx="50" cy="50" rx="8" ry="6" fill="#6A6A6A" filter="url(#shadow)"/>
  <rect x="46" y="35" width="8" height="18" fill="#7A7A7A"/>
</svg>
