<svg xmlns="http://www.w3.org/2000/svg" viewBox="0 0 100 100" width="300" height="300">
  <rect x="8" y="8" width="84" height="84" fill="#6B5B8B" stroke="#4A3A6B" stroke-width="2"/>
  <rect x="40" y="-2" width="20" height="12" fill="#3D2B1A" stroke="#2A1A0A" stroke-width="2"/><rect x="42" y="0" width="16" height="10" fill="#7B5B3B" stroke="#A08060" stroke-width="2"/><rect x="44" y="2" width="12" height="6" fill="#5A4A3A" opacity="0.8"/>
  <rect x="40" y="90" width="20" height="12" fill="#3D2B1A" stroke="#2A1A0A" stroke-width="2"/><rect x="42" y="90" width="16" height="10" fill="#7B5B3B" stroke="#A08060" stroke-width="2"/><rect x="44" y="92" width="12" height="6" fill="#5A4A3A" opacity="0.8"/>
  <rect x="90" y="40" width="12" height="20" fill="#3D2B1A" stroke="#2A1A0A" stroke-width="2"/><rect x="90" y="42" width="10" height="16" fill="#7B5B3B" stroke="#A08060" stroke-width="2"/><rect x="92" y="44" width="6" height="12" fill="#5A4A3A" opacity="0.8"/>
  <rect x="-2" y="40" width="12" height="20" fill="#3D2B1A" stroke="#2A1A0A" stroke-width="2"/><rect x="0" y="42" width="10" height="16" fill="#7B5B3B" stroke="#A08060" stroke-width="2"/><rect x="2" y="44" width="6" height="12" fill="#5A4A3A" opacity="0.8"/>
  <ellipse cx="50" cy="55" rx="30" ry="20" fill="#5A4A7B" stroke="#3A2A5B"/>
  <circle cx="35" cy="45" r="5" fill="#FFD700" opacity="0.5"/><circle cx="65" cy="45" r="5" fill="#FFD700" opacity="0.5"/>
</svg>
