<svg xmlns="http://www.w3.org/2000/svg" viewBox="0 0 100 100" width="400" height="400">
  <defs>
    <linearGradient id="floorGrad" x1="0%" y1="0%" x2="100%" y2="100%"><stop offset="0%" style="stop-color:#5A6A7B"/><stop offset="100%" style="stop-color:#2A3A4B"/></linearGradient>
    <pattern id="rubberPattern" x="0" y="0" width="15" height="15" patternUnits="userSpaceOnUse"><rect width="15" height="15" fill="url(#floorGrad)"/><circle cx="7" cy="7" r="2" fill="#3A4A5B" opacity="0.3"/></pattern>
    <linearGradient id="doorWood" x1="0%" y1="0%" x2="100%" y2="0%"><stop offset="0%" style="stop-color:#5A3A1A"/><stop offset="50%" style="stop-color:#7B5B3B"/><stop offset="100%" style="stop-color:#4A2A0A"/></linearGradient>
    <linearGradient id="goldTrim" x1="0%" y1="0%" x2="100%" y2="100%"><stop offset="0%" style="stop-color:#FFD700"/><stop offset="100%" style="stop-color:#B8860B"/></linearGradient>
    <linearGradient id="mirrorGrad" x1="0%" y1="0%" x2="100%" y2="100%"><stop offset="0%" style="stop-color:#C0D0E0"/><stop offset="50%" style="stop-color:#E0F0FF"/><stop offset="100%" style="stop-color:#A0B0C0"/></linearGradient>
    <filter id="softShadow" x="-50%" y="-50%" width="200%" height="200%"><feGaussianBlur in="SourceAlpha" stdDeviation="2"/><feOffset dx="2" dy="2"/><feComponentTransfer><feFuncA type="linear" slope="0.3"/></feComponentTransfer><feMerge><feMergeNode/><feMergeNode in="SourceGraphic"/></feMerge></filter>
  </defs>
  <rect x="8" y="8" width="84" height="84" fill="url(#rubberPattern)" stroke="#1A2A3A" stroke-width="2"/>
  <g filter="url(#softShadow)">
    <rect x="36" y="88" width="28" height="16" fill="#1A0A00"/>
    <rect x="38" y="90" width="24" height="14" fill="url(#doorWood)"/>
    <rect x="38" y="90" width="24" height="14" fill="none" stroke="url(#goldTrim)" stroke-width="1"/>
    <circle cx="55" cy="94" r="2" fill="url(#goldTrim)"/>
  </g>
  <g filter="url(#softShadow)">
    <rect x="-4" y="36" width="16" height="28" fill="#1A0A00"/>
    <rect x="-2" y="38" width="12" height="24" fill="url(#doorWood)"/>
    <rect x="-2" y="38" width="12" height="24" fill="none" stroke="url(#goldTrim)" stroke-width="1"/>
    <circle cx="4" cy="55" r="2" fill="url(#goldTrim)"/>
  </g>
  <rect x="20" y="20" width="25" height="40" fill="url(#mirrorGrad)" stroke="#4A5A6B" filter="url(#softShadow)"/>
  <circle cx="32" cy="40" r="8" fill="#87CEEB" opacity="0.3"/>
  <rect x="55" y="25" width="30" height="20" fill="#654321" filter="url(#softShadow)"/>
  <rect x="58" y="28" width="5" height="14" fill="#333"/>
</svg>
