<svg xmlns="http://www.w3.org/2000/svg" viewBox="0 0 100 100" width="300" height="300">
  <rect x="8" y="8" width="84" height="84" fill="#8B5B5B" stroke="#5A2A2A" stroke-width="2"/>
  <rect x="40" y="-2" width="20" height="12" fill="#3D2B1A" stroke="#2A1A0A" stroke-width="2"/><rect x="42" y="0" width="16" height="10" fill="#7B5B3B" stroke="#A08060" stroke-width="2"/><rect x="44" y="2" width="12" height="6" fill="#5A4A3A" opacity="0.8"/>
  <rect x="40" y="90" width="20" height="12" fill="#3D2B1A" stroke="#2A1A0A" stroke-width="2"/><rect x="42" y="90" width="16" height="10" fill="#7B5B3B" stroke="#A08060" stroke-width="2"/><rect x="44" y="92" width="12" height="6" fill="#5A4A3A" opacity="0.8"/>
  <rect x="90" y="40" width="12" height="20" fill="#3D2B1A" stroke="#2A1A0A" stroke-width="2"/><rect x="90" y="42" width="10" height="16" fill="#7B5B3B" stroke="#A08060" stroke-width="2"/><rect x="92" y="44" width="6" height="12" fill="#5A4A3A" opacity="0.8"/>
  <rect x="20" y="20" width="60" height="40" fill="#7B4B4B" stroke="#5A2A2A"/>
  <rect x="30" y="15" width="40" height="8" fill="#654321"/>
  <rect x="35" y="25" width="12" height="8" fill="#FFF8DC"/><rect x="53" y="25" width="12" height="8" fill="#FFF8DC"/>
  <ellipse cx="45" cy="45" rx="5" ry="3" fill="#8B0000" opacity="0.5"/>
</svg>
