<svg xmlns="http://www.w3.org/2000/svg" viewBox="0 0 100 100" width="400" height="400">
  <defs>
    <linearGradient id="floorGrad" x1="0%" y1="0%" x2="100%" y2="100%"><stop offset="0%" style="stop-color:#8B5B5B"/><stop offset="100%" style="stop-color:#4A1A1A"/></linearGradient>
    <pattern id="carpetPattern" x="0" y="0" width="15" height="15" patternUnits="userSpaceOnUse"><rect width="15" height="15" fill="url(#floorGrad)"/><circle cx="7" cy="7" r="2" fill="#5A2A2A" opacity="0.3"/></pattern>
    <linearGradient id="doorWood" x1="0%" y1="0%" x2="100%" y2="0%"><stop offset="0%" style="stop-color:#5A3A1A"/><stop offset="50%" style="stop-color:#7B5B3B"/><stop offset="100%" style="stop-color:#4A2A0A"/></linearGradient>
    <linearGradient id="goldTrim" x1="0%" y1="0%" x2="100%" y2="100%"><stop offset="0%" style="stop-color:#FFD700"/><stop offset="100%" style="stop-color:#B8860B"/></linearGradient>
    <linearGradient id="bedGrad" x1="0%" y1="0%" x2="0%" y2="100%"><stop offset="0%" style="stop-color:#8B4513"/><stop offset="100%" style="stop-color:#5A2503"/></linearGradient>
    <filter id="softShadow" x="-50%" y="-50%" width="200%" height="200%"><feGaussianBlur in="SourceAlpha" stdDeviation="2"/><feOffset dx="2" dy="2"/><feComponentTransfer><feFuncA type="linear" slope="0.3"/></feComponentTransfer><feMerge><feMergeNode/><feMergeNode in="SourceGraphic"/></feMerge></filter>
  </defs>
  <rect x="8" y="8" width="84" height="84" fill="url(#carpetPattern)" stroke="#2A0A0A" stroke-width="2"/>
  <g filter="url(#softShadow)">
    <rect x="36" y="-4" width="28" height="16" fill="#1A0A00"/>
    <rect x="38" y="-2" width="24" height="14" fill="url(#doorWood)"/>
    <rect x="38" y="-2" width="24" height="14" fill="none" stroke="url(#goldTrim)" stroke-width="1"/>
    <circle cx="55" cy="6" r="2" fill="url(#goldTrim)"/>
  </g>
  <g filter="url(#softShadow)">
    <rect x="36" y="88" width="28" height="16" fill="#1A0A00"/>
    <rect x="38" y="90" width="24" height="14" fill="url(#doorWood)"/>
    <rect x="38" y="90" width="24" height="14" fill="none" stroke="url(#goldTrim)" stroke-width="1"/>
    <circle cx="55" cy="94" r="2" fill="url(#goldTrim)"/>
  </g>
  <g filter="url(#softShadow)">
    <rect x="88" y="36" width="16" height="28" fill="#1A0A00"/>
    <rect x="90" y="38" width="12" height="24" fill="url(#doorWood)"/>
    <rect x="90" y="38" width="12" height="24" fill="none" stroke="url(#goldTrim)" stroke-width="1"/>
    <circle cx="96" cy="55" r="2" fill="url(#goldTrim)"/>
  </g>
  <rect x="25" y="20" width="50" height="35" fill="url(#bedGrad)" stroke="#3A1A03" filter="url(#softShadow)"/>
  <rect x="25" y="15" width="50" height="8" fill="#654321" stroke="#3A1A03"/>
  <rect x="30" y="22" width="18" height="10" fill="#FFF8DC" stroke="#DDD"/>
  <rect x="52" y="22" width="18" height="10" fill="#FFF8DC" stroke="#DDD"/>
  <rect x="25" y="35" width="50" height="20" fill="#8B0000" opacity="0.5" stroke="#600000"/>
  <ellipse cx="45" cy="45" rx="5" ry="3" fill="#8B0000" opacity="0.4"/>
</svg>
