<svg xmlns="http://www.w3.org/2000/svg" viewBox="0 0 100 100" width="300" height="300">
  <polygon points="50,8 85,25 92,50 85,75 50,92 15,75 8,50 15,25" fill="#6A7B8B" stroke="#4A5B6B" stroke-width="2"/>
  <rect x="40" y="90" width="20" height="12" fill="#3D2B1A" stroke="#2A1A0A" stroke-width="2"/><rect x="42" y="90" width="16" height="10" fill="#7B5B3B" stroke="#A08060" stroke-width="2"/><rect x="44" y="92" width="12" height="6" fill="#5A4A3A" opacity="0.8"/>
  <polygon points="50,18 75,30 80,50 75,70 50,82 25,70 20,50 25,30" fill="#7B8B9B"/>
  <rect x="38" y="28" width="10" height="15" fill="#87CEEB" opacity="0.6"/>
  <rect x="52" y="28" width="10" height="15" fill="#87CEEB" opacity="0.6"/>
  <rect x="32" y="50" width="8" height="12" fill="#87CEEB" opacity="0.6"/>
  <rect x="60" y="50" width="8" height="12" fill="#87CEEB" opacity="0.6"/>
</svg>
