<svg xmlns="http://www.w3.org/2000/svg" viewBox="0 0 100 100" width="400" height="400">
  <defs>
    <linearGradient id="floorGrad" x1="0%" y1="0%" x2="100%" y2="100%"><stop offset="0%" style="stop-color:#4A4A3A"/><stop offset="50%" style="stop-color:#2A2A1A"/><stop offset="100%" style="stop-color:#0A0A00"/></linearGradient>
    <pattern id="woodPattern" x="0" y="0" width="10" height="40" patternUnits="userSpaceOnUse"><rect width="10" height="40" fill="url(#floorGrad)"/><line x1="0" y1="0" x2="0" y2="40" stroke="#1A1A0A" stroke-width="0.3"/></pattern>
    <linearGradient id="doorWood" x1="0%" y1="0%" x2="100%" y2="0%"><stop offset="0%" style="stop-color:#5A3A1A"/><stop offset="50%" style="stop-color:#7B5B3B"/><stop offset="100%" style="stop-color:#4A2A0A"/></linearGradient>
    <linearGradient id="goldTrim" x1="0%" y1="0%" x2="100%" y2="100%"><stop offset="0%" style="stop-color:#FFD700"/><stop offset="50%" style="stop-color:#B8860B"/><stop offset="100%" style="stop-color:#D4AF37"/></linearGradient>
    <linearGradient id="metalGrad" x1="0%" y1="0%" x2="0%" y2="100%"><stop offset="0%" style="stop-color:#C0C0C0"/><stop offset="100%" style="stop-color:#808080"/></linearGradient>
    <filter id="softShadow" x="-50%" y="-50%" width="200%" height="200%"><feGaussianBlur in="SourceAlpha" stdDeviation="3" result="blur"/><feOffset in="blur" dx="2" dy="2" result="offsetBlur"/><feComponentTransfer><feFuncA type="linear" slope="0.4"/></feComponentTransfer><feMerge><feMergeNode in="offsetBlur"/><feMergeNode in="SourceGraphic"/></feMerge></filter>
  </defs>
  <rect x="8" y="8" width="84" height="84" fill="url(#woodPattern)" stroke="#0A0A00" stroke-width="2"/>
  <rect x="10" y="10" width="80" height="80" fill="none" stroke="#1A1A0A" stroke-width="0.5" opacity="0.3"/>
  <g filter="url(#softShadow)">
    <rect x="88" y="36" width="16" height="28" fill="#1A0A00"/>
    <rect x="90" y="38" width="12" height="24" fill="url(#doorWood)"/>
    <line x1="90" y1="50" x2="102" y2="50" stroke="#2A1A0A" stroke-width="0.5"/>
    <line x1="96" y1="38" x2="96" y2="62" stroke="#2A1A0A" stroke-width="0.5"/>
    <rect x="90" y="38" width="12" height="24" fill="none" stroke="url(#goldTrim)" stroke-width="1.5"/>
    <circle cx="96" cy="55" r="2" fill="url(#goldTrim)"/>
    <circle cx="96" cy="55" r="1" fill="#B8860B"/>
  </g>
  <g filter="url(#softShadow)">
    <rect x="-4" y="36" width="16" height="28" fill="#1A0A00"/>
    <rect x="-2" y="38" width="12" height="24" fill="url(#doorWood)"/>
    <line x1="-2" y1="50" x2="10" y2="50" stroke="#2A1A0A" stroke-width="0.5"/>
    <line x1="4" y1="38" x2="4" y2="62" stroke="#2A1A0A" stroke-width="0.5"/>
    <rect x="-2" y="38" width="12" height="24" fill="none" stroke="url(#goldTrim)" stroke-width="1.5"/>
    <circle cx="4" cy="55" r="2" fill="url(#goldTrim)"/>
    <circle cx="4" cy="55" r="1" fill="#B8860B"/>
  </g>
  <rect x="20" y="30" width="60" height="40" fill="#5A5A4A" stroke="#2A2A2A" filter="url(#softShadow)"/>
  <rect x="25" y="35" width="15" height="10" fill="url(#metalGrad)" filter="url(#softShadow)"/>
  <circle cx="60" cy="50" r="10" fill="url(#metalGrad)" stroke="#4A4A4A" filter="url(#softShadow)"/>
  <circle cx="60" cy="50" r="6" fill="#00FF00" opacity="0.3"/>
  <rect x="60" y="40" width="15" height="20" fill="#654321" filter="url(#softShadow)"/>
</svg>
