<svg xmlns="http://www.w3.org/2000/svg" viewBox="0 0 100 100" width="300" height="300">
  <rect x="8" y="8" width="84" height="84" fill="#2D1B4E" stroke="#1A0F2E" stroke-width="2"/>
  <rect x="40" y="90" width="20" height="12" fill="#3D2B1A" stroke="#2A1A0A" stroke-width="2"/><rect x="42" y="90" width="16" height="10" fill="#7B5B3B" stroke="#A08060" stroke-width="2"/><rect x="44" y="92" width="12" height="6" fill="#5A4A3A" opacity="0.8"/>
  <rect x="-2" y="40" width="12" height="20" fill="#3D2B1A" stroke="#2A1A0A" stroke-width="2"/><rect x="0" y="42" width="10" height="16" fill="#7B5B3B" stroke="#A08060" stroke-width="2"/><rect x="2" y="44" width="6" height="12" fill="#5A4A3A" opacity="0.8"/>
  <polygon points="50,25 60,45 80,45 65,60 72,80 50,70 28,80 35,60 20,45 40,45" fill="none" stroke="#8B0000" stroke-width="3"/>
  <polygon points="50,25 60,45 80,45 65,60 72,80 50,70 28,80 35,60 20,45 40,45" fill="#8B0000" opacity="0.2"/>
  <circle cx="25" cy="25" r="5" fill="#FFD700" opacity="0.5"/>
  <circle cx="75" cy="25" r="5" fill="#FFD700" opacity="0.5"/>
</svg>
