<svg xmlns="http://www.w3.org/2000/svg" viewBox="0 0 100 100" width="400" height="400"><defs><linearGradient id="floorGrad" x1="0%" y1="0%" x2="100%" y2="100%"><stop offset="0%" style="stop-color:#2D1B4E"/><stop offset="100%" style="stop-color:#0D0B2E"/></linearGradient><pattern id="floorPattern" x="0" y="0" width="20" height="20" patternUnits="userSpaceOnUse"><rect width="20" height="20" fill="url(#floorGrad)"/></pattern><linearGradient id="doorWood" x1="0%" y1="0%" x2="100%" y2="0%"><stop offset="0%" style="stop-color:#5A3A1A"/><stop offset="50%" style="stop-color:#7B5B3B"/><stop offset="100%" style="stop-color:#4A2A0A"/></linearGradient><linearGradient id="goldTrim" x1="0%" y1="0%" x2="100%" y2="100%"><stop offset="0%" style="stop-color:#FFD700"/><stop offset="100%" style="stop-color:#B8860B"/></linearGradient><filter id="softShadow"><feGaussianBlur in="SourceAlpha" stdDeviation="3"/><feOffset dx="2" dy="2"/><feComponentTransfer><feFuncA type="linear" slope="0.4"/></feComponentTransfer><feMerge><feMergeNode/><feMergeNode in="SourceGraphic"/></feMerge></filter></defs><rect x="8" y="8" width="84" height="84" fill="url(#floorPattern)" stroke="#000" stroke-width="2"/><g filter="url(#softShadow)"><rect x="36" y="88" width="28" height="16" fill="#1A0A00"/><rect x="38" y="90" width="24" height="14" fill="url(#doorWood)"/><rect x="38" y="90" width="24" height="14" fill="none" stroke="url(#goldTrim)" stroke-width="1.5"/><circle cx="55" cy="94" r="2" fill="url(#goldTrim)"/></g><g filter="url(#softShadow)"><rect x="-4" y="36" width="16" height="28" fill="#1A0A00"/><rect x="-2" y="38" width="12" height="24" fill="url(#doorWood)"/><rect x="-2" y="38" width="12" height="24" fill="none" stroke="url(#goldTrim)" stroke-width="1.5"/><circle cx="4" cy="55" r="2" fill="url(#goldTrim)"/></g><polygon points="50,25 60,45 80,45 65,60 72,80 50,70 28,80 35,60 20,45 40,45" fill="none" stroke="#8B0000" stroke-width="3"/><polygon points="50,25 60,45 80,45 65,60 72,80 50,70 28,80 35,60 20,45 40,45" fill="#8B0000" opacity="0.2"/><circle cx="25" cy="25" r="5" fill="#FFD700" opacity="0.5" filter="url(#softShadow)"/><circle cx="75" cy="25" r="5" fill="#FFD700" opacity="0.5" filter="url(#softShadow)"/></svg>