<svg xmlns="http://www.w3.org/2000/svg" viewBox="0 0 100 100" width="300" height="300">
  <rect x="8" y="8" width="84" height="84" fill="#4A5A4A" stroke="#2A3A2A" stroke-width="2"/>
  <rect x="40" y="-2" width="20" height="12" fill="#3D2B1A" stroke="#2A1A0A" stroke-width="2"/><rect x="42" y="0" width="16" height="10" fill="#7B5B3B" stroke="#A08060" stroke-width="2"/><rect x="44" y="2" width="12" height="6" fill="#5A4A3A" opacity="0.8"/>
  <rect x="40" y="90" width="20" height="12" fill="#3D2B1A" stroke="#2A1A0A" stroke-width="2"/><rect x="42" y="90" width="16" height="10" fill="#7B5B3B" stroke="#A08060" stroke-width="2"/><rect x="44" y="92" width="12" height="6" fill="#5A4A3A" opacity="0.8"/>
  <rect x="-2" y="40" width="12" height="20" fill="#3D2B1A" stroke="#2A1A0A" stroke-width="2"/><rect x="0" y="42" width="10" height="16" fill="#7B5B3B" stroke="#A08060" stroke-width="2"/><rect x="2" y="44" width="6" height="12" fill="#5A4A3A" opacity="0.8"/>
  <rect x="10" y="60" width="80" height="25" fill="#5A6A5A"/>
  <rect x="15" y="45" width="25" height="18" fill="#8B7355"/>
  <rect x="18" y="35" width="4" height="15" fill="#00FF00" opacity="0.5"/>
  <rect x="24" y="38" width="4" height="12" fill="#FF0000" opacity="0.5"/>
  <circle cx="60" cy="50" r="10" fill="#4682B4" opacity="0.4"/>
  <circle cx="60" cy="50" r="6" fill="#00FF00" opacity="0.3"/>
  <rect x="35" y="20" width="25" height="18" fill="#4A4A4A"/>
  <circle cx="47" cy="29" r="5" fill="#00FF00" opacity="0.5"/>
</svg>
