<svg xmlns="http://www.w3.org/2000/svg" viewBox="0 0 100 100" width="400" height="400">
  <defs>
    <linearGradient id="floorGrad" x1="0%" y1="0%" x2="100%" y2="100%">
      <stop offset="0%" style="stop-color:#5A5A5A"/>
      <stop offset="30%" style="stop-color:#4A4A4A"/>
      <stop offset="60%" style="stop-color:#3A3A3A"/>
      <stop offset="100%" style="stop-color:#2A2A2A"/>
    </linearGradient>
    <pattern id="woodPattern" x="0" y="0" width="12" height="60" patternUnits="userSpaceOnUse">
      <rect width="12" height="60" fill="url(#floorGrad)"/>
      <line x1="0" y1="0" x2="0" y2="60" stroke="#1A0A00" stroke-width="0.4" opacity="0.7"/>
      <line x1="6" y1="0" x2="6" y2="60" stroke="#2A1A0A" stroke-width="0.2" opacity="0.4"/>
    </pattern>
    <linearGradient id="doorWood" x1="0%" y1="0%" x2="100%" y2="0%">
      <stop offset="0%" style="stop-color:#4A2A0A"/>
      <stop offset="50%" style="stop-color:#6B4B2B"/>
      <stop offset="100%" style="stop-color:#4A2A0A"/>
    </linearGradient>
    <linearGradient id="goldTrim" x1="0%" y1="0%" x2="100%" y2="100%">
      <stop offset="0%" style="stop-color:#FFD700"/>
      <stop offset="50%" style="stop-color:#B8860B"/>
      <stop offset="100%" style="stop-color:#FFD700"/>
    </linearGradient>
    <filter id="softShadow" x="-50%" y="-50%" width="200%" height="200%">
      <feGaussianBlur in="SourceAlpha" stdDeviation="2.5"/>
      <feOffset dx="2" dy="2" result="offsetblur"/>
      <feComponentTransfer><feFuncA type="linear" slope="0.4"/></feComponentTransfer>
      <feMerge><feMergeNode/><feMergeNode in="SourceGraphic"/></feMerge>
    </filter>
  </defs>
  <rect x="8" y="8" width="84" height="84" fill="url(#woodPattern)" stroke="#1A0A00" stroke-width="2"/>
  <rect x="10" y="10" width="80" height="80" fill="none" stroke="#3A2A1A" stroke-width="0.5" opacity="0.5"/>
  
  <!-- INTERIOR: Abandoned Room -->
  <g opacity="0.7">
    <!-- Broken table -->
    <rect x="28" y="35" width="20" height="12" fill="#4A4A4A" rx="1" transform="rotate(-5 38 41)"/>
    <rect x="30" y="32" width="16" height="8" fill="#3A3A3A" rx="1" transform="rotate(-5 38 36)"/>
    <line x1="32" y1="47" x2="32" y2="55" stroke="#3A3A3A" stroke-width="2"/>
    <line x1="44" y1="47" x2="44" y2="52" stroke="#3A3A3A" stroke-width="2"/>
    <!-- Debris pile -->
    <circle cx="60" cy="45" r="8" fill="#3A3A3A"/>
    <path d="M55,42 L62,48 L58,52" fill="none" stroke="#2A2A2A" stroke-width="2"/>
    <rect x="65" y="50" width="8" height="6" fill="#4A4A4A" transform="rotate(10 69 53)"/>
    <!-- Broken chair -->
    <rect x="22" y="58" width="12" height="8" fill="#4A4A4A" transform="rotate(15 28 62)"/>
    <line x1="24" y1="66" x2="22" y2="72" stroke="#3A3A3A" stroke-width="2"/>
    <line x1="32" y1="66" x2="34" y2="70" stroke="#3A3A3A" stroke-width="2"/>
    <!-- Cobwebs -->
    <path d="M18,18 Q22,22 18,26" fill="none" stroke="#666" stroke-width="0.5" opacity="0.4"/>
    <path d="M82,20 Q78,24 82,28" fill="none" stroke="#666" stroke-width="0.5" opacity="0.4"/>
    <path d="M20,75 Q24,78 20,82" fill="none" stroke="#666" stroke-width="0.5" opacity="0.3"/>
  </g>
  
  <!-- Door North -->
  <g filter="url(#softShadow)">
    <rect x="36" y="-4" width="28" height="16" fill="#1A0A00"/>
    <rect x="38" y="-2" width="24" height="14" fill="url(#doorWood)"/>
    <line x1="50" y1="-2" x2="50" y2="12" stroke="#2A1A0A" stroke-width="0.5"/>
    <line x1="38" y1="5" x2="62" y2="5" stroke="#2A1A0A" stroke-width="0.5"/>
    <rect x="38" y="-2" width="24" height="14" fill="none" stroke="url(#goldTrim)" stroke-width="1.5"/>
    <circle cx="55" cy="6" r="2.5" fill="url(#goldTrim)"/>
    <circle cx="55" cy="6" r="1.5" fill="#B8860B"/>
  </g>
  
  <!-- Symbol O -->
  <g filter="url(#softShadow)">
    <circle cx="85" cy="15" r="8" fill="#8B4DA8" stroke="#6B2D88" stroke-width="1"/>
    <circle cx="85" cy="15" r="6" fill="#AB6DC8" opacity="0.5"/>
    <text x="85" y="19" text-anchor="middle" font-size="11" fill="#FFF" font-weight="bold" font-family="serif">O</text>
  </g>
</svg>
