<svg xmlns="http://www.w3.org/2000/svg" viewBox="0 0 100 100" width="400" height="400">
  <defs>
    <linearGradient id="floorGrad" x1="0%" y1="0%" x2="100%" y2="100%">
      <stop offset="0%" style="stop-color:#5A5A5A"/>
      <stop offset="30%" style="stop-color:#4A4A4A"/>
      <stop offset="60%" style="stop-color:#3A3A3A"/>
      <stop offset="100%" style="stop-color:#2A2A2A"/>
    </linearGradient>
    <pattern id="woodPattern" x="0" y="0" width="12" height="60" patternUnits="userSpaceOnUse">
      <rect width="12" height="60" fill="url(#floorGrad)"/>
      <line x1="0" y1="0" x2="0" y2="60" stroke="#1A0A00" stroke-width="0.4" opacity="0.7"/>
    </pattern>
    <linearGradient id="doorWood" x1="0%" y1="0%" x2="100%" y2="0%">
      <stop offset="0%" style="stop-color:#4A2A0A"/>
      <stop offset="50%" style="stop-color:#6B4B2B"/>
      <stop offset="100%" style="stop-color:#4A2A0A"/>
    </linearGradient>
    <linearGradient id="goldTrim" x1="0%" y1="0%" x2="100%" y2="100%">
      <stop offset="0%" style="stop-color:#FFD700"/>
      <stop offset="50%" style="stop-color:#B8860B"/>
      <stop offset="100%" style="stop-color:#FFD700"/>
    </linearGradient>
    <filter id="softShadow" x="-50%" y="-50%" width="200%" height="200%">
      <feGaussianBlur in="SourceAlpha" stdDeviation="2.5"/>
      <feOffset dx="2" dy="2" result="offsetblur"/>
      <feComponentTransfer><feFuncA type="linear" slope="0.4"/></feComponentTransfer>
      <feMerge><feMergeNode/><feMergeNode in="SourceGraphic"/></feMerge>
    </filter>
  </defs>
  <rect x="8" y="8" width="84" height="84" fill="url(#woodPattern)" stroke="#1A0A00" stroke-width="2"/>
  
  <!-- INTERIOR: Arsenal -->
  <g>
    <!-- Weapon rack left -->
    <rect x="16" y="20" width="30" height="24" fill="#4A4A4A" stroke="#333" stroke-width="1" rx="2"/>
    <line x1="20" y1="26" x2="42" y2="26" stroke="#666" stroke-width="3"/>
    <line x1="20" y1="34" x2="42" y2="34" stroke="#666" stroke-width="3"/>
    <!-- Swords -->
    <line x1="24" y1="26" x2="24" y2="16" stroke="#888" stroke-width="2"/>
    <line x1="30" y1="26" x2="30" y2="14" stroke="#888" stroke-width="2"/>
    <line x1="36" y1="26" x2="36" y2="17" stroke="#888" stroke-width="2"/>
    <!-- Weapon rack right -->
    <rect x="54" y="20" width="30" height="24" fill="#4A4A4A" stroke="#333" stroke-width="1" rx="2"/>
    <line x1="58" y1="26" x2="80" y2="26" stroke="#666" stroke-width="3"/>
    <line x1="58" y1="34" x2="80" y2="34" stroke="#666" stroke-width="3"/>
    <!-- Axe -->
    <rect x="62" y="50" width="4" height="16" fill="#555" transform="rotate(-15 64 58)"/>
    <rect x="58" y="54" width="10" height="6" fill="#666" transform="rotate(-15 63 57)"/>
    <!-- Shield -->
    <circle cx="32" cy="56" r="8" fill="#555" stroke="#444" stroke-width="1"/>
    <line x1="32" y1="48" x2="32" y2="64" stroke="#444" stroke-width="1"/>
    <line x1="24" y1="56" x2="40" y2="56" stroke="#444" stroke-width="1"/>
    <!-- Spears -->
    <line x1="72" y1="50" x2="72" y2="70" stroke="#666" stroke-width="2"/>
    <polygon points="72,48 70,52 74,52" fill="#888"/>
  </g>
  
  <!-- Door North -->
  <g filter="url(#softShadow)">
    <rect x="36" y="-4" width="28" height="16" fill="#1A0A00"/>
    <rect x="38" y="-2" width="24" height="14" fill="url(#doorWood)"/>
    <line x1="50" y1="-2" x2="50" y2="12" stroke="#2A1A0A" stroke-width="0.5"/>
    <line x1="38" y1="5" x2="62" y2="5" stroke="#2A1A0A" stroke-width="0.5"/>
    <rect x="38" y="-2" width="24" height="14" fill="none" stroke="url(#goldTrim)" stroke-width="1.5"/>
    <circle cx="55" cy="6" r="2.5" fill="url(#goldTrim)"/>
    <circle cx="55" cy="6" r="1.5" fill="#B8860B"/>
  </g>
  
  <!-- Door East -->
  <g filter="url(#softShadow)">
    <rect x="88" y="36" width="16" height="28" fill="#1A0A00"/>
    <rect x="90" y="38" width="12" height="24" fill="url(#doorWood)"/>
    <line x1="90" y1="50" x2="102" y2="50" stroke="#2A1A0A" stroke-width="0.5"/>
    <line x1="96" y1="38" x2="96" y2="62" stroke="#2A1A0A" stroke-width="0.5"/>
    <rect x="90" y="38" width="12" height="24" fill="none" stroke="url(#goldTrim)" stroke-width="1.5"/>
    <circle cx="96" cy="55" r="2.5" fill="url(#goldTrim)"/>
    <circle cx="96" cy="55" r="1.5" fill="#B8860B"/>
  </g>
  
  <!-- Symbol I -->
  <g filter="url(#softShadow)">
    <circle cx="85" cy="15" r="8" fill="#3D7AB8" stroke="#2D5A98" stroke-width="1"/>
    <circle cx="85" cy="15" r="6" fill="#5A9AD8" opacity="0.5"/>
    <text x="85" y="19" text-anchor="middle" font-size="11" fill="#FFF" font-weight="bold" font-family="serif">I</text>
  </g>
</svg>
