<svg xmlns="http://www.w3.org/2000/svg" viewBox="0 0 100 100" width="400" height="400">
  <defs>
    <linearGradient id="floorGrad" x1="0%" y1="0%" x2="100%" y2="100%">
      <stop offset="0%" style="stop-color:#5A5A5A"/>
      <stop offset="100%" style="stop-color:#3A3A3A"/>
    </linearGradient>
    <linearGradient id="doorWood" x1="0%" y1="0%" x2="100%" y2="0%">
      <stop offset="0%" style="stop-color:#4A2A0A"/>
      <stop offset="50%" style="stop-color:#6B4B2B"/>
      <stop offset="100%" style="stop-color:#3A1A00"/>
    </linearGradient>
    <linearGradient id="goldTrim" x1="0%" y1="0%" x2="100%" y2="100%">
      <stop offset="0%" style="stop-color:#FFD700"/>
      <stop offset="50%" style="stop-color:#B8860B"/>
      <stop offset="100%" style="stop-color:#FFD700"/>
    </linearGradient>
    <filter id="softShadow" x="-50%" y="-50%" width="200%" height="200%">
      <feGaussianBlur in="SourceAlpha" stdDeviation="3"/>
      <feOffset dx="3" dy="3" result="offsetblur"/>
      <feComponentTransfer><feFuncA type="linear" slope="0.5"/></feComponentTransfer>
      <feMerge><feMergeNode/><feMergeNode in="SourceGraphic"/></feMerge>
    </filter>
  </defs>
  
  <rect x="8" y="8" width="84" height="84" fill="url(#floorGrad)" stroke="#1A0A00" stroke-width="2"/>
  
  <!-- Deep pit -->
  <ellipse cx="50" cy="78" rx="42" ry="26" fill="#000"/>
  <ellipse cx="50" cy="84" rx="32" ry="18" fill="#0A0A0A"/>
  <ellipse cx="50" cy="90" rx="22" ry="12" fill="#151515"/>
  <ellipse cx="50" cy="95" rx="12" ry="6" fill="#202020"/>
  
  <!-- Cracked ground -->
  <line x1="18" y1="68" x2="82" y2="82" stroke="#333" stroke-width="2" opacity="0.6"/>
  <line x1="25" y1="85" x2="75" y2="72" stroke="#333" stroke-width="1.5" opacity="0.5"/>
  <line x1="35" y1="72" x2="65" y2="86" stroke="#2A2A2A" stroke-width="1" opacity="0.4"/>
  <line x1="12" y1="75" x2="38" y2="80" stroke="#333" stroke-width="1" opacity="0.5"/>
  <line x1="65" y1="68" x2="88" y2="78" stroke="#333" stroke-width="1" opacity="0.4"/>
  
  <!-- Warning signs -->
  <rect x="20" y="55" width="4" height="10" fill="#444"/>
  <line x1="22" y1="58" x2="22" y2="62" stroke="#FF6B35" stroke-width="2"/>
  <rect x="76" y="58" width="4" height="10" fill="#444"/>
  <line x1="78" y1="61" x2="78" y2="65" stroke="#FF6B35" stroke-width="2"/>
  
  <!-- Door North -->
  <g filter="url(#softShadow)">
    <rect x="36" y="-4" width="28" height="16" fill="#1A0A00"/>
    <rect x="38" y="-2" width="24" height="14" fill="url(#doorWood)"/>
    <line x1="50" y1="-2" x2="50" y2="12" stroke="#2A1A0A" stroke-width="0.5"/>
    <line x1="38" y1="5" x2="62" y2="5" stroke="#2A1A0A" stroke-width="0.5"/>
    <rect x="38" y="-2" width="24" height="14" fill="none" stroke="url(#goldTrim)" stroke-width="1.5"/>
    <circle cx="55" cy="6" r="2.5" fill="url(#goldTrim)"/>
    <circle cx="55" cy="6" r="1.5" fill="#B8860B"/>
  </g>
  
  <!-- Door East -->
  <g filter="url(#softShadow)">
    <rect x="88" y="36" width="16" height="28" fill="#1A0A00"/>
    <rect x="90" y="38" width="12" height="24" fill="url(#doorWood)"/>
    <line x1="90" y1="50" x2="102" y2="50" stroke="#2A1A0A" stroke-width="0.5"/>
    <line x1="96" y1="38" x2="96" y2="62" stroke="#2A1A0A" stroke-width="0.5"/>
    <rect x="90" y="38" width="12" height="24" fill="none" stroke="url(#goldTrim)" stroke-width="1.5"/>
    <circle cx="96" cy="55" r="2.5" fill="url(#goldTrim)"/>
    <circle cx="96" cy="55" r="1.5" fill="#B8860B"/>
  </g>
</svg>
