<svg xmlns="http://www.w3.org/2000/svg" viewBox="0 0 100 100" width="400" height="400">
  <defs>
    <linearGradient id="floorGrad" x1="0%" y1="0%" x2="100%" y2="100%">
      <stop offset="0%" style="stop-color:#7B6B5B"/>
      <stop offset="100%" style="stop-color:#4B3B2B"/>
    </linearGradient>
    <linearGradient id="doorWood" x1="0%" y1="0%" x2="100%" y2="0%">
      <stop offset="0%" style="stop-color:#5A3A2A"/>
      <stop offset="50%" style="stop-color:#7B5B4B"/>
      <stop offset="100%" style="stop-color:#3A1A0A"/>
    </linearGradient>
    <linearGradient id="goldTrim" x1="0%" y1="0%" x2="100%" y2="100%">
      <stop offset="0%" style="stop-color:#FFD700"/>
      <stop offset="50%" style="stop-color:#B8860B"/>
      <stop offset="100%" style="stop-color:#FFD700"/>
    </linearGradient>
    <filter id="softShadow" x="-50%" y="-50%" width="200%" height="200%">
      <feGaussianBlur in="SourceAlpha" stdDeviation="3"/>
      <feOffset dx="3" dy="3" result="offsetblur"/>
      <feComponentTransfer><feFuncA type="linear" slope="0.5"/></feComponentTransfer>
      <feMerge><feMergeNode/><feMergeNode in="SourceGraphic"/></feMerge>
    </filter>
  </defs>
  
  <rect x="8" y="8" width="84" height="84" fill="url(#floorGrad)" stroke="#1A0A00" stroke-width="2"/>
  
  <!-- Large pile of junk left -->
  <g filter="url(#softShadow)">
    <rect x="15" y="30" width="25" height="22" fill="#5A5A5A" stroke="#3A3A3A" stroke-width="1" rx="2"/>
    <rect x="18" y="33" width="8" height="8" fill="#4A4A4A"/>
    <rect x="28" y="35" width="10" height="6" fill="#666"/>
    <circle cx="22" cy="42" r="4" fill="#444"/>
  </g>
  
  <!-- Large pile of junk right -->
  <g filter="url(#softShadow)">
    <rect x="55" y="45" width="28" height="25" fill="#5A5A5A" stroke="#3A3A3A" stroke-width="1" rx="2"/>
    <rect x="58" y="48" width="10" height="10" fill="#4A4A4A"/>
    <rect x="70" y="52" width="10" height="8" fill="#666"/>
    <circle cx="65" cy="60" r="5" fill="#444"/>
  </g>
  
  <!-- Random items -->
  <rect x="45" y="25" width="12" height="10" fill="#6B5344" transform="rotate(10 51 30)"/>
  <ellipse cx="40" cy="65" rx="8" ry="6" fill="#4A4A4A"/>
  <rect x="70" y="25" width="6" height="15" fill="#555" transform="rotate(-5 73 32)"/>
  
  <!-- Door North -->
  <g filter="url(#softShadow)">
    <rect x="36" y="-4" width="28" height="16" fill="#1A0A00"/>
    <rect x="38" y="-2" width="24" height="14" fill="url(#doorWood)"/>
    <line x1="50" y1="-2" x2="50" y2="12" stroke="#2A1A0A" stroke-width="0.5"/>
    <line x1="38" y1="5" x2="62" y2="5" stroke="#2A1A0A" stroke-width="0.5"/>
    <rect x="38" y="-2" width="24" height="14" fill="none" stroke="url(#goldTrim)" stroke-width="1.5"/>
    <circle cx="55" cy="6" r="2.5" fill="url(#goldTrim)"/>
    <circle cx="55" cy="6" r="1.5" fill="#B8860B"/>
  </g>
  
  <!-- Symbol O -->
  <g filter="url(#softShadow)">
    <circle cx="85" cy="15" r="8" fill="#8B4DA8" stroke="#6B2D88" stroke-width="1"/>
    <circle cx="85" cy="15" r="6" fill="#AB6DC8" opacity="0.5"/>
    <text x="85" y="19" text-anchor="middle" font-size="11" fill="#FFF" font-weight="bold" font-family="serif">O</text>
  </g>
</svg>
