<svg xmlns="http://www.w3.org/2000/svg" viewBox="0 0 100 100" width="400" height="400">
  <defs>
    <linearGradient id="floorGrad" x1="0%" y1="0%" x2="100%" y2="100%">
      <stop offset="0%" style="stop-color:#5A5A5A"/>
      <stop offset="100%" style="stop-color:#3A3A3A"/>
    </linearGradient>
    <linearGradient id="doorWood" x1="0%" y1="0%" x2="100%" y2="0%">
      <stop offset="0%" style="stop-color:#4A2A0A"/>
      <stop offset="50%" style="stop-color:#6B4B2B"/>
      <stop offset="100%" style="stop-color:#3A1A00"/>
    </linearGradient>
    <linearGradient id="goldTrim" x1="0%" y1="0%" x2="100%" y2="100%">
      <stop offset="0%" style="stop-color:#FFD700"/>
      <stop offset="50%" style="stop-color:#B8860B"/>
      <stop offset="100%" style="stop-color:#FFD700"/>
    </linearGradient>
    <filter id="softShadow" x="-50%" y="-50%" width="200%" height="200%">
      <feGaussianBlur in="SourceAlpha" stdDeviation="3"/>
      <feOffset dx="3" dy="3" result="offsetblur"/>
      <feComponentTransfer><feFuncA type="linear" slope="0.5"/></feComponentTransfer>
      <feMerge><feMergeNode/><feMergeNode in="SourceGraphic"/></feMerge>
    </filter>
  </defs>
  
  <rect x="8" y="8" width="84" height="84" fill="url(#floorGrad)" stroke="#1A0A00" stroke-width="2"/>
  
  <!-- Large vault door -->
  <g filter="url(#softShadow)">
    <rect x="22" y="22" width="56" height="56" fill="#5A5A5A" stroke="#3A3A3A" stroke-width="4" rx="4"/>
    <!-- Inner frame -->
    <rect x="28" y="28" width="44" height="44" fill="#4A4A4A" stroke="#2A2A2A" stroke-width="2" rx="2"/>
    <!-- Large circular lock -->
    <circle cx="50" cy="50" r="16" fill="#3A3A3A" stroke="#222" stroke-width="3"/>
    <!-- Lock mechanism -->
    <rect x="46" y="34" width="8" height="32" fill="#2A2A2A"/>
    <rect x="34" y="46" width="32" height="8" fill="#2A2A2A"/>
    <!-- Center dial -->
    <circle cx="50" cy="50" r="6" fill="#222"/>
    <circle cx="50" cy="50" r="3" fill="#444"/>
    <!-- Bolts -->
    <rect x="30" y="30" width="6" height="6" fill="#3A3A3A" stroke="#222"/>
    <rect x="64" y="30" width="6" height="6" fill="#3A3A3A" stroke="#222"/>
    <rect x="30" y="64" width="6" height="6" fill="#3A3A3A" stroke="#222"/>
    <rect x="64" y="64" width="6" height="6" fill="#3A3A3A" stroke="#222"/>
  </g>
  
  <!-- Door North -->
  <g filter="url(#softShadow)">
    <rect x="36" y="-4" width="28" height="16" fill="#1A0A00"/>
    <rect x="38" y="-2" width="24" height="14" fill="url(#doorWood)"/>
    <line x1="50" y1="-2" x2="50" y2="12" stroke="#2A1A0A" stroke-width="0.5"/>
    <line x1="38" y1="5" x2="62" y2="5" stroke="#2A1A0A" stroke-width="0.5"/>
    <rect x="38" y="-2" width="24" height="14" fill="none" stroke="url(#goldTrim)" stroke-width="1.5"/>
    <circle cx="55" cy="6" r="2.5" fill="url(#goldTrim)"/>
    <circle cx="55" cy="6" r="1.5" fill="#B8860B"/>
  </g>
  
  <!-- Symbol I -->
  <g filter="url(#softShadow)">
    <circle cx="85" cy="15" r="8" fill="#3D7AB8" stroke="#2D5A98" stroke-width="1"/>
    <circle cx="85" cy="15" r="6" fill="#5A9AD8" opacity="0.5"/>
    <text x="85" y="19" text-anchor="middle" font-size="11" fill="#FFF" font-weight="bold" font-family="serif">I</text>
  </g>
</svg>
