<svg viewBox="0 0 200 200" xmlns="http://www.w3.org/2000/svg">
  <!-- Background - energetic orange for athletic -->
  <rect width="200" height="200" fill="#D35400"/>
  
  <!-- Neck -->
  <rect x="85" y="128" width="30" height="25" fill="#8D5524"/>
  
  <!-- Athletic jersey collar -->
  <path d="M75 140 L100 155 L125 140 L125 150 L100 165 L75 150 Z" fill="#FFF"/>
  <path d="M85 140 L100 148 L115 140" fill="none" stroke="#E74C3C" stroke-width="2"/>
  
  <!-- Face shape -->
  <ellipse cx="100" cy="92" rx="40" ry="44" fill="#8D5524"/>
  
  <!-- Ears -->
  <ellipse cx="60" cy="92" rx="8" ry="12" fill="#8D5524"/>
  <ellipse cx="140" cy="92" rx="8" ry="12" fill="#8D5524"/>
  
  <!-- Hair - short, athletic style -->
  <path d="M60 85 Q55 55 70 42 Q85 32 100 32 Q115 32 130 42 Q145 55 140 85 Q142 65 132 52 Q118 38 100 38 Q82 38 68 52 Q58 65 60 85" fill="#1A1A1A"/>
  <path d="M65 50 Q80 42 100 44 Q120 42 135 50" fill="none" stroke="#0A0A0A" stroke-width="2"/>
  
  <!-- Headband for sports -->
  <path d="M62 60 Q80 52 100 54 Q120 52 138 60" fill="none" stroke="#E74C3C" stroke-width="5" stroke-linecap="round"/>
  
  <!-- Eyes - determined, confident -->
  <ellipse cx="85" cy="88" rx="7" ry="5" fill="#FFF"/>
  <ellipse cx="115" cy="88" rx="7" ry="5" fill="#FFF"/>
  <circle cx="85" cy="88" r="4" fill="#4A3728"/>
  <circle cx="115" cy="88" r="4" fill="#4A3728"/>
  <circle cx="86" cy="87" r="1.5" fill="#FFF"/>
  <circle cx="116" cy="87" r="1.5" fill="#FFF"/>
  
  <!-- Eyebrows - strong, focused -->
  <path d="M78 78 Q85 76 92 78" stroke="#1A1A1A" stroke-width="3" fill="none"/>
  <path d="M108 78 Q115 76 122 78" stroke="#1A1A1A" stroke-width="3" fill="none"/>
  
  <!-- Nose -->
  <path d="M100 92 L97 105 L103 105 Z" fill="#6B4423"/>
  
  <!-- Mouth - confident grin -->
  <path d="M88 115 Q100 122 112 115" stroke="#5A3A1A" stroke-width="2.5" fill="none"/>
  <path d="M90 117 Q100 120 110 117" fill="#FFF" opacity="0.8"/>
</svg>