<svg viewBox="0 0 200 200" xmlns="http://www.w3.org/2000/svg">
  <!-- Background -->
  <rect width="200" height="200" fill="#FFFACD"/>
  
  <!-- Frame -->
  <rect x="5" y="5" width="190" height="190" fill="none" stroke="#FFD700" stroke-width="4"/>
  
  <!-- Dramatic shadow overlay -->
  <defs>
    <radialGradient id="shadow" cx="50%" cy="50%" r="50%">
      <stop offset="0%" stop-color="#000" stop-opacity="0"/>
      <stop offset="100%" stop-color="#000" stop-opacity="0.4"/>
    </radialGradient>
  </defs>
  
  <!-- Neck -->
  <rect x="87" y="130" width="26" height="22" fill="#E5C4B0"/>
  
  <!-- Elegant blouse collar -->
  <path d="M78 142 L100 158 L122 142 L125 150 L100 168 L75 150 Z" fill="#4A4A4A"/>
  <circle cx="100" cy="152" r="4" fill="#8B7355"/>
  
  <!-- Face shape -->
  <ellipse cx="100" cy="92" rx="35" ry="43" fill="#E5C4B0"/>
  
  <!-- Ears -->
  <ellipse cx="65" cy="92" rx="6" ry="10" fill="#E5C4B0"/>
  <ellipse cx="135" cy="92" rx="6" ry="10" fill="#E5C4B0"/>
  
  <!-- Blonde hair - elegant styled -->
  <path d="M65 88 Q63 58 76 48 Q88 38 100 38 Q112 38 124 48 Q137 58 135 88 Q137 70 129 56 Q115 44 100 44 Q85 44 71 56 Q63 70 65 88" fill="#C9B896"/>
  <path d="M65 80 Q63 100 68 115 Q72 120 76 122" fill="none" stroke="#B8A885" stroke-width="6" stroke-linecap="round"/>
  <path d="M135 80 Q137 100 132 115 Q128 120 124 122" fill="none" stroke="#B8A885" stroke-width="6" stroke-linecap="round"/>
  <path d="M70 52 Q85 46 100 48 Q115 46 130 52" fill="none" stroke="#D8C8A5" stroke-width="2"/>
  
  <!-- Pearl earrings -->
  <circle cx="63" cy="102" r="3" fill="#F5F0E6"/>
  <circle cx="137" cy="102" r="3" fill="#F5F0E6"/>
  
  <!-- Eyes - serious, refined -->
  <ellipse cx="88" cy="90" rx="6" ry="5" fill="#E8D8C8"/>
  <ellipse cx="112" cy="90" rx="6" ry="5" fill="#E8D8C8"/>
  <circle cx="88" cy="90" r="3.5" fill="#4A6741"/>
  <circle cx="112" cy="90" r="3.5" fill="#4A6741"/>
  <circle cx="89" cy="89" r="1.2" fill="#FFF" opacity="0.5"/>
  <circle cx="113" cy="89" r="1.2" fill="#FFF" opacity="0.5"/>
  
  <!-- Eyelashes -->
  <path d="M82 86 L80 84" stroke="#4A3728" stroke-width="1"/>
  <path d="M85 85 L84 83" stroke="#4A3728" stroke-width="1"/>
  <path d="M118 86 L120 84" stroke="#4A3728" stroke-width="1"/>
  <path d="M115 85 L116 83" stroke="#4A3728" stroke-width="1"/>
  
  <!-- Eyebrows -->
  <path d="M82 82 Q88 80 94 82" stroke="#B8A885" stroke-width="2" fill="none"/>
  <path d="M106 82 Q112 80 118 82" stroke="#B8A885" stroke-width="2" fill="none"/>
  
  <!-- Nose -->
  <path d="M100 94 L98 108 L102 108 Z" fill="#D4A890"/>
  
  <!-- Mouth - serious -->
  <path d="M92 118 Q100 116 108 118" stroke="#C49580" stroke-width="2" fill="none"/>
  
  <!-- Dramatic shadows -->
  <ellipse cx="75" cy="102" rx="15" ry="20" fill="#000" opacity="0.15"/>
  <ellipse cx="125" cy="102" rx="15" ry="20" fill="#000" opacity="0.15"/>
  
  <!-- Shadow overlay -->
  <rect width="200" height="200" fill="url(#shadow)"/>
</svg>