<svg viewBox="0 0 200 200" xmlns="http://www.w3.org/2000/svg">
  <!-- Background -->
  <rect width="200" height="200" fill="#DDA0DD"/>
  
  <!-- Frame -->
  <rect x="5" y="5" width="190" height="190" fill="none" stroke="#800080" stroke-width="4"/>
  
  <!-- Dramatic shadow overlay -->
  <defs>
    <radialGradient id="shadow" cx="50%" cy="50%" r="50%">
      <stop offset="0%" stop-color="#000" stop-opacity="0"/>
      <stop offset="100%" stop-color="#000" stop-opacity="0.4"/>
    </radialGradient>
  </defs>
  
  <!-- Neck -->
  <rect x="87" y="130" width="26" height="22" fill="#E5C4B0"/>
  
  <!-- Dark shawl collar -->
  <path d="M75 140 L100 162 L125 140 L128 150 L100 175 L72 150 Z" fill="#1A0A2E"/>
  
  <!-- Face shape -->
  <ellipse cx="100" cy="92" rx="35" ry="43" fill="#E5C4B0"/>
  
  <!-- Ears -->
  <ellipse cx="65" cy="92" rx="6" ry="10" fill="#E5C4B0"/>
  <ellipse cx="135" cy="92" rx="6" ry="10" fill="#E5C4B0"/>
  
  <!-- Dark hair - mysterious -->
  <path d="M65 88 Q63 58 76 48 Q88 38 100 38 Q112 38 124 48 Q137 58 135 88 Q137 70 129 56 Q115 44 100 44 Q85 44 71 56 Q63 70 65 88" fill="#0D0D1A"/>
  <path d="M63 75 Q60 95 65 115 Q68 125 75 130" fill="none" stroke="#0D0D1A" stroke-width="8" stroke-linecap="round"/>
  <path d="M137 75 Q140 95 135 115 Q132 125 125 130" fill="none" stroke="#0D0D1A" stroke-width="8" stroke-linecap="round"/>
  
  <!-- Head scarf/band -->
  <path d="M66 50 Q85 43 100 45 Q115 43 134 50" fill="none" stroke="#4A306D" stroke-width="5" stroke-linecap="round"/>
  
  <!-- Eyes - mysterious, knowing -->
  <ellipse cx="88" cy="90" rx="6" ry="5" fill="#E8D8C8"/>
  <ellipse cx="112" cy="90" rx="6" ry="5" fill="#E8D8C8"/>
  <circle cx="88" cy="90" r="3.5" fill="#4A6741"/>
  <circle cx="112" cy="90" r="3.5" fill="#4A6741"/>
  <circle cx="89" cy="89" r="1.2" fill="#FFF" opacity="0.5"/>
  <circle cx="113" cy="89" r="1.2" fill="#FFF" opacity="0.5"/>
  
  <!-- Eyebrows - arched -->
  <path d="M82 82 Q88 78 94 82" stroke="#0D0D1A" stroke-width="2" fill="none"/>
  <path d="M106 82 Q112 78 118 82" stroke="#0D0D1A" stroke-width="2" fill="none"/>
  
  <!-- Nose -->
  <path d="M100 94 L98 108 L102 108 Z" fill="#D4A890"/>
  
  <!-- Mouth - enigmatic -->
  <path d="M92 118 Q100 116 108 118" stroke="#C49580" stroke-width="2" fill="none"/>
  
  <!-- Crystal pendant hint -->
  <circle cx="100" cy="158" r="5" fill="#6B4A8A" opacity="0.8"/>
  
  <!-- Dramatic shadows -->
  <ellipse cx="75" cy="102" rx="15" ry="20" fill="#000" opacity="0.2"/>
  <ellipse cx="125" cy="102" rx="15" ry="20" fill="#000" opacity="0.2"/>
  
  <!-- Shadow overlay -->
  <rect width="200" height="200" fill="url(#shadow)"/>
</svg>