<svg viewBox="0 0 200 200" xmlns="http://www.w3.org/2000/svg">
  <!-- Background -->
  <rect width="200" height="200" fill="#D8BFD8"/>
  
  <!-- Frame -->
  <rect x="5" y="5" width="190" height="190" fill="none" stroke="#4B0082" stroke-width="4"/>
  
  <!-- Dramatic shadow overlay -->
  <defs>
    <radialGradient id="shadow" cx="50%" cy="50%" r="50%">
      <stop offset="0%" stop-color="#000" stop-opacity="0"/>
      <stop offset="100%" stop-color="#000" stop-opacity="0.4"/>
    </radialGradient>
  </defs>
  
  <!-- Neck -->
  <rect x="87" y="130" width="26" height="20" fill="#E5C4B0"/>
  
  <!-- Mysterious shawl with gold trim -->
  <path d="M75 140 L100 165 L125 140 L130 152 L100 180 L70 152 Z" fill="#1A0A2E"/>
  <path d="M78 142 L100 160 L122 142" fill="none" stroke="#8B7355" stroke-width="2"/>
  
  <!-- Face shape -->
  <ellipse cx="100" cy="92" rx="35" ry="43" fill="#E5C4B0"/>
  
  <!-- Ears -->
  <ellipse cx="65" cy="92" rx="6" ry="10" fill="#E5C4B0"/>
  <ellipse cx="135" cy="92" rx="6" ry="10" fill="#E5C4B0"/>
  
  <!-- Dark hair -->
  <path d="M65 90 Q63 60 76 50 Q88 40 100 40 Q112 40 124 50 Q137 60 135 90 Q137 72 129 58 Q115 44 100 44 Q85 44 71 58 Q63 72 65 90" fill="#0D0D1A"/>
  <path d="M65 78 Q64 90 68 108 Q72 118 80 122" fill="none" stroke="#0D0D1A" stroke-width="7" stroke-linecap="round"/>
  <path d="M135 78 Q136 90 132 108 Q128 118 120 122" fill="none" stroke="#0D0D1A" stroke-width="7" stroke-linecap="round"/>
  
  <!-- Headwrap/turban hint -->
  <path d="M68 50 Q85 43 100 45 Q115 43 132 50" fill="none" stroke="#4A306D" stroke-width="6" stroke-linecap="round"/>
  <circle cx="130" cy="48" r="4" fill="#8B7355"/>
  
  <!-- Eyes - mystical, intense -->
  <ellipse cx="88" cy="90" rx="6" ry="5" fill="#E8D8C8"/>
  <ellipse cx="112" cy="90" rx="6" ry="5" fill="#E8D8C8"/>
  <circle cx="88" cy="90" r="3.5" fill="#4A306D"/>
  <circle cx="112" cy="90" r="3.5" fill="#4A306D"/>
  <circle cx="89" cy="89" r="1.2" fill="#FFF" opacity="0.5"/>
  <circle cx="113" cy="89" r="1.2" fill="#FFF" opacity="0.5"/>
  
  <!-- Heavy eye makeup -->
  <path d="M82 86 Q88 84 94 86" stroke="#0D0D1A" stroke-width="2" fill="none"/>
  <path d="M106 86 Q112 84 118 86" stroke="#0D0D1A" stroke-width="2" fill="none"/>
  
  <!-- Eyebrows - dramatic arches -->
  <path d="M82 82 Q88 78 94 82" stroke="#0D0D1A" stroke-width="2.5" fill="none"/>
  <path d="M106 82 Q112 78 118 82" stroke="#0D0D1A" stroke-width="2.5" fill="none"/>
  
  <!-- Nose -->
  <path d="M100 94 L98 108 L102 108 Z" fill="#D4A890"/>
  
  <!-- Mouth - knowing, serious -->
  <path d="M92 118 Q100 116 108 118" stroke="#C49580" stroke-width="2" fill="none"/>
  
  <!-- Crystal ball pendant -->
  <circle cx="100" cy="170" r="6" fill="#6B4A8A" opacity="0.9"/>
  <circle cx="98" cy="168" r="2" fill="#FFF" opacity="0.4"/>
  
  <!-- Dramatic shadows -->
  <ellipse cx="75" cy="102" rx="15" ry="20" fill="#000" opacity="0.2"/>
  <ellipse cx="125" cy="102" rx="15" ry="20" fill="#000" opacity="0.2"/>
  
  <!-- Shadow overlay -->
  <rect width="200" height="200" fill="url(#shadow)"/>
</svg>