<svg viewBox="0 0 200 200" xmlns="http://www.w3.org/2000/svg">
  <!-- Background -->
  <rect width="200" height="200" fill="#2A2A1A"/>
  
  <!-- Frame -->
  <rect x="5" y="5" width="190" height="190" fill="none" stroke="#FF6347" stroke-width="4"/>
  
  <!-- Dramatic shadow overlay -->
  <defs>
    <radialGradient id="shadow" cx="50%" cy="50%" r="50%">
      <stop offset="0%" stop-color="#000" stop-opacity="0"/>
      <stop offset="100%" stop-color="#000" stop-opacity="0.4"/>
    </radialGradient>
  </defs>
  
  <!-- Neck -->
  <rect x="87" y="130" width="26" height="22" fill="#E5C4B0"/>
  
  <!-- Dress collar -->
  <path d="M78 142 L100 160 L122 142 L125 152 L100 172 L75 152 Z" fill="#5A4A4A"/>
  <circle cx="100" cy="155" r="5" fill="#8B7355"/>
  
  <!-- Face shape -->
  <ellipse cx="100" cy="92" rx="35" ry="43" fill="#E5C4B0"/>
  
  <!-- Ears -->
  <ellipse cx="65" cy="92" rx="6" ry="10" fill="#E5C4B0"/>
  <ellipse cx="135" cy="92" rx="6" ry="10" fill="#E5C4B0"/>
  
  <!-- Hair - auburn/red -->
  <path d="M65 90 Q63 60 76 50 Q88 40 100 40 Q112 40 124 50 Q137 60 135 90 Q137 72 129 58 Q115 44 100 44 Q85 44 71 58 Q63 72 65 90" fill="#8B4513"/>
  <path d="M65 82 Q64 95 70 110 Q74 118 80 120" fill="none" stroke="#7B3503" stroke-width="6" stroke-linecap="round"/>
  <path d="M135 82 Q136 95 130 110 Q126 118 120 120" fill="none" stroke="#7B3503" stroke-width="6" stroke-linecap="round"/>
  <path d="M70 54 Q85 48 100 50 Q115 48 130 54" fill="none" stroke="#9B5523" stroke-width="2"/>
  
  <!-- Flower in hair -->
  <circle cx="128" cy="55" r="5" fill="#D4A0A0"/>
  <circle cx="128" cy="55" r="2.5" fill="#F5F0E6"/>
  
  <!-- Eyes - serious -->
  <ellipse cx="88" cy="90" rx="6" ry="5" fill="#E8D8C8"/>
  <ellipse cx="112" cy="90" rx="6" ry="5" fill="#E8D8C8"/>
  <circle cx="88" cy="90" r="3.5" fill="#5D4E37"/>
  <circle cx="112" cy="90" r="3.5" fill="#5D4E37"/>
  <circle cx="89" cy="89" r="1.2" fill="#FFF" opacity="0.5"/>
  <circle cx="113" cy="89" r="1.2" fill="#FFF" opacity="0.5"/>
  
  <!-- Eyelashes -->
  <path d="M83 87 L81 85" stroke="#7B3503" stroke-width="1"/>
  <path d="M86 86 L85 84" stroke="#7B3503" stroke-width="1"/>
  <path d="M117 87 L119 85" stroke="#7B3503" stroke-width="1"/>
  <path d="M114 86 L115 84" stroke="#7B3503" stroke-width="1"/>
  
  <!-- Eyebrows -->
  <path d="M82 82 Q88 80 94 82" stroke="#7B3503" stroke-width="2" fill="none"/>
  <path d="M106 82 Q112 80 118 82" stroke="#7B3503" stroke-width="2" fill="none"/>
  
  <!-- Nose -->
  <path d="M100 94 L98 108 L102 108 Z" fill="#D4A890"/>
  
  <!-- Mouth - serious -->
  <path d="M92 118 Q100 116 108 118" stroke="#C49580" stroke-width="2" fill="none"/>
  
  <!-- Dramatic shadows -->
  <ellipse cx="75" cy="102" rx="15" ry="20" fill="#000" opacity="0.15"/>
  <ellipse cx="125" cy="102" rx="15" ry="20" fill="#000" opacity="0.15"/>
  
  <!-- Shadow overlay -->
  <rect width="200" height="200" fill="url(#shadow)"/>
</svg>