<svg viewBox="0 0 200 200" xmlns="http://www.w3.org/2000/svg">
  <!-- Background -->
  <rect width="200" height="200" fill="#F08080"/>
  
  <!-- Frame -->
  <rect x="5" y="5" width="190" height="190" fill="none" stroke="#8B0000" stroke-width="4"/>
  
  <!-- Dramatic shadow overlay -->
  <defs>
    <radialGradient id="shadow" cx="50%" cy="50%" r="50%">
      <stop offset="0%" stop-color="#000" stop-opacity="0"/>
      <stop offset="100%" stop-color="#000" stop-opacity="0.4"/>
    </radialGradient>
  </defs>
  
  <!-- Thick neck -->
  <rect x="82" y="125" width="36" height="30" fill="#C4956A"/>
  
  <!-- Muscular shoulders -->
  <path d="M60 145 L100 168 L140 145 L140 155 L100 178 L60 155 Z" fill="#2C3E50"/>
  
  <!-- Face shape - square jaw -->
  <path d="M65 85 Q65 55 100 50 Q135 55 135 85 Q135 118 100 128 Q65 118 65 85" fill="#C4956A"/>
  
  <!-- Ears -->
  <ellipse cx="62" cy="88" rx="7" ry="10" fill="#C4956A"/>
  <ellipse cx="138" cy="88" rx="7" ry="10" fill="#C4956A"/>
  
  <!-- Hair - short, dark -->
  <path d="M62 82 Q60 50 75 42 Q88 35 100 35 Q112 35 125 42 Q140 50 138 82 Q140 62 130 48 Q116 38 100 38 Q84 38 70 48 Q60 62 62 82" fill="#1A1A1A"/>
  <path d="M68 48 Q85 42 100 44 Q115 42 132 48" fill="none" stroke="#0A0A0A" stroke-width="2"/>
  
  <!-- Eyes - tough, intense -->
  <ellipse cx="87" cy="85" rx="7" ry="5" fill="#E8D8C8"/>
  <ellipse cx="113" cy="85" rx="7" ry="5" fill="#E8D8C8"/>
  <circle cx="87" cy="85" r="4" fill="#2A3A1A"/>
  <circle cx="113" cy="85" r="4" fill="#2A3A1A"/>
  <circle cx="88" cy="84" r="1.5" fill="#FFF" opacity="0.5"/>
  <circle cx="114" cy="84" r="1.5" fill="#FFF" opacity="0.5"/>
  
  <!-- Heavy eyebrows - intense -->
  <path d="M80 76 Q87 74 94 76" stroke="#1A1A1A" stroke-width="4" fill="none"/>
  <path d="M106 76 Q113 74 120 76" stroke="#1A1A1A" stroke-width="4" fill="none"/>
  
  <!-- Nose - broad -->
  <path d="M100 88 L96 104 L104 104 Z" fill="#B0855A"/>
  <rect x="96" y="98" width="8" height="7" rx="2" fill="#B0855A"/>
  
  <!-- Mouth - firm, grim -->
  <path d="M90 115 Q100 113 110 115" stroke="#8B6914" stroke-width="3" fill="none"/>
  
  <!-- Scar on cheek -->
  <path d="M120 98 L128 103" stroke="#B0855A" stroke-width="2" opacity="0.6"/>
  
  <!-- Dramatic shadows -->
  <ellipse cx="75" cy="95" rx="18" ry="22" fill="#000" opacity="0.2"/>
  <ellipse cx="125" cy="95" rx="18" ry="22" fill="#000" opacity="0.2"/>
  
  <!-- Shadow overlay -->
  <rect width="200" height="200" fill="url(#shadow)"/>
</svg>