<svg viewBox="0 0 200 200" xmlns="http://www.w3.org/2000/svg">
  <!-- Background -->
  <rect width="200" height="200" fill="#E6E6FA"/>
  
  <!-- Frame -->
  <rect x="5" y="5" width="190" height="190" fill="none" stroke="#4B0082" stroke-width="4"/>
  
  <!-- Dramatic shadow overlay -->
  <defs>
    <radialGradient id="shadow" cx="50%" cy="50%" r="50%">
      <stop offset="0%" stop-color="#000" stop-opacity="0"/>
      <stop offset="100%" stop-color="#000" stop-opacity="0.4"/>
    </radialGradient>
  </defs>
  
  <!-- Neck -->
  <rect x="87" y="132" width="26" height="22" fill="#E5C0B0"/>
  
  <!-- Blouse collar -->
  <path d="M78 145 L100 160 L122 145 L122 152 L100 168 L78 152 Z" fill="#3D2B4F"/>
  <circle cx="100" cy="155" r="5" fill="#5B4A6A"/>
  
  <!-- Face shape -->
  <ellipse cx="100" cy="95" rx="35" ry="43" fill="#E5C0B0"/>
  
  <!-- Ears -->
  <ellipse cx="65" cy="95" rx="6" ry="10" fill="#E5C0B0"/>
  <ellipse cx="135" cy="95" rx="6" ry="10" fill="#E5C0B0"/>
  
  <!-- Hair - dark brown, shoulder length -->
  <path d="M65 90 Q63 60 76 48 Q88 38 100 38 Q112 38 124 48 Q137 60 135 90 Q137 72 129 58 Q115 44 100 44 Q85 44 71 58 Q63 72 65 90" fill="#3D2E22"/>
  <path d="M64 85 Q62 100 65 118 Q68 125 73 128" fill="none" stroke="#3D2E22" stroke-width="8" stroke-linecap="round"/>
  <path d="M136 85 Q138 100 135 118 Q132 125 127 128" fill="none" stroke="#3D2E22" stroke-width="8" stroke-linecap="round"/>
  
  <!-- Headband -->
  <path d="M68 52 Q85 45 100 47 Q115 45 132 52" fill="none" stroke="#5B4A6A" stroke-width="5" stroke-linecap="round"/>
  
  <!-- Eyes - serious, intellectual -->
  <ellipse cx="88" cy="92" rx="6" ry="5" fill="#E8D8C8"/>
  <ellipse cx="112" cy="92" rx="6" ry="5" fill="#E8D8C8"/>
  <circle cx="88" cy="92" r="3.5" fill="#4A3728"/>
  <circle cx="112" cy="92" r="3.5" fill="#4A3728"/>
  <circle cx="89" cy="91" r="1.2" fill="#FFF" opacity="0.5"/>
  <circle cx="113" cy="91" r="1.2" fill="#FFF" opacity="0.5"/>
  
  <!-- Eyebrows -->
  <path d="M82 84 Q88 82 94 84" stroke="#3D2E22" stroke-width="2" fill="none"/>
  <path d="M106 84 Q112 82 118 84" stroke="#3D2E22" stroke-width="2" fill="none"/>
  
  <!-- Nose -->
  <path d="M100 97 L98 110 L102 110 Z" fill="#D4A890"/>
  
  <!-- Mouth - serious -->
  <path d="M92 120 Q100 118 108 120" stroke="#C49580" stroke-width="2" fill="none"/>
  
  <!-- Dramatic shadows -->
  <ellipse cx="75" cy="105" rx="15" ry="20" fill="#000" opacity="0.15"/>
  <ellipse cx="125" cy="105" rx="15" ry="20" fill="#000" opacity="0.15"/>
  
  <!-- Shadow overlay -->
  <rect width="200" height="200" fill="url(#shadow)"/>
</svg>